{
 "cells": [
  {
   "cell_type": "code",
   "execution_count": 21,
   "id": "40935349",
   "metadata": {},
   "outputs": [
    {
     "data": {
      "text/plain": [
       "[MidiTrack([\n",
       "   MetaMessage('track_name', name='untitled', time=0),\n",
       "   MetaMessage('copyright', text='Copyright © 1996 by David J. Grossman', time=0),\n",
       "   MetaMessage('text', text='David J. Grossman', time=0),\n",
       "   MetaMessage('smpte_offset', frame_rate=25, hours=32, minutes=0, seconds=3, frames=0, sub_frames=0, time=0),\n",
       "   MetaMessage('time_signature', numerator=3, denominator=4, clocks_per_click=24, notated_32nd_notes_per_beat=8, time=0),\n",
       "   MetaMessage('key_signature', key='C', time=0),\n",
       "   MetaMessage('set_tempo', tempo=857143, time=0),\n",
       "   MetaMessage('marker', text='*', time=112320),\n",
       "   MetaMessage('set_tempo', tempo=1714286, time=12960),\n",
       "   MetaMessage('end_of_track', time=0)]),\n",
       " MidiTrack([\n",
       "   MetaMessage('midi_port', port=0, time=0),\n",
       "   MetaMessage('track_name', name='Solo Cello', time=0),\n",
       "   Message('program_change', channel=0, program=42, time=0),\n",
       "   Message('control_change', channel=0, control=7, value=100, time=0),\n",
       "   Message('control_change', channel=0, control=10, value=64, time=0),\n",
       "   Message('note_on', channel=0, note=60, velocity=100, time=0),\n",
       "   Message('note_on', channel=0, note=60, velocity=0, time=240),\n",
       "   Message('note_on', channel=0, note=59, velocity=100, time=0),\n",
       "   Message('note_on', channel=0, note=59, velocity=0, time=120),\n",
       "   Message('note_on', channel=0, note=57, velocity=100, time=0),\n",
       "   Message('note_on', channel=0, note=57, velocity=0, time=120),\n",
       "   Message('note_on', channel=0, note=55, velocity=100, time=0),\n",
       "   Message('note_on', channel=0, note=55, velocity=0, time=120),\n",
       "   Message('note_on', channel=0, note=53, velocity=100, time=0),\n",
       "   Message('note_on', channel=0, note=53, velocity=0, time=120),\n",
       "   Message('note_on', channel=0, note=52, velocity=100, time=0),\n",
       "   Message('note_on', channel=0, note=52, velocity=0, time=120),\n",
       "   Message('note_on', channel=0, note=50, velocity=100, time=0),\n",
       "   Message('note_on', channel=0, note=50, velocity=0, time=120),\n",
       "   Message('note_on', channel=0, note=48, velocity=100, time=0),\n",
       "   Message('note_on', channel=0, note=48, velocity=0, time=120),\n",
       "   Message('note_on', channel=0, note=43, velocity=100, time=0),\n",
       "   Message('note_on', channel=0, note=43, velocity=0, time=120),\n",
       "   Message('note_on', channel=0, note=40, velocity=100, time=0),\n",
       "   Message('note_on', channel=0, note=40, velocity=0, time=120),\n",
       "   Message('note_on', channel=0, note=43, velocity=100, time=0),\n",
       "   Message('note_on', channel=0, note=43, velocity=0, time=120),\n",
       "   Message('note_on', channel=0, note=36, velocity=100, time=0),\n",
       "   Message('note_on', channel=0, note=36, velocity=0, time=600),\n",
       "   Message('note_on', channel=0, note=38, velocity=100, time=0),\n",
       "   Message('note_on', channel=0, note=38, velocity=0, time=120),\n",
       "   Message('note_on', channel=0, note=40, velocity=100, time=0),\n",
       "   Message('note_on', channel=0, note=40, velocity=0, time=120),\n",
       "   Message('note_on', channel=0, note=41, velocity=100, time=0),\n",
       "   Message('note_on', channel=0, note=41, velocity=0, time=120),\n",
       "   Message('note_on', channel=0, note=43, velocity=100, time=0),\n",
       "   Message('note_on', channel=0, note=43, velocity=0, time=120),\n",
       "   Message('note_on', channel=0, note=45, velocity=100, time=0),\n",
       "   Message('note_on', channel=0, note=45, velocity=0, time=120),\n",
       "   Message('note_on', channel=0, note=47, velocity=100, time=0),\n",
       "   Message('note_on', channel=0, note=47, velocity=0, time=120),\n",
       "   Message('note_on', channel=0, note=48, velocity=100, time=0),\n",
       "   Message('note_on', channel=0, note=48, velocity=0, time=120),\n",
       "   Message('note_on', channel=0, note=50, velocity=100, time=0),\n",
       "   Message('note_on', channel=0, note=50, velocity=0, time=120),\n",
       "   Message('note_on', channel=0, note=48, velocity=100, time=0),\n",
       "   Message('note_on', channel=0, note=48, velocity=0, time=120),\n",
       "   Message('note_on', channel=0, note=47, velocity=100, time=0),\n",
       "   Message('note_on', channel=0, note=47, velocity=0, time=120),\n",
       "   Message('note_on', channel=0, note=45, velocity=100, time=0),\n",
       "   Message('note_on', channel=0, note=45, velocity=0, time=120),\n",
       "   Message('note_on', channel=0, note=43, velocity=100, time=0),\n",
       "   Message('note_on', channel=0, note=43, velocity=0, time=120),\n",
       "   Message('note_on', channel=0, note=45, velocity=100, time=0),\n",
       "   Message('note_on', channel=0, note=45, velocity=0, time=120),\n",
       "   Message('note_on', channel=0, note=47, velocity=100, time=0),\n",
       "   Message('note_on', channel=0, note=47, velocity=0, time=120),\n",
       "   Message('note_on', channel=0, note=48, velocity=100, time=0),\n",
       "   Message('note_on', channel=0, note=48, velocity=0, time=120),\n",
       "   Message('note_on', channel=0, note=50, velocity=100, time=0),\n",
       "   Message('note_on', channel=0, note=50, velocity=0, time=120),\n",
       "   Message('note_on', channel=0, note=52, velocity=100, time=0),\n",
       "   Message('note_on', channel=0, note=52, velocity=0, time=120),\n",
       "   Message('note_on', channel=0, note=53, velocity=100, time=0),\n",
       "   Message('note_on', channel=0, note=53, velocity=0, time=120),\n",
       "   Message('note_on', channel=0, note=50, velocity=100, time=0),\n",
       "   Message('note_on', channel=0, note=50, velocity=0, time=120),\n",
       "   Message('note_on', channel=0, note=52, velocity=100, time=0),\n",
       "   Message('note_on', channel=0, note=52, velocity=0, time=120),\n",
       "   Message('note_on', channel=0, note=53, velocity=100, time=0),\n",
       "   Message('note_on', channel=0, note=53, velocity=0, time=120),\n",
       "   Message('note_on', channel=0, note=52, velocity=100, time=0),\n",
       "   Message('note_on', channel=0, note=52, velocity=0, time=120),\n",
       "   Message('note_on', channel=0, note=50, velocity=100, time=0),\n",
       "   Message('note_on', channel=0, note=50, velocity=0, time=120),\n",
       "   Message('note_on', channel=0, note=48, velocity=100, time=0),\n",
       "   Message('note_on', channel=0, note=48, velocity=0, time=120),\n",
       "   Message('note_on', channel=0, note=50, velocity=100, time=0),\n",
       "   Message('note_on', channel=0, note=50, velocity=0, time=120),\n",
       "   Message('note_on', channel=0, note=52, velocity=100, time=0),\n",
       "   Message('note_on', channel=0, note=52, velocity=0, time=120),\n",
       "   Message('note_on', channel=0, note=53, velocity=100, time=0),\n",
       "   Message('note_on', channel=0, note=53, velocity=0, time=120),\n",
       "   Message('note_on', channel=0, note=55, velocity=100, time=0),\n",
       "   Message('note_on', channel=0, note=55, velocity=0, time=120),\n",
       "   Message('note_on', channel=0, note=57, velocity=100, time=0),\n",
       "   Message('note_on', channel=0, note=57, velocity=0, time=120),\n",
       "   Message('note_on', channel=0, note=59, velocity=100, time=0),\n",
       "   Message('note_on', channel=0, note=59, velocity=0, time=120),\n",
       "   Message('note_on', channel=0, note=60, velocity=100, time=0),\n",
       "   Message('note_on', channel=0, note=60, velocity=0, time=120),\n",
       "   Message('note_on', channel=0, note=62, velocity=100, time=0),\n",
       "   Message('note_on', channel=0, note=62, velocity=0, time=120),\n",
       "   Message('note_on', channel=0, note=60, velocity=100, time=0),\n",
       "   Message('note_on', channel=0, note=60, velocity=0, time=120),\n",
       "   Message('note_on', channel=0, note=59, velocity=100, time=0),\n",
       "   Message('note_on', channel=0, note=59, velocity=0, time=120),\n",
       "   Message('note_on', channel=0, note=57, velocity=100, time=0),\n",
       "   Message('note_on', channel=0, note=57, velocity=0, time=120),\n",
       "   Message('note_on', channel=0, note=55, velocity=100, time=0),\n",
       "   Message('note_on', channel=0, note=55, velocity=0, time=120),\n",
       "   Message('note_on', channel=0, note=57, velocity=100, time=0),\n",
       "   Message('note_on', channel=0, note=57, velocity=0, time=120),\n",
       "   Message('note_on', channel=0, note=59, velocity=100, time=0),\n",
       "   Message('note_on', channel=0, note=59, velocity=0, time=120),\n",
       "   Message('note_on', channel=0, note=60, velocity=100, time=0),\n",
       "   Message('note_on', channel=0, note=60, velocity=0, time=120),\n",
       "   Message('note_on', channel=0, note=62, velocity=100, time=0),\n",
       "   Message('note_on', channel=0, note=62, velocity=0, time=120),\n",
       "   Message('note_on', channel=0, note=64, velocity=100, time=0),\n",
       "   Message('note_on', channel=0, note=64, velocity=0, time=120),\n",
       "   Message('note_on', channel=0, note=65, velocity=100, time=0),\n",
       "   Message('note_on', channel=0, note=65, velocity=0, time=120),\n",
       "   Message('note_on', channel=0, note=62, velocity=100, time=0),\n",
       "   Message('note_on', channel=0, note=62, velocity=0, time=120),\n",
       "   Message('note_on', channel=0, note=64, velocity=100, time=0),\n",
       "   Message('note_on', channel=0, note=64, velocity=0, time=120),\n",
       "   Message('note_on', channel=0, note=65, velocity=100, time=0),\n",
       "   Message('note_on', channel=0, note=65, velocity=0, time=120),\n",
       "   Message('note_on', channel=0, note=64, velocity=100, time=0),\n",
       "   Message('note_on', channel=0, note=64, velocity=0, time=120),\n",
       "   Message('note_on', channel=0, note=62, velocity=100, time=0),\n",
       "   Message('note_on', channel=0, note=62, velocity=0, time=120),\n",
       "   Message('note_on', channel=0, note=60, velocity=100, time=0),\n",
       "   Message('note_on', channel=0, note=60, velocity=0, time=120),\n",
       "   Message('note_on', channel=0, note=60, velocity=100, time=0),\n",
       "   Message('note_on', channel=0, note=60, velocity=0, time=120),\n",
       "   Message('note_on', channel=0, note=59, velocity=100, time=0),\n",
       "   Message('note_on', channel=0, note=59, velocity=0, time=120),\n",
       "   Message('note_on', channel=0, note=57, velocity=100, time=0),\n",
       "   Message('note_on', channel=0, note=57, velocity=0, time=120),\n",
       "   Message('note_on', channel=0, note=55, velocity=100, time=0),\n",
       "   Message('note_on', channel=0, note=55, velocity=0, time=120),\n",
       "   Message('note_on', channel=0, note=53, velocity=100, time=0),\n",
       "   Message('note_on', channel=0, note=53, velocity=0, time=120),\n",
       "   Message('note_on', channel=0, note=52, velocity=100, time=0),\n",
       "   Message('note_on', channel=0, note=52, velocity=0, time=120),\n",
       "   Message('note_on', channel=0, note=50, velocity=100, time=0),\n",
       "   Message('note_on', channel=0, note=50, velocity=0, time=120),\n",
       "   Message('note_on', channel=0, note=48, velocity=100, time=0),\n",
       "   Message('note_on', channel=0, note=48, velocity=0, time=120),\n",
       "   Message('note_on', channel=0, note=59, velocity=100, time=0),\n",
       "   Message('note_on', channel=0, note=59, velocity=0, time=120),\n",
       "   Message('note_on', channel=0, note=60, velocity=100, time=0),\n",
       "   Message('note_on', channel=0, note=60, velocity=0, time=120),\n",
       "   Message('note_on', channel=0, note=62, velocity=100, time=0),\n",
       "   Message('note_on', channel=0, note=62, velocity=0, time=120),\n",
       "   Message('note_on', channel=0, note=64, velocity=100, time=0),\n",
       "   Message('note_on', channel=0, note=64, velocity=0, time=120),\n",
       "   Message('note_on', channel=0, note=62, velocity=100, time=0),\n",
       "   Message('note_on', channel=0, note=62, velocity=0, time=120),\n",
       "   Message('note_on', channel=0, note=60, velocity=100, time=0),\n",
       "   Message('note_on', channel=0, note=60, velocity=0, time=120),\n",
       "   Message('note_on', channel=0, note=59, velocity=100, time=0),\n",
       "   Message('note_on', channel=0, note=59, velocity=0, time=120),\n",
       "   Message('note_on', channel=0, note=57, velocity=100, time=0),\n",
       "   Message('note_on', channel=0, note=57, velocity=0, time=120),\n",
       "   Message('note_on', channel=0, note=60, velocity=100, time=0),\n",
       "   Message('note_on', channel=0, note=60, velocity=0, time=120),\n",
       "   Message('note_on', channel=0, note=55, velocity=100, time=0),\n",
       "   Message('note_on', channel=0, note=55, velocity=0, time=120),\n",
       "   Message('note_on', channel=0, note=60, velocity=100, time=0),\n",
       "   Message('note_on', channel=0, note=60, velocity=0, time=120),\n",
       "   Message('note_on', channel=0, note=54, velocity=100, time=0),\n",
       "   Message('note_on', channel=0, note=54, velocity=0, time=120),\n",
       "   Message('note_on', channel=0, note=52, velocity=100, time=0),\n",
       "   Message('note_on', channel=0, note=52, velocity=0, time=120),\n",
       "   Message('note_on', channel=0, note=54, velocity=100, time=0),\n",
       "   Message('note_on', channel=0, note=54, velocity=0, time=120),\n",
       "   Message('note_on', channel=0, note=55, velocity=100, time=0),\n",
       "   Message('note_on', channel=0, note=55, velocity=0, time=120),\n",
       "   Message('note_on', channel=0, note=57, velocity=100, time=0),\n",
       "   Message('note_on', channel=0, note=57, velocity=0, time=120),\n",
       "   Message('note_on', channel=0, note=55, velocity=100, time=0),\n",
       "   Message('note_on', channel=0, note=55, velocity=0, time=120),\n",
       "   Message('note_on', channel=0, note=54, velocity=100, time=0),\n",
       "   Message('note_on', channel=0, note=54, velocity=0, time=120),\n",
       "   Message('note_on', channel=0, note=52, velocity=100, time=0),\n",
       "   Message('note_on', channel=0, note=52, velocity=0, time=120),\n",
       "   Message('note_on', channel=0, note=50, velocity=100, time=0),\n",
       "   Message('note_on', channel=0, note=50, velocity=0, time=120),\n",
       "   Message('note_on', channel=0, note=54, velocity=100, time=0),\n",
       "   Message('note_on', channel=0, note=54, velocity=0, time=120),\n",
       "   Message('note_on', channel=0, note=48, velocity=100, time=0),\n",
       "   Message('note_on', channel=0, note=48, velocity=0, time=120),\n",
       "   Message('note_on', channel=0, note=54, velocity=100, time=0),\n",
       "   Message('note_on', channel=0, note=54, velocity=0, time=120),\n",
       "   Message('note_on', channel=0, note=47, velocity=100, time=0),\n",
       "   Message('note_on', channel=0, note=47, velocity=0, time=120),\n",
       "   Message('note_on', channel=0, note=57, velocity=100, time=0),\n",
       "   Message('note_on', channel=0, note=57, velocity=0, time=120),\n",
       "   Message('note_on', channel=0, note=59, velocity=100, time=0),\n",
       "   Message('note_on', channel=0, note=59, velocity=0, time=120),\n",
       "   Message('note_on', channel=0, note=60, velocity=100, time=0),\n",
       "   Message('note_on', channel=0, note=60, velocity=0, time=120),\n",
       "   Message('note_on', channel=0, note=62, velocity=100, time=0),\n",
       "   Message('note_on', channel=0, note=62, velocity=0, time=120),\n",
       "   Message('note_on', channel=0, note=60, velocity=100, time=0),\n",
       "   Message('note_on', channel=0, note=60, velocity=0, time=120),\n",
       "   Message('note_on', channel=0, note=59, velocity=100, time=0),\n",
       "   Message('note_on', channel=0, note=59, velocity=0, time=120),\n",
       "   Message('note_on', channel=0, note=57, velocity=100, time=0),\n",
       "   Message('note_on', channel=0, note=57, velocity=0, time=120),\n",
       "   Message('note_on', channel=0, note=55, velocity=100, time=0),\n",
       "   Message('note_on', channel=0, note=55, velocity=0, time=120),\n",
       "   Message('note_on', channel=0, note=59, velocity=100, time=0),\n",
       "   Message('note_on', channel=0, note=59, velocity=0, time=120),\n",
       "   Message('note_on', channel=0, note=54, velocity=100, time=0),\n",
       "   Message('note_on', channel=0, note=54, velocity=0, time=120),\n",
       "   Message('note_on', channel=0, note=59, velocity=100, time=0),\n",
       "   Message('note_on', channel=0, note=59, velocity=0, time=120),\n",
       "   Message('note_on', channel=0, note=52, velocity=100, time=0),\n",
       "   Message('note_on', channel=0, note=52, velocity=0, time=120),\n",
       "   Message('note_on', channel=0, note=50, velocity=100, time=0),\n",
       "   Message('note_on', channel=0, note=50, velocity=0, time=120),\n",
       "   Message('note_on', channel=0, note=52, velocity=100, time=0),\n",
       "   Message('note_on', channel=0, note=52, velocity=0, time=120),\n",
       "   Message('note_on', channel=0, note=54, velocity=100, time=0),\n",
       "   Message('note_on', channel=0, note=54, velocity=0, time=120),\n",
       "   Message('note_on', channel=0, note=55, velocity=100, time=0),\n",
       "   Message('note_on', channel=0, note=55, velocity=0, time=120),\n",
       "   Message('note_on', channel=0, note=54, velocity=100, time=0),\n",
       "   Message('note_on', channel=0, note=54, velocity=0, time=120),\n",
       "   Message('note_on', channel=0, note=52, velocity=100, time=0),\n",
       "   Message('note_on', channel=0, note=52, velocity=0, time=120),\n",
       "   Message('note_on', channel=0, note=50, velocity=100, time=0),\n",
       "   Message('note_on', channel=0, note=50, velocity=0, time=120),\n",
       "   Message('note_on', channel=0, note=48, velocity=100, time=0),\n",
       "   Message('note_on', channel=0, note=48, velocity=0, time=120),\n",
       "   Message('note_on', channel=0, note=52, velocity=100, time=0),\n",
       "   Message('note_on', channel=0, note=52, velocity=0, time=120),\n",
       "   Message('note_on', channel=0, note=47, velocity=100, time=0),\n",
       "   Message('note_on', channel=0, note=47, velocity=0, time=120),\n",
       "   Message('note_on', channel=0, note=52, velocity=100, time=0),\n",
       "   Message('note_on', channel=0, note=52, velocity=0, time=120),\n",
       "   Message('note_on', channel=0, note=45, velocity=100, time=0),\n",
       "   Message('note_on', channel=0, note=45, velocity=0, time=120),\n",
       "   Message('note_on', channel=0, note=55, velocity=100, time=0),\n",
       "   Message('note_on', channel=0, note=55, velocity=0, time=120),\n",
       "   Message('note_on', channel=0, note=57, velocity=100, time=0),\n",
       "   Message('note_on', channel=0, note=57, velocity=0, time=120),\n",
       "   Message('note_on', channel=0, note=59, velocity=100, time=0),\n",
       "   Message('note_on', channel=0, note=59, velocity=0, time=120),\n",
       "   Message('note_on', channel=0, note=60, velocity=100, time=0),\n",
       "   Message('note_on', channel=0, note=60, velocity=0, time=120),\n",
       "   Message('note_on', channel=0, note=59, velocity=100, time=0),\n",
       "   Message('note_on', channel=0, note=59, velocity=0, time=120),\n",
       "   Message('note_on', channel=0, note=57, velocity=100, time=0),\n",
       "   Message('note_on', channel=0, note=57, velocity=0, time=120),\n",
       "   Message('note_on', channel=0, note=55, velocity=100, time=0),\n",
       "   Message('note_on', channel=0, note=55, velocity=0, time=120),\n",
       "   Message('note_on', channel=0, note=54, velocity=100, time=0),\n",
       "   Message('note_on', channel=0, note=54, velocity=0, time=120),\n",
       "   Message('note_on', channel=0, note=57, velocity=100, time=0),\n",
       "   Message('note_on', channel=0, note=57, velocity=0, time=120),\n",
       "   Message('note_on', channel=0, note=52, velocity=100, time=0),\n",
       "   Message('note_on', channel=0, note=52, velocity=0, time=120),\n",
       "   Message('note_on', channel=0, note=57, velocity=100, time=0),\n",
       "   Message('note_on', channel=0, note=57, velocity=0, time=120),\n",
       "   Message('note_on', channel=0, note=50, velocity=100, time=0),\n",
       "   Message('note_on', channel=0, note=50, velocity=0, time=120),\n",
       "   Message('note_on', channel=0, note=48, velocity=100, time=0),\n",
       "   Message('note_on', channel=0, note=48, velocity=0, time=120),\n",
       "   Message('note_on', channel=0, note=50, velocity=100, time=0),\n",
       "   Message('note_on', channel=0, note=50, velocity=0, time=120),\n",
       "   Message('note_on', channel=0, note=52, velocity=100, time=0),\n",
       "   Message('note_on', channel=0, note=52, velocity=0, time=120),\n",
       "   Message('note_on', channel=0, note=54, velocity=100, time=0),\n",
       "   Message('note_on', channel=0, note=54, velocity=0, time=120),\n",
       "   Message('note_on', channel=0, note=52, velocity=100, time=0),\n",
       "   Message('note_on', channel=0, note=52, velocity=0, time=120),\n",
       "   Message('note_on', channel=0, note=50, velocity=100, time=0),\n",
       "   Message('note_on', channel=0, note=50, velocity=0, time=120),\n",
       "   Message('note_on', channel=0, note=48, velocity=100, time=0),\n",
       "   Message('note_on', channel=0, note=48, velocity=0, time=120),\n",
       "   Message('note_on', channel=0, note=47, velocity=100, time=0),\n",
       "   Message('note_on', channel=0, note=47, velocity=0, time=120),\n",
       "   Message('note_on', channel=0, note=50, velocity=100, time=0),\n",
       "   Message('note_on', channel=0, note=50, velocity=0, time=120),\n",
       "   Message('note_on', channel=0, note=45, velocity=100, time=0),\n",
       "   Message('note_on', channel=0, note=45, velocity=0, time=120),\n",
       "   Message('note_on', channel=0, note=50, velocity=100, time=0),\n",
       "   Message('note_on', channel=0, note=50, velocity=0, time=120),\n",
       "   Message('note_on', channel=0, note=43, velocity=100, time=0),\n",
       "   Message('note_on', channel=0, note=43, velocity=0, time=120),\n",
       "   Message('note_on', channel=0, note=50, velocity=100, time=0),\n",
       "   Message('note_on', channel=0, note=50, velocity=0, time=120),\n",
       "   Message('note_on', channel=0, note=52, velocity=100, time=0),\n",
       "   Message('note_on', channel=0, note=52, velocity=0, time=120),\n",
       "   Message('note_on', channel=0, note=54, velocity=100, time=0),\n",
       "   Message('note_on', channel=0, note=54, velocity=0, time=120),\n",
       "   Message('note_on', channel=0, note=55, velocity=100, time=0),\n",
       "   Message('note_on', channel=0, note=55, velocity=0, time=120),\n",
       "   Message('note_on', channel=0, note=57, velocity=100, time=0),\n",
       "   Message('note_on', channel=0, note=57, velocity=0, time=120),\n",
       "   Message('note_on', channel=0, note=59, velocity=100, time=0),\n",
       "   Message('note_on', channel=0, note=59, velocity=0, time=120),\n",
       "   Message('note_on', channel=0, note=60, velocity=100, time=0),\n",
       "   Message('note_on', channel=0, note=60, velocity=0, time=120),\n",
       "   Message('note_on', channel=0, note=62, velocity=100, time=0),\n",
       "   Message('note_on', channel=0, note=62, velocity=0, time=120),\n",
       "   Message('note_on', channel=0, note=60, velocity=100, time=0),\n",
       "   Message('note_on', channel=0, note=60, velocity=0, time=120),\n",
       "   Message('note_on', channel=0, note=59, velocity=100, time=0),\n",
       "   Message('note_on', channel=0, note=59, velocity=0, time=120),\n",
       "   Message('note_on', channel=0, note=57, velocity=100, time=0),\n",
       "   Message('note_on', channel=0, note=57, velocity=0, time=120),\n",
       "   Message('note_on', channel=0, note=59, velocity=100, time=0),\n",
       "   Message('note_on', channel=0, note=59, velocity=0, time=120),\n",
       "   Message('note_on', channel=0, note=60, velocity=100, time=0),\n",
       "   Message('note_on', channel=0, note=60, velocity=0, time=120),\n",
       "   Message('note_on', channel=0, note=62, velocity=100, time=0),\n",
       "   Message('note_on', channel=0, note=62, velocity=0, time=120),\n",
       "   Message('note_on', channel=0, note=60, velocity=100, time=0),\n",
       "   Message('note_on', channel=0, note=60, velocity=0, time=120),\n",
       "   Message('note_on', channel=0, note=59, velocity=100, time=0),\n",
       "   Message('note_on', channel=0, note=59, velocity=0, time=120),\n",
       "   Message('note_on', channel=0, note=57, velocity=100, time=0),\n",
       "   Message('note_on', channel=0, note=57, velocity=0, time=120),\n",
       "   Message('note_on', channel=0, note=55, velocity=100, time=0),\n",
       "   Message('note_on', channel=0, note=55, velocity=0, time=120),\n",
       "   Message('note_on', channel=0, note=57, velocity=100, time=0),\n",
       "   Message('note_on', channel=0, note=57, velocity=0, time=120),\n",
       "   Message('note_on', channel=0, note=59, velocity=100, time=0),\n",
       "   Message('note_on', channel=0, note=59, velocity=0, time=120),\n",
       "   Message('note_on', channel=0, note=57, velocity=100, time=0),\n",
       "   Message('note_on', channel=0, note=57, velocity=0, time=120),\n",
       "   Message('note_on', channel=0, note=55, velocity=100, time=0),\n",
       "   Message('note_on', channel=0, note=55, velocity=0, time=120),\n",
       "   Message('note_on', channel=0, note=53, velocity=100, time=0),\n",
       "   Message('note_on', channel=0, note=53, velocity=0, time=120),\n",
       "   Message('note_on', channel=0, note=52, velocity=100, time=0),\n",
       "   Message('note_on', channel=0, note=52, velocity=0, time=120),\n",
       "   Message('note_on', channel=0, note=55, velocity=100, time=0),\n",
       "   Message('note_on', channel=0, note=55, velocity=0, time=120),\n",
       "   Message('note_on', channel=0, note=52, velocity=100, time=0),\n",
       "   Message('note_on', channel=0, note=52, velocity=0, time=120),\n",
       "   Message('note_on', channel=0, note=49, velocity=100, time=0),\n",
       "   Message('note_on', channel=0, note=49, velocity=0, time=120),\n",
       "   Message('note_on', channel=0, note=45, velocity=100, time=0),\n",
       "   Message('note_on', channel=0, note=45, velocity=0, time=120),\n",
       "   Message('note_on', channel=0, note=47, velocity=100, time=0),\n",
       "   Message('note_on', channel=0, note=47, velocity=0, time=120),\n",
       "   Message('note_on', channel=0, note=49, velocity=100, time=0),\n",
       "   Message('note_on', channel=0, note=49, velocity=0, time=120),\n",
       "   Message('note_on', channel=0, note=50, velocity=100, time=0),\n",
       "   Message('note_on', channel=0, note=50, velocity=0, time=120),\n",
       "   Message('note_on', channel=0, note=52, velocity=100, time=0),\n",
       "   Message('note_on', channel=0, note=52, velocity=0, time=120),\n",
       "   Message('note_on', channel=0, note=53, velocity=100, time=0),\n",
       "   Message('note_on', channel=0, note=53, velocity=0, time=120),\n",
       "   Message('note_on', channel=0, note=55, velocity=100, time=0),\n",
       "   Message('note_on', channel=0, note=55, velocity=0, time=120),\n",
       "   Message('note_on', channel=0, note=52, velocity=100, time=0),\n",
       "   Message('note_on', channel=0, note=52, velocity=0, time=120),\n",
       "   Message('note_on', channel=0, note=53, velocity=100, time=0),\n",
       "   Message('note_on', channel=0, note=53, velocity=0, time=120),\n",
       "   Message('note_on', channel=0, note=62, velocity=100, time=0),\n",
       "   Message('note_on', channel=0, note=62, velocity=0, time=120),\n",
       "   Message('note_on', channel=0, note=57, velocity=100, time=0),\n",
       "   Message('note_on', channel=0, note=57, velocity=0, time=120),\n",
       "   Message('note_on', channel=0, note=53, velocity=100, time=0),\n",
       "   Message('note_on', channel=0, note=53, velocity=0, time=120),\n",
       "   Message('note_on', channel=0, note=50, velocity=100, time=0),\n",
       "   Message('note_on', channel=0, note=50, velocity=0, time=120),\n",
       "   Message('note_on', channel=0, note=52, velocity=100, time=0),\n",
       "   Message('note_on', channel=0, note=52, velocity=0, time=120),\n",
       "   Message('note_on', channel=0, note=53, velocity=100, time=0),\n",
       "   Message('note_on', channel=0, note=53, velocity=0, time=120),\n",
       "   Message('note_on', channel=0, note=55, velocity=100, time=0),\n",
       "   Message('note_on', channel=0, note=55, velocity=0, time=120),\n",
       "   Message('note_on', channel=0, note=57, velocity=100, time=0),\n",
       "   Message('note_on', channel=0, note=57, velocity=0, time=120),\n",
       "   Message('note_on', channel=0, note=59, velocity=100, time=0),\n",
       "   Message('note_on', channel=0, note=59, velocity=0, time=120),\n",
       "   Message('note_on', channel=0, note=60, velocity=100, time=0),\n",
       "   Message('note_on', channel=0, note=60, velocity=0, time=120),\n",
       "   Message('note_on', channel=0, note=57, velocity=100, time=0),\n",
       "   Message('note_on', channel=0, note=57, velocity=0, time=120),\n",
       "   Message('note_on', channel=0, note=59, velocity=100, time=0),\n",
       "   Message('note_on', channel=0, note=59, velocity=0, time=120),\n",
       "   Message('note_on', channel=0, note=62, velocity=100, time=0),\n",
       "   Message('note_on', channel=0, note=62, velocity=0, time=120),\n",
       "   Message('note_on', channel=0, note=59, velocity=100, time=0),\n",
       "   Message('note_on', channel=0, note=59, velocity=0, time=120),\n",
       "   Message('note_on', channel=0, note=56, velocity=100, time=0),\n",
       "   Message('note_on', channel=0, note=56, velocity=0, time=120),\n",
       "   Message('note_on', channel=0, note=52, velocity=100, time=0),\n",
       "   Message('note_on', channel=0, note=52, velocity=0, time=120),\n",
       "   Message('note_on', channel=0, note=54, velocity=100, time=0),\n",
       "   Message('note_on', channel=0, note=54, velocity=0, time=120),\n",
       "   Message('note_on', channel=0, note=56, velocity=100, time=0),\n",
       "   Message('note_on', channel=0, note=56, velocity=0, time=120),\n",
       "   Message('note_on', channel=0, note=57, velocity=100, time=0),\n",
       "   Message('note_on', channel=0, note=57, velocity=0, time=120),\n",
       "   Message('note_on', channel=0, note=59, velocity=100, time=0),\n",
       "   Message('note_on', channel=0, note=59, velocity=0, time=120),\n",
       "   Message('note_on', channel=0, note=60, velocity=100, time=0),\n",
       "   Message('note_on', channel=0, note=60, velocity=0, time=120),\n",
       "   Message('note_on', channel=0, note=62, velocity=100, time=0),\n",
       "   Message('note_on', channel=0, note=62, velocity=0, time=120),\n",
       "   Message('note_on', channel=0, note=59, velocity=100, time=0),\n",
       "   Message('note_on', channel=0, note=59, velocity=0, time=120),\n",
       "   Message('note_on', channel=0, note=60, velocity=100, time=0),\n",
       "   Message('note_on', channel=0, note=60, velocity=0, time=120),\n",
       "   Message('note_on', channel=0, note=62, velocity=100, time=0),\n",
       "   Message('note_on', channel=0, note=62, velocity=0, time=120),\n",
       "   Message('note_on', channel=0, note=60, velocity=100, time=0),\n",
       "   Message('note_on', channel=0, note=60, velocity=0, time=120),\n",
       "   Message('note_on', channel=0, note=59, velocity=100, time=0),\n",
       "   Message('note_on', channel=0, note=59, velocity=0, time=120),\n",
       "   Message('note_on', channel=0, note=57, velocity=100, time=0),\n",
       "   Message('note_on', channel=0, note=57, velocity=0, time=120),\n",
       "   Message('note_on', channel=0, note=53, velocity=100, time=0),\n",
       "   Message('note_on', channel=0, note=53, velocity=0, time=120),\n",
       "   Message('note_on', channel=0, note=52, velocity=100, time=0),\n",
       "   Message('note_on', channel=0, note=52, velocity=0, time=120),\n",
       "   Message('note_on', channel=0, note=50, velocity=100, time=0),\n",
       "   Message('note_on', channel=0, note=50, velocity=0, time=120),\n",
       "   Message('note_on', channel=0, note=48, velocity=100, time=0),\n",
       "   Message('note_on', channel=0, note=48, velocity=0, time=120),\n",
       "   Message('note_on', channel=0, note=47, velocity=100, time=0),\n",
       "   Message('note_on', channel=0, note=47, velocity=0, time=120),\n",
       "   Message('note_on', channel=0, note=45, velocity=100, time=0),\n",
       "   Message('note_on', channel=0, note=45, velocity=0, time=120),\n",
       "   Message('note_on', channel=0, note=43, velocity=100, time=0),\n",
       "   Message('note_on', channel=0, note=43, velocity=0, time=120),\n",
       "   Message('note_on', channel=0, note=41, velocity=100, time=0),\n",
       "   Message('note_on', channel=0, note=41, velocity=0, time=120),\n",
       "   Message('note_on', channel=0, note=45, velocity=100, time=0),\n",
       "   Message('note_on', channel=0, note=45, velocity=0, time=120),\n",
       "   Message('note_on', channel=0, note=47, velocity=100, time=0),\n",
       "   Message('note_on', channel=0, note=47, velocity=0, time=120),\n",
       "   Message('note_on', channel=0, note=49, velocity=100, time=0),\n",
       "   Message('note_on', channel=0, note=49, velocity=0, time=120),\n",
       "   Message('note_on', channel=0, note=50, velocity=100, time=0),\n",
       "   Message('note_on', channel=0, note=50, velocity=0, time=120),\n",
       "   Message('note_on', channel=0, note=52, velocity=100, time=0),\n",
       "   Message('note_on', channel=0, note=52, velocity=0, time=120),\n",
       "   Message('note_on', channel=0, note=53, velocity=100, time=0),\n",
       "   Message('note_on', channel=0, note=53, velocity=0, time=120),\n",
       "   Message('note_on', channel=0, note=50, velocity=100, time=0),\n",
       "   Message('note_on', channel=0, note=50, velocity=0, time=120),\n",
       "   Message('note_on', channel=0, note=59, velocity=100, time=0),\n",
       "   Message('note_on', channel=0, note=59, velocity=0, time=120),\n",
       "   Message('note_on', channel=0, note=56, velocity=100, time=0),\n",
       "   Message('note_on', channel=0, note=56, velocity=0, time=120),\n",
       "   Message('note_on', channel=0, note=57, velocity=100, time=0),\n",
       "   Message('note_on', channel=0, note=57, velocity=0, time=120),\n",
       "   Message('note_on', channel=0, note=50, velocity=100, time=0),\n",
       "   Message('note_on', channel=0, note=50, velocity=0, time=120),\n",
       "   Message('note_on', channel=0, note=40, velocity=100, time=0),\n",
       "   Message('note_on', channel=0, note=40, velocity=0, time=120),\n",
       "   Message('note_on', channel=0, note=47, velocity=100, time=0),\n",
       "   Message('note_on', channel=0, note=47, velocity=0, time=120),\n",
       "   Message('note_on', channel=0, note=50, velocity=100, time=0),\n",
       "   Message('note_on', channel=0, note=50, velocity=0, time=120),\n",
       "   Message('note_on', channel=0, note=57, velocity=100, time=0),\n",
       "   Message('note_on', channel=0, note=57, velocity=0, time=120),\n",
       "   Message('note_on', channel=0, note=56, velocity=100, time=0),\n",
       "   Message('note_on', channel=0, note=56, velocity=0, time=120),\n",
       "   Message('note_on', channel=0, note=59, velocity=100, time=0),\n",
       "   Message('note_on', channel=0, note=59, velocity=0, time=120),\n",
       "   Message('note_on', channel=0, note=52, velocity=100, time=0),\n",
       "   Message('note_on', channel=0, note=52, velocity=0, time=120),\n",
       "   Message('note_on', channel=0, note=56, velocity=100, time=0),\n",
       "   Message('note_on', channel=0, note=56, velocity=0, time=120),\n",
       "   Message('note_on', channel=0, note=59, velocity=100, time=0),\n",
       "   Message('note_on', channel=0, note=59, velocity=0, time=120),\n",
       "   Message('note_on', channel=0, note=62, velocity=100, time=0),\n",
       "   Message('note_on', channel=0, note=62, velocity=0, time=120),\n",
       "   Message('note_on', channel=0, note=60, velocity=100, time=0),\n",
       "   Message('note_on', channel=0, note=60, velocity=0, time=120),\n",
       "   Message('note_on', channel=0, note=56, velocity=100, time=0),\n",
       "   Message('note_on', channel=0, note=56, velocity=0, time=120),\n",
       "   Message('note_on', channel=0, note=57, velocity=100, time=0),\n",
       "   Message('note_on', channel=0, note=57, velocity=0, time=120),\n",
       "   Message('note_on', channel=0, note=51, velocity=100, time=0),\n",
       "   Message('note_on', channel=0, note=51, velocity=0, time=120),\n",
       "   Message('note_on', channel=0, note=57, velocity=100, time=0),\n",
       "   Message('note_on', channel=0, note=57, velocity=0, time=120),\n",
       "   Message('note_on', channel=0, note=59, velocity=100, time=0),\n",
       "   Message('note_on', channel=0, note=59, velocity=0, time=120),\n",
       "   Message('note_on', channel=0, note=57, velocity=100, time=0),\n",
       "   Message('note_on', channel=0, note=57, velocity=0, time=120),\n",
       "   Message('note_on', channel=0, note=51, velocity=100, time=0),\n",
       "   Message('note_on', channel=0, note=51, velocity=0, time=120),\n",
       "   Message('note_on', channel=0, note=57, velocity=100, time=0),\n",
       "   Message('note_on', channel=0, note=57, velocity=0, time=120),\n",
       "   Message('note_on', channel=0, note=59, velocity=100, time=0),\n",
       "   Message('note_on', channel=0, note=59, velocity=0, time=120),\n",
       "   Message('note_on', channel=0, note=57, velocity=100, time=0),\n",
       "   Message('note_on', channel=0, note=57, velocity=0, time=120),\n",
       "   Message('note_on', channel=0, note=51, velocity=100, time=0),\n",
       "   Message('note_on', channel=0, note=51, velocity=0, time=120),\n",
       "   Message('note_on', channel=0, note=57, velocity=100, time=0),\n",
       "   Message('note_on', channel=0, note=57, velocity=0, time=120),\n",
       "   Message('note_on', channel=0, note=59, velocity=100, time=0),\n",
       "   Message('note_on', channel=0, note=59, velocity=0, time=120),\n",
       "   Message('note_on', channel=0, note=60, velocity=100, time=0),\n",
       "   Message('note_on', channel=0, note=60, velocity=0, time=120),\n",
       "   Message('note_on', channel=0, note=52, velocity=100, time=0),\n",
       "   Message('note_on', channel=0, note=52, velocity=0, time=120),\n",
       "   Message('note_on', channel=0, note=57, velocity=100, time=0),\n",
       "   Message('note_on', channel=0, note=57, velocity=0, time=120),\n",
       "   Message('note_on', channel=0, note=59, velocity=100, time=0),\n",
       "   Message('note_on', channel=0, note=59, velocity=0, time=120),\n",
       "   Message('note_on', channel=0, note=60, velocity=100, time=0),\n",
       "   Message('note_on', channel=0, note=60, velocity=0, time=120),\n",
       "   Message('note_on', channel=0, note=52, velocity=100, time=0),\n",
       "   Message('note_on', channel=0, note=52, velocity=0, time=120),\n",
       "   Message('note_on', channel=0, note=57, velocity=100, time=0),\n",
       "   Message('note_on', channel=0, note=57, velocity=0, time=120),\n",
       "   Message('note_on', channel=0, note=59, velocity=100, time=0),\n",
       "   Message('note_on', channel=0, note=59, velocity=0, time=120),\n",
       "   Message('note_on', channel=0, note=60, velocity=100, time=0),\n",
       "   Message('note_on', channel=0, note=60, velocity=0, time=120),\n",
       "   Message('note_on', channel=0, note=52, velocity=100, time=0),\n",
       "   Message('note_on', channel=0, note=52, velocity=0, time=120),\n",
       "   Message('note_on', channel=0, note=59, velocity=100, time=0),\n",
       "   Message('note_on', channel=0, note=59, velocity=0, time=120),\n",
       "   Message('note_on', channel=0, note=60, velocity=100, time=0),\n",
       "   Message('note_on', channel=0, note=60, velocity=0, time=120),\n",
       "   Message('note_on', channel=0, note=62, velocity=100, time=0),\n",
       "   Message('note_on', channel=0, note=62, velocity=0, time=120),\n",
       "   Message('note_on', channel=0, note=52, velocity=100, time=0),\n",
       "   Message('note_on', channel=0, note=52, velocity=0, time=120),\n",
       "   Message('note_on', channel=0, note=59, velocity=100, time=0),\n",
       "   Message('note_on', channel=0, note=59, velocity=0, time=120),\n",
       "   Message('note_on', channel=0, note=60, velocity=100, time=0),\n",
       "   Message('note_on', channel=0, note=60, velocity=0, time=120),\n",
       "   Message('note_on', channel=0, note=62, velocity=100, time=0),\n",
       "   Message('note_on', channel=0, note=62, velocity=0, time=120),\n",
       "   Message('note_on', channel=0, note=52, velocity=100, time=0),\n",
       "   Message('note_on', channel=0, note=52, velocity=0, time=120),\n",
       "   Message('note_on', channel=0, note=59, velocity=100, time=0),\n",
       "   Message('note_on', channel=0, note=59, velocity=0, time=120),\n",
       "   Message('note_on', channel=0, note=60, velocity=100, time=0),\n",
       "   Message('note_on', channel=0, note=60, velocity=0, time=120),\n",
       "   Message('note_on', channel=0, note=62, velocity=100, time=0),\n",
       "   Message('note_on', channel=0, note=62, velocity=0, time=120),\n",
       "   Message('note_on', channel=0, note=59, velocity=100, time=0),\n",
       "   Message('note_on', channel=0, note=59, velocity=0, time=120),\n",
       "   Message('note_on', channel=0, note=56, velocity=100, time=0),\n",
       "   Message('note_on', channel=0, note=56, velocity=0, time=120),\n",
       "   Message('note_on', channel=0, note=54, velocity=100, time=0),\n",
       "   Message('note_on', channel=0, note=54, velocity=0, time=120),\n",
       "   Message('note_on', channel=0, note=52, velocity=100, time=0),\n",
       "   Message('note_on', channel=0, note=52, velocity=0, time=120),\n",
       "   Message('note_on', channel=0, note=60, velocity=100, time=0),\n",
       "   Message('note_on', channel=0, note=60, velocity=0, time=120),\n",
       "   Message('note_on', channel=0, note=57, velocity=100, time=0),\n",
       "   Message('note_on', channel=0, note=57, velocity=0, time=120),\n",
       "   Message('note_on', channel=0, note=56, velocity=100, time=0),\n",
       "   Message('note_on', channel=0, note=56, velocity=0, time=120),\n",
       "   Message('note_on', channel=0, note=57, velocity=100, time=0),\n",
       "   Message('note_on', channel=0, note=57, velocity=0, time=120),\n",
       "   Message('note_on', channel=0, note=60, velocity=100, time=0),\n",
       "   Message('note_on', channel=0, note=60, velocity=0, time=120),\n",
       "   Message('note_on', channel=0, note=57, velocity=100, time=0),\n",
       "   Message('note_on', channel=0, note=57, velocity=0, time=120),\n",
       "   Message('note_on', channel=0, note=56, velocity=100, time=0),\n",
       "   Message('note_on', channel=0, note=56, velocity=0, time=120),\n",
       "   Message('note_on', channel=0, note=57, velocity=100, time=0),\n",
       "   Message('note_on', channel=0, note=57, velocity=0, time=120),\n",
       "   Message('note_on', channel=0, note=60, velocity=100, time=0),\n",
       "   Message('note_on', channel=0, note=60, velocity=0, time=120),\n",
       "   Message('note_on', channel=0, note=57, velocity=100, time=0),\n",
       "   Message('note_on', channel=0, note=57, velocity=0, time=120),\n",
       "   Message('note_on', channel=0, note=54, velocity=100, time=0),\n",
       "   Message('note_on', channel=0, note=54, velocity=0, time=120),\n",
       "   Message('note_on', channel=0, note=51, velocity=100, time=0),\n",
       "   Message('note_on', channel=0, note=51, velocity=0, time=120),\n",
       "   Message('note_on', channel=0, note=60, velocity=100, time=0),\n",
       "   Message('note_on', channel=0, note=60, velocity=0, time=120),\n",
       "   Message('note_on', channel=0, note=57, velocity=100, time=0),\n",
       "   Message('note_on', channel=0, note=57, velocity=0, time=120),\n",
       "   Message('note_on', channel=0, note=56, velocity=100, time=0),\n",
       "   Message('note_on', channel=0, note=56, velocity=0, time=120),\n",
       "   Message('note_on', channel=0, note=57, velocity=100, time=0),\n",
       "   Message('note_on', channel=0, note=57, velocity=0, time=120),\n",
       "   Message('note_on', channel=0, note=60, velocity=100, time=0),\n",
       "   Message('note_on', channel=0, note=60, velocity=0, time=120),\n",
       "   Message('note_on', channel=0, note=57, velocity=100, time=0),\n",
       "   Message('note_on', channel=0, note=57, velocity=0, time=120),\n",
       "   Message('note_on', channel=0, note=56, velocity=100, time=0),\n",
       "   Message('note_on', channel=0, note=56, velocity=0, time=120),\n",
       "   Message('note_on', channel=0, note=57, velocity=100, time=0),\n",
       "   Message('note_on', channel=0, note=57, velocity=0, time=120),\n",
       "   Message('note_on', channel=0, note=60, velocity=100, time=0),\n",
       "   Message('note_on', channel=0, note=60, velocity=0, time=120),\n",
       "   Message('note_on', channel=0, note=57, velocity=100, time=0),\n",
       "   Message('note_on', channel=0, note=57, velocity=0, time=120),\n",
       "   Message('note_on', channel=0, note=53, velocity=100, time=0),\n",
       "   Message('note_on', channel=0, note=53, velocity=0, time=120),\n",
       "   Message('note_on', channel=0, note=50, velocity=100, time=0),\n",
       "   Message('note_on', channel=0, note=50, velocity=0, time=120),\n",
       "   Message('note_on', channel=0, note=59, velocity=100, time=0),\n",
       "   Message('note_on', channel=0, note=59, velocity=0, time=120),\n",
       "   Message('note_on', channel=0, note=56, velocity=100, time=0),\n",
       "   Message('note_on', channel=0, note=56, velocity=0, time=120),\n",
       "   Message('note_on', channel=0, note=54, velocity=100, time=0),\n",
       "   Message('note_on', channel=0, note=54, velocity=0, time=120),\n",
       "   Message('note_on', channel=0, note=56, velocity=100, time=0),\n",
       "   Message('note_on', channel=0, note=56, velocity=0, time=120),\n",
       "   Message('note_on', channel=0, note=59, velocity=100, time=0),\n",
       "   Message('note_on', channel=0, note=59, velocity=0, time=120),\n",
       "   Message('note_on', channel=0, note=53, velocity=100, time=0),\n",
       "   Message('note_on', channel=0, note=53, velocity=0, time=120),\n",
       "   Message('note_on', channel=0, note=52, velocity=100, time=0),\n",
       "   Message('note_on', channel=0, note=52, velocity=0, time=120),\n",
       "   Message('note_on', channel=0, note=53, velocity=100, time=0),\n",
       "   Message('note_on', channel=0, note=53, velocity=0, time=120),\n",
       "   Message('note_on', channel=0, note=59, velocity=100, time=0),\n",
       "   Message('note_on', channel=0, note=59, velocity=0, time=120),\n",
       "   Message('note_on', channel=0, note=52, velocity=100, time=0),\n",
       "   Message('note_on', channel=0, note=52, velocity=0, time=120),\n",
       "   Message('note_on', channel=0, note=50, velocity=100, time=0),\n",
       "   Message('note_on', channel=0, note=50, velocity=0, time=120),\n",
       "   Message('note_on', channel=0, note=48, velocity=100, time=0),\n",
       "   Message('note_on', channel=0, note=48, velocity=0, time=120),\n",
       "   Message('note_on', channel=0, note=45, velocity=100, time=0),\n",
       "   Message('note_on', channel=0, note=45, velocity=0, time=120),\n",
       "   Message('note_on', channel=0, note=48, velocity=100, time=0),\n",
       "   Message('note_on', channel=0, note=48, velocity=0, time=120),\n",
       "   Message('note_on', channel=0, note=52, velocity=100, time=0),\n",
       "   Message('note_on', channel=0, note=52, velocity=0, time=120),\n",
       "   Message('note_on', channel=0, note=48, velocity=100, time=0),\n",
       "   Message('note_on', channel=0, note=48, velocity=0, time=120),\n",
       "   Message('note_on', channel=0, note=45, velocity=100, time=0),\n",
       "   Message('note_on', channel=0, note=45, velocity=0, time=120),\n",
       "   Message('note_on', channel=0, note=48, velocity=100, time=0),\n",
       "   Message('note_on', channel=0, note=48, velocity=0, time=120),\n",
       "   Message('note_on', channel=0, note=52, velocity=100, time=0),\n",
       "   Message('note_on', channel=0, note=52, velocity=0, time=120),\n",
       "   Message('note_on', channel=0, note=57, velocity=100, time=0),\n",
       "   Message('note_on', channel=0, note=57, velocity=0, time=120),\n",
       "   Message('note_on', channel=0, note=60, velocity=100, time=0),\n",
       "   Message('note_on', channel=0, note=60, velocity=0, time=120),\n",
       "   Message('note_on', channel=0, note=57, velocity=100, time=0),\n",
       "   Message('note_on', channel=0, note=57, velocity=0, time=120),\n",
       "   Message('note_on', channel=0, note=52, velocity=100, time=0),\n",
       "   Message('note_on', channel=0, note=52, velocity=0, time=120),\n",
       "   Message('note_on', channel=0, note=48, velocity=100, time=0),\n",
       "   Message('note_on', channel=0, note=48, velocity=0, time=120),\n",
       "   Message('note_on', channel=0, note=45, velocity=100, time=0),\n",
       "   Message('note_on', channel=0, note=45, velocity=0, time=120),\n",
       "   Message('note_on', channel=0, note=48, velocity=100, time=0),\n",
       "   Message('note_on', channel=0, note=48, velocity=0, time=120),\n",
       "   Message('note_on', channel=0, note=52, velocity=100, time=0),\n",
       "   Message('note_on', channel=0, note=52, velocity=0, time=120),\n",
       "   Message('note_on', channel=0, note=48, velocity=100, time=0),\n",
       "   Message('note_on', channel=0, note=48, velocity=0, time=120),\n",
       "   Message('note_on', channel=0, note=45, velocity=100, time=0),\n",
       "   Message('note_on', channel=0, note=45, velocity=0, time=120),\n",
       "   Message('note_on', channel=0, note=48, velocity=100, time=0),\n",
       "   Message('note_on', channel=0, note=48, velocity=0, time=120),\n",
       "   Message('note_on', channel=0, note=52, velocity=100, time=0),\n",
       "   Message('note_on', channel=0, note=52, velocity=0, time=120),\n",
       "   Message('note_on', channel=0, note=57, velocity=100, time=0),\n",
       "   Message('note_on', channel=0, note=57, velocity=0, time=120),\n",
       "   Message('note_on', channel=0, note=60, velocity=100, time=0),\n",
       "   Message('note_on', channel=0, note=60, velocity=0, time=120),\n",
       "   Message('note_on', channel=0, note=57, velocity=100, time=0),\n",
       "   Message('note_on', channel=0, note=57, velocity=0, time=120),\n",
       "   Message('note_on', channel=0, note=53, velocity=100, time=0),\n",
       "   Message('note_on', channel=0, note=53, velocity=0, time=120),\n",
       "   Message('note_on', channel=0, note=50, velocity=100, time=0),\n",
       "   Message('note_on', channel=0, note=50, velocity=0, time=120),\n",
       "   Message('note_on', channel=0, note=47, velocity=100, time=0),\n",
       "   Message('note_on', channel=0, note=47, velocity=0, time=120),\n",
       "   Message('note_on', channel=0, note=50, velocity=100, time=0),\n",
       "   Message('note_on', channel=0, note=50, velocity=0, time=120),\n",
       "   Message('note_on', channel=0, note=55, velocity=100, time=0),\n",
       "   Message('note_on', channel=0, note=55, velocity=0, time=120),\n",
       "   Message('note_on', channel=0, note=50, velocity=100, time=0),\n",
       "   Message('note_on', channel=0, note=50, velocity=0, time=120),\n",
       "   Message('note_on', channel=0, note=47, velocity=100, time=0),\n",
       "   Message('note_on', channel=0, note=47, velocity=0, time=120),\n",
       "   Message('note_on', channel=0, note=50, velocity=100, time=0),\n",
       "   Message('note_on', channel=0, note=50, velocity=0, time=120),\n",
       "   Message('note_on', channel=0, note=55, velocity=100, time=0),\n",
       "   Message('note_on', channel=0, note=55, velocity=0, time=120),\n",
       "   Message('note_on', channel=0, note=59, velocity=100, time=0),\n",
       "   Message('note_on', channel=0, note=59, velocity=0, time=120),\n",
       "   Message('note_on', channel=0, note=62, velocity=100, time=0),\n",
       "   Message('note_on', channel=0, note=62, velocity=0, time=120),\n",
       "   Message('note_on', channel=0, note=59, velocity=100, time=0),\n",
       "   Message('note_on', channel=0, note=59, velocity=0, time=120),\n",
       "   Message('note_on', channel=0, note=55, velocity=100, time=0),\n",
       "   Message('note_on', channel=0, note=55, velocity=0, time=120),\n",
       "   Message('note_on', channel=0, note=53, velocity=100, time=0),\n",
       "   Message('note_on', channel=0, note=53, velocity=0, time=120),\n",
       "   Message('note_on', channel=0, note=47, velocity=100, time=0),\n",
       "   Message('note_on', channel=0, note=47, velocity=0, time=120),\n",
       "   Message('note_on', channel=0, note=53, velocity=100, time=0),\n",
       "   Message('note_on', channel=0, note=53, velocity=0, time=120),\n",
       "   Message('note_on', channel=0, note=55, velocity=100, time=0),\n",
       "   Message('note_on', channel=0, note=55, velocity=0, time=120),\n",
       "   Message('note_on', channel=0, note=53, velocity=100, time=0),\n",
       "   Message('note_on', channel=0, note=53, velocity=0, time=120),\n",
       "   Message('note_on', channel=0, note=47, velocity=100, time=0),\n",
       "   Message('note_on', channel=0, note=47, velocity=0, time=120),\n",
       "   Message('note_on', channel=0, note=53, velocity=100, time=0),\n",
       "   Message('note_on', channel=0, note=53, velocity=0, time=120),\n",
       "   Message('note_on', channel=0, note=55, velocity=100, time=0),\n",
       "   Message('note_on', channel=0, note=55, velocity=0, time=120),\n",
       "   Message('note_on', channel=0, note=53, velocity=100, time=0),\n",
       "   Message('note_on', channel=0, note=53, velocity=0, time=120),\n",
       "   Message('note_on', channel=0, note=62, velocity=100, time=0),\n",
       "   Message('note_on', channel=0, note=62, velocity=0, time=120),\n",
       "   Message('note_on', channel=0, note=59, velocity=100, time=0),\n",
       "   Message('note_on', channel=0, note=59, velocity=0, time=120),\n",
       "   Message('note_on', channel=0, note=55, velocity=100, time=0),\n",
       "   Message('note_on', channel=0, note=55, velocity=0, time=120),\n",
       "   Message('note_on', channel=0, note=52, velocity=100, time=0),\n",
       "   Message('note_on', channel=0, note=52, velocity=0, time=120),\n",
       "   Message('note_on', channel=0, note=48, velocity=100, time=0),\n",
       "   Message('note_on', channel=0, note=48, velocity=0, time=120),\n",
       "   Message('note_on', channel=0, note=52, velocity=100, time=0),\n",
       "   Message('note_on', channel=0, note=52, velocity=0, time=120),\n",
       "   Message('note_on', channel=0, note=55, velocity=100, time=0),\n",
       "   Message('note_on', channel=0, note=55, velocity=0, time=120),\n",
       "   Message('note_on', channel=0, note=52, velocity=100, time=0),\n",
       "   Message('note_on', channel=0, note=52, velocity=0, time=120),\n",
       "   Message('note_on', channel=0, note=48, velocity=100, time=0),\n",
       "   Message('note_on', channel=0, note=48, velocity=0, time=120),\n",
       "   Message('note_on', channel=0, note=52, velocity=100, time=0),\n",
       "   Message('note_on', channel=0, note=52, velocity=0, time=120),\n",
       "   Message('note_on', channel=0, note=55, velocity=100, time=0),\n",
       "   Message('note_on', channel=0, note=55, velocity=0, time=120),\n",
       "   Message('note_on', channel=0, note=58, velocity=100, time=0),\n",
       "   Message('note_on', channel=0, note=58, velocity=0, time=120),\n",
       "   Message('note_on', channel=0, note=62, velocity=100, time=0),\n",
       "   Message('note_on', channel=0, note=62, velocity=0, time=120),\n",
       "   Message('note_on', channel=0, note=58, velocity=100, time=0),\n",
       "   Message('note_on', channel=0, note=58, velocity=0, time=120),\n",
       "   Message('note_on', channel=0, note=55, velocity=100, time=0),\n",
       "   Message('note_on', channel=0, note=55, velocity=0, time=120),\n",
       "   Message('note_on', channel=0, note=52, velocity=100, time=0),\n",
       "   Message('note_on', channel=0, note=52, velocity=0, time=120),\n",
       "   Message('note_on', channel=0, note=48, velocity=100, time=0),\n",
       "   Message('note_on', channel=0, note=48, velocity=0, time=120),\n",
       "   Message('note_on', channel=0, note=52, velocity=100, time=0),\n",
       "   Message('note_on', channel=0, note=52, velocity=0, time=120),\n",
       "   Message('note_on', channel=0, note=55, velocity=100, time=0),\n",
       "   Message('note_on', channel=0, note=55, velocity=0, time=120),\n",
       "   Message('note_on', channel=0, note=52, velocity=100, time=0),\n",
       "   Message('note_on', channel=0, note=52, velocity=0, time=120),\n",
       "   Message('note_on', channel=0, note=48, velocity=100, time=0),\n",
       "   Message('note_on', channel=0, note=48, velocity=0, time=120),\n",
       "   Message('note_on', channel=0, note=52, velocity=100, time=0),\n",
       "   Message('note_on', channel=0, note=52, velocity=0, time=120),\n",
       "   Message('note_on', channel=0, note=55, velocity=100, time=0),\n",
       "   Message('note_on', channel=0, note=55, velocity=0, time=120),\n",
       "   Message('note_on', channel=0, note=60, velocity=100, time=0),\n",
       "   Message('note_on', channel=0, note=60, velocity=0, time=120),\n",
       "   Message('note_on', channel=0, note=58, velocity=100, time=0),\n",
       "   Message('note_on', channel=0, note=58, velocity=0, time=120),\n",
       "   Message('note_on', channel=0, note=57, velocity=100, time=0),\n",
       "   Message('note_on', channel=0, note=57, velocity=0, time=120),\n",
       "   Message('note_on', channel=0, note=55, velocity=100, time=0),\n",
       "   Message('note_on', channel=0, note=55, velocity=0, time=120),\n",
       "   Message('note_on', channel=0, note=57, velocity=100, time=0),\n",
       "   Message('note_on', channel=0, note=57, velocity=0, time=120),\n",
       "   Message('note_on', channel=0, note=53, velocity=100, time=0),\n",
       "   Message('note_on', channel=0, note=53, velocity=0, time=120),\n",
       "   Message('note_on', channel=0, note=52, velocity=100, time=0),\n",
       "   Message('note_on', channel=0, note=52, velocity=0, time=120),\n",
       "   Message('note_on', channel=0, note=53, velocity=100, time=0),\n",
       "   Message('note_on', channel=0, note=53, velocity=0, time=120),\n",
       "   Message('note_on', channel=0, note=55, velocity=100, time=0),\n",
       "   Message('note_on', channel=0, note=55, velocity=0, time=120),\n",
       "   Message('note_on', channel=0, note=57, velocity=100, time=0),\n",
       "   Message('note_on', channel=0, note=57, velocity=0, time=120),\n",
       "   Message('note_on', channel=0, note=59, velocity=100, time=0),\n",
       "   Message('note_on', channel=0, note=59, velocity=0, time=120),\n",
       "   Message('note_on', channel=0, note=60, velocity=100, time=0),\n",
       "   Message('note_on', channel=0, note=60, velocity=0, time=120),\n",
       "   Message('note_on', channel=0, note=62, velocity=100, time=0),\n",
       "   Message('note_on', channel=0, note=62, velocity=0, time=120),\n",
       "   Message('note_on', channel=0, note=57, velocity=100, time=0),\n",
       "   Message('note_on', channel=0, note=57, velocity=0, time=120),\n",
       "   Message('note_on', channel=0, note=53, velocity=100, time=0),\n",
       "   Message('note_on', channel=0, note=53, velocity=0, time=120),\n",
       "   Message('note_on', channel=0, note=50, velocity=100, time=0),\n",
       "   Message('note_on', channel=0, note=50, velocity=0, time=120),\n",
       "   Message('note_on', channel=0, note=55, velocity=100, time=0),\n",
       "   Message('note_on', channel=0, note=55, velocity=0, time=120),\n",
       "   Message('note_on', channel=0, note=52, velocity=100, time=0),\n",
       "   Message('note_on', channel=0, note=52, velocity=0, time=120),\n",
       "   Message('note_on', channel=0, note=50, velocity=100, time=0),\n",
       "   Message('note_on', channel=0, note=50, velocity=0, time=120),\n",
       "   Message('note_on', channel=0, note=52, velocity=100, time=0),\n",
       "   Message('note_on', channel=0, note=52, velocity=0, time=120),\n",
       "   Message('note_on', channel=0, note=53, velocity=100, time=0),\n",
       "   Message('note_on', channel=0, note=53, velocity=0, time=120),\n",
       "   Message('note_on', channel=0, note=55, velocity=100, time=0),\n",
       "   Message('note_on', channel=0, note=55, velocity=0, time=120),\n",
       "   Message('note_on', channel=0, note=57, velocity=100, time=0),\n",
       "   Message('note_on', channel=0, note=57, velocity=0, time=120),\n",
       "   Message('note_on', channel=0, note=59, velocity=100, time=0),\n",
       "   Message('note_on', channel=0, note=59, velocity=0, time=120),\n",
       "   Message('note_on', channel=0, note=60, velocity=100, time=0),\n",
       "   Message('note_on', channel=0, note=60, velocity=0, time=120),\n",
       "   Message('note_on', channel=0, note=55, velocity=100, time=0),\n",
       "   Message('note_on', channel=0, note=55, velocity=0, time=120),\n",
       "   Message('note_on', channel=0, note=52, velocity=100, time=0),\n",
       "   Message('note_on', channel=0, note=52, velocity=0, time=120),\n",
       "   Message('note_on', channel=0, note=48, velocity=100, time=0),\n",
       "   Message('note_on', channel=0, note=48, velocity=0, time=120),\n",
       "   Message('note_on', channel=0, note=53, velocity=100, time=0),\n",
       "   Message('note_on', channel=0, note=53, velocity=0, time=120),\n",
       "   Message('note_on', channel=0, note=50, velocity=100, time=0),\n",
       "   Message('note_on', channel=0, note=50, velocity=0, time=120),\n",
       "   Message('note_on', channel=0, note=53, velocity=100, time=0),\n",
       "   Message('note_on', channel=0, note=53, velocity=0, time=120),\n",
       "   Message('note_on', channel=0, note=55, velocity=100, time=0),\n",
       "   Message('note_on', channel=0, note=55, velocity=0, time=120),\n",
       "   Message('note_on', channel=0, note=53, velocity=100, time=0),\n",
       "   Message('note_on', channel=0, note=53, velocity=0, time=120),\n",
       "   Message('note_on', channel=0, note=50, velocity=100, time=0),\n",
       "   Message('note_on', channel=0, note=50, velocity=0, time=120),\n",
       "   Message('note_on', channel=0, note=53, velocity=100, time=0),\n",
       "   Message('note_on', channel=0, note=53, velocity=0, time=120),\n",
       "   Message('note_on', channel=0, note=55, velocity=100, time=0),\n",
       "   Message('note_on', channel=0, note=55, velocity=0, time=120),\n",
       "   Message('note_on', channel=0, note=53, velocity=100, time=0),\n",
       "   Message('note_on', channel=0, note=53, velocity=0, time=120),\n",
       "   Message('note_on', channel=0, note=48, velocity=100, time=0),\n",
       "   Message('note_on', channel=0, note=48, velocity=0, time=120),\n",
       "   Message('note_on', channel=0, note=53, velocity=100, time=0),\n",
       "   Message('note_on', channel=0, note=53, velocity=0, time=120),\n",
       "   Message('note_on', channel=0, note=55, velocity=100, time=0),\n",
       "   Message('note_on', channel=0, note=55, velocity=0, time=120),\n",
       "   Message('note_on', channel=0, note=53, velocity=100, time=0),\n",
       "   Message('note_on', channel=0, note=53, velocity=0, time=120),\n",
       "   Message('note_on', channel=0, note=47, velocity=100, time=0),\n",
       "   Message('note_on', channel=0, note=47, velocity=0, time=120),\n",
       "   Message('note_on', channel=0, note=53, velocity=100, time=0),\n",
       "   Message('note_on', channel=0, note=53, velocity=0, time=120),\n",
       "   Message('note_on', channel=0, note=55, velocity=100, time=0),\n",
       "   Message('note_on', channel=0, note=55, velocity=0, time=120),\n",
       "   Message('note_on', channel=0, note=53, velocity=100, time=0),\n",
       "   Message('note_on', channel=0, note=53, velocity=0, time=120),\n",
       "   Message('note_on', channel=0, note=45, velocity=100, time=0),\n",
       "   Message('note_on', channel=0, note=45, velocity=0, time=120),\n",
       "   Message('note_on', channel=0, note=53, velocity=100, time=0),\n",
       "   Message('note_on', channel=0, note=53, velocity=0, time=120),\n",
       "   Message('note_on', channel=0, note=55, velocity=100, time=0),\n",
       "   Message('note_on', channel=0, note=55, velocity=0, time=120),\n",
       "   Message('note_on', channel=0, note=53, velocity=100, time=0),\n",
       "   Message('note_on', channel=0, note=53, velocity=0, time=120),\n",
       "   Message('note_on', channel=0, note=43, velocity=100, time=0),\n",
       "   Message('note_on', channel=0, note=43, velocity=0, time=120),\n",
       "   Message('note_on', channel=0, note=53, velocity=100, time=0),\n",
       "   Message('note_on', channel=0, note=53, velocity=0, time=120),\n",
       "   Message('note_on', channel=0, note=55, velocity=100, time=0),\n",
       "   Message('note_on', channel=0, note=55, velocity=0, time=120),\n",
       "   Message('note_on', channel=0, note=52, velocity=100, time=0),\n",
       "   Message('note_on', channel=0, note=52, velocity=0, time=120),\n",
       "   Message('note_on', channel=0, note=43, velocity=100, time=0),\n",
       "   Message('note_on', channel=0, note=43, velocity=0, time=120),\n",
       "   Message('note_on', channel=0, note=36, velocity=100, time=0),\n",
       "   Message('note_on', channel=0, note=36, velocity=0, time=120),\n",
       "   Message('note_on', channel=0, note=43, velocity=100, time=0),\n",
       "   Message('note_on', channel=0, note=43, velocity=0, time=120),\n",
       "   Message('note_on', channel=0, note=52, velocity=100, time=0),\n",
       "   Message('note_on', channel=0, note=52, velocity=0, time=120),\n",
       "   Message('note_on', channel=0, note=43, velocity=100, time=0),\n",
       "   Message('note_on', channel=0, note=43, velocity=0, time=120),\n",
       "   Message('note_on', channel=0, note=36, velocity=100, time=0),\n",
       "   Message('note_on', channel=0, note=36, velocity=0, time=120),\n",
       "   Message('note_on', channel=0, note=43, velocity=100, time=0),\n",
       "   Message('note_on', channel=0, note=43, velocity=0, time=120),\n",
       "   Message('note_on', channel=0, note=52, velocity=100, time=0),\n",
       "   Message('note_on', channel=0, note=52, velocity=0, time=120),\n",
       "   Message('note_on', channel=0, note=50, velocity=100, time=0),\n",
       "   Message('note_on', channel=0, note=50, velocity=0, time=120),\n",
       "   Message('note_on', channel=0, note=48, velocity=100, time=0),\n",
       "   Message('note_on', channel=0, note=48, velocity=0, time=120),\n",
       "   Message('note_on', channel=0, note=47, velocity=100, time=0),\n",
       "   Message('note_on', channel=0, note=47, velocity=0, time=120),\n",
       "   Message('note_on', channel=0, note=45, velocity=100, time=0),\n",
       "   Message('note_on', channel=0, note=45, velocity=0, time=120),\n",
       "   Message('note_on', channel=0, note=52, velocity=100, time=0),\n",
       "   Message('note_on', channel=0, note=52, velocity=0, time=120),\n",
       "   Message('note_on', channel=0, note=60, velocity=100, time=0),\n",
       "   Message('note_on', channel=0, note=60, velocity=0, time=120),\n",
       "   Message('note_on', channel=0, note=52, velocity=100, time=0),\n",
       "   Message('note_on', channel=0, note=52, velocity=0, time=120),\n",
       "   Message('note_on', channel=0, note=45, velocity=100, time=0),\n",
       "   Message('note_on', channel=0, note=45, velocity=0, time=120),\n",
       "   Message('note_on', channel=0, note=52, velocity=100, time=0),\n",
       "   Message('note_on', channel=0, note=52, velocity=0, time=120),\n",
       "   Message('note_on', channel=0, note=60, velocity=100, time=0),\n",
       "   Message('note_on', channel=0, note=60, velocity=0, time=120),\n",
       "   Message('note_on', channel=0, note=52, velocity=100, time=0),\n",
       "   Message('note_on', channel=0, note=52, velocity=0, time=120),\n",
       "   Message('note_on', channel=0, note=45, velocity=100, time=0),\n",
       "   Message('note_on', channel=0, note=45, velocity=0, time=120),\n",
       "   Message('note_on', channel=0, note=55, velocity=100, time=0),\n",
       "   Message('note_on', channel=0, note=55, velocity=0, time=120),\n",
       "   Message('note_on', channel=0, note=53, velocity=100, time=0),\n",
       "   Message('note_on', channel=0, note=53, velocity=0, time=120),\n",
       "   Message('note_on', channel=0, note=52, velocity=100, time=0),\n",
       "   Message('note_on', channel=0, note=52, velocity=0, time=120),\n",
       "   Message('note_on', channel=0, note=53, velocity=100, time=0),\n",
       "   Message('note_on', channel=0, note=53, velocity=0, time=120),\n",
       "   Message('note_on', channel=0, note=45, velocity=100, time=0),\n",
       "   Message('note_on', channel=0, note=45, velocity=0, time=120),\n",
       "   Message('note_on', channel=0, note=38, velocity=100, time=0),\n",
       "   Message('note_on', channel=0, note=38, velocity=0, time=120),\n",
       "   Message('note_on', channel=0, note=45, velocity=100, time=0),\n",
       "   Message('note_on', channel=0, note=45, velocity=0, time=120),\n",
       "   Message('note_on', channel=0, note=53, velocity=100, time=0),\n",
       "   Message('note_on', channel=0, note=53, velocity=0, time=120),\n",
       "   Message('note_on', channel=0, note=45, velocity=100, time=0),\n",
       "   Message('note_on', channel=0, note=45, velocity=0, time=120),\n",
       "   Message('note_on', channel=0, note=38, velocity=100, time=0),\n",
       "   Message('note_on', channel=0, note=38, velocity=0, time=120),\n",
       "   Message('note_on', channel=0, note=45, velocity=100, time=0),\n",
       "   Message('note_on', channel=0, note=45, velocity=0, time=120),\n",
       "   Message('note_on', channel=0, note=53, velocity=100, time=0),\n",
       "   Message('note_on', channel=0, note=53, velocity=0, time=120),\n",
       "   Message('note_on', channel=0, note=52, velocity=100, time=0),\n",
       "   Message('note_on', channel=0, note=52, velocity=0, time=120),\n",
       "   Message('note_on', channel=0, note=50, velocity=100, time=0),\n",
       "   Message('note_on', channel=0, note=50, velocity=0, time=120),\n",
       "   Message('note_on', channel=0, note=48, velocity=100, time=0),\n",
       "   Message('note_on', channel=0, note=48, velocity=0, time=120),\n",
       "   Message('note_on', channel=0, note=47, velocity=100, time=0),\n",
       "   Message('note_on', channel=0, note=47, velocity=0, time=120),\n",
       "   Message('note_on', channel=0, note=54, velocity=100, time=0),\n",
       "   Message('note_on', channel=0, note=54, velocity=0, time=120),\n",
       "   Message('note_on', channel=0, note=62, velocity=100, time=0),\n",
       "   Message('note_on', channel=0, note=62, velocity=0, time=120),\n",
       "   Message('note_on', channel=0, note=54, velocity=100, time=0),\n",
       "   Message('note_on', channel=0, note=54, velocity=0, time=120),\n",
       "   Message('note_on', channel=0, note=47, velocity=100, time=0),\n",
       "   Message('note_on', channel=0, note=47, velocity=0, time=120),\n",
       "   Message('note_on', channel=0, note=54, velocity=100, time=0),\n",
       "   Message('note_on', channel=0, note=54, velocity=0, time=120),\n",
       "   Message('note_on', channel=0, note=62, velocity=100, time=0),\n",
       "   Message('note_on', channel=0, note=62, velocity=0, time=120),\n",
       "   Message('note_on', channel=0, note=54, velocity=100, time=0),\n",
       "   Message('note_on', channel=0, note=54, velocity=0, time=120),\n",
       "   Message('note_on', channel=0, note=47, velocity=100, time=0),\n",
       "   Message('note_on', channel=0, note=47, velocity=0, time=120),\n",
       "   Message('note_on', channel=0, note=57, velocity=100, time=0),\n",
       "   Message('note_on', channel=0, note=57, velocity=0, time=120),\n",
       "   Message('note_on', channel=0, note=55, velocity=100, time=0),\n",
       "   Message('note_on', channel=0, note=55, velocity=0, time=120),\n",
       "   Message('note_on', channel=0, note=54, velocity=100, time=0),\n",
       "   Message('note_on', channel=0, note=54, velocity=0, time=120),\n",
       "   Message('note_on', channel=0, note=55, velocity=100, time=0),\n",
       "   Message('note_on', channel=0, note=55, velocity=0, time=120),\n",
       "   Message('note_on', channel=0, note=47, velocity=100, time=0),\n",
       "   Message('note_on', channel=0, note=47, velocity=0, time=120),\n",
       "   Message('note_on', channel=0, note=40, velocity=100, time=0),\n",
       "   Message('note_on', channel=0, note=40, velocity=0, time=120),\n",
       "   Message('note_on', channel=0, note=47, velocity=100, time=0),\n",
       "   Message('note_on', channel=0, note=47, velocity=0, time=120),\n",
       "   Message('note_on', channel=0, note=55, velocity=100, time=0),\n",
       "   Message('note_on', channel=0, note=55, velocity=0, time=120),\n",
       "   Message('note_on', channel=0, note=47, velocity=100, time=0),\n",
       "   Message('note_on', channel=0, note=47, velocity=0, time=120),\n",
       "   Message('note_on', channel=0, note=40, velocity=100, time=0),\n",
       "   Message('note_on', channel=0, note=40, velocity=0, time=120),\n",
       "   Message('note_on', channel=0, note=47, velocity=100, time=0),\n",
       "   Message('note_on', channel=0, note=47, velocity=0, time=120),\n",
       "   Message('note_on', channel=0, note=55, velocity=100, time=0),\n",
       "   Message('note_on', channel=0, note=55, velocity=0, time=120),\n",
       "   Message('note_on', channel=0, note=53, velocity=100, time=0),\n",
       "   Message('note_on', channel=0, note=53, velocity=0, time=120),\n",
       "   Message('note_on', channel=0, note=52, velocity=100, time=0),\n",
       "   Message('note_on', channel=0, note=52, velocity=0, time=120),\n",
       "   Message('note_on', channel=0, note=50, velocity=100, time=0),\n",
       "   Message('note_on', channel=0, note=50, velocity=0, time=120),\n",
       "   Message('note_on', channel=0, note=48, velocity=100, time=0),\n",
       "   Message('note_on', channel=0, note=48, velocity=0, time=120),\n",
       "   Message('note_on', channel=0, note=55, velocity=100, time=0),\n",
       "   Message('note_on', channel=0, note=55, velocity=0, time=120),\n",
       "   Message('note_on', channel=0, note=64, velocity=100, time=0),\n",
       "   Message('note_on', channel=0, note=64, velocity=0, time=120),\n",
       "   Message('note_on', channel=0, note=55, velocity=100, time=0),\n",
       "   Message('note_on', channel=0, note=55, velocity=0, time=120),\n",
       "   Message('note_on', channel=0, note=48, velocity=100, time=0),\n",
       "   Message('note_on', channel=0, note=48, velocity=0, time=120),\n",
       "   Message('note_on', channel=0, note=55, velocity=100, time=0),\n",
       "   Message('note_on', channel=0, note=55, velocity=0, time=120),\n",
       "   Message('note_on', channel=0, note=64, velocity=100, time=0),\n",
       "   Message('note_on', channel=0, note=64, velocity=0, time=120),\n",
       "   Message('note_on', channel=0, note=55, velocity=100, time=0),\n",
       "   Message('note_on', channel=0, note=55, velocity=0, time=120),\n",
       "   Message('note_on', channel=0, note=48, velocity=100, time=0),\n",
       "   Message('note_on', channel=0, note=48, velocity=0, time=120),\n",
       "   Message('note_on', channel=0, note=58, velocity=100, time=0),\n",
       "   Message('note_on', channel=0, note=58, velocity=0, time=120),\n",
       "   Message('note_on', channel=0, note=57, velocity=100, time=0),\n",
       "   Message('note_on', channel=0, note=57, velocity=0, time=120),\n",
       "   Message('note_on', channel=0, note=55, velocity=100, time=0),\n",
       "   Message('note_on', channel=0, note=55, velocity=0, time=120),\n",
       "   Message('note_on', channel=0, note=57, velocity=100, time=0),\n",
       "   Message('note_on', channel=0, note=57, velocity=0, time=120),\n",
       "   Message('note_on', channel=0, note=48, velocity=100, time=0),\n",
       "   Message('note_on', channel=0, note=48, velocity=0, time=120),\n",
       "   Message('note_on', channel=0, note=41, velocity=100, time=0),\n",
       "   Message('note_on', channel=0, note=41, velocity=0, time=120),\n",
       "   Message('note_on', channel=0, note=48, velocity=100, time=0),\n",
       "   Message('note_on', channel=0, note=48, velocity=0, time=120),\n",
       "   Message('note_on', channel=0, note=57, velocity=100, time=0),\n",
       "   Message('note_on', channel=0, note=57, velocity=0, time=120),\n",
       "   Message('note_on', channel=0, note=48, velocity=100, time=0),\n",
       "   Message('note_on', channel=0, note=48, velocity=0, time=120),\n",
       "   Message('note_on', channel=0, note=41, velocity=100, time=0),\n",
       "   Message('note_on', channel=0, note=41, velocity=0, time=120),\n",
       "   Message('note_on', channel=0, note=48, velocity=100, time=0),\n",
       "   Message('note_on', channel=0, note=48, velocity=0, time=120),\n",
       "   Message('note_on', channel=0, note=57, velocity=100, time=0),\n",
       "   Message('note_on', channel=0, note=57, velocity=0, time=120),\n",
       "   Message('note_on', channel=0, note=55, velocity=100, time=0),\n",
       "   Message('note_on', channel=0, note=55, velocity=0, time=120),\n",
       "   Message('note_on', channel=0, note=53, velocity=100, time=0),\n",
       "   Message('note_on', channel=0, note=53, velocity=0, time=120),\n",
       "   Message('note_on', channel=0, note=52, velocity=100, time=0),\n",
       "   Message('note_on', channel=0, note=52, velocity=0, time=120),\n",
       "   Message('note_on', channel=0, note=50, velocity=100, time=0),\n",
       "   Message('note_on', channel=0, note=50, velocity=0, time=120),\n",
       "   Message('note_on', channel=0, note=57, velocity=100, time=0),\n",
       "   Message('note_on', channel=0, note=57, velocity=0, time=120),\n",
       "   Message('note_on', channel=0, note=65, velocity=100, time=0),\n",
       "   Message('note_on', channel=0, note=65, velocity=0, time=120),\n",
       "   Message('note_on', channel=0, note=57, velocity=100, time=0),\n",
       "   Message('note_on', channel=0, note=57, velocity=0, time=120),\n",
       "   Message('note_on', channel=0, note=50, velocity=100, time=0),\n",
       "   Message('note_on', channel=0, note=50, velocity=0, time=120),\n",
       "   Message('note_on', channel=0, note=57, velocity=100, time=0),\n",
       "   Message('note_on', channel=0, note=57, velocity=0, time=120),\n",
       "   Message('note_on', channel=0, note=65, velocity=100, time=0),\n",
       "   Message('note_on', channel=0, note=65, velocity=0, time=120),\n",
       "   Message('note_on', channel=0, note=57, velocity=100, time=0),\n",
       "   Message('note_on', channel=0, note=57, velocity=0, time=120),\n",
       "   Message('note_on', channel=0, note=50, velocity=100, time=0),\n",
       "   Message('note_on', channel=0, note=50, velocity=0, time=120),\n",
       "   Message('note_on', channel=0, note=57, velocity=100, time=0),\n",
       "   Message('note_on', channel=0, note=57, velocity=0, time=120),\n",
       "   Message('note_on', channel=0, note=59, velocity=100, time=0),\n",
       "   Message('note_on', channel=0, note=59, velocity=0, time=120),\n",
       "   Message('note_on', channel=0, note=60, velocity=100, time=0),\n",
       "   Message('note_on', channel=0, note=60, velocity=0, time=120),\n",
       "   Message('note_on', channel=0, note=43, velocity=100, time=0),\n",
       "   Message('note_on', channel=0, note=43, velocity=0, time=120),\n",
       "   Message('note_on', channel=0, note=59, velocity=100, time=0),\n",
       "   Message('note_on', channel=0, note=59, velocity=0, time=120),\n",
       "   Message('note_on', channel=0, note=65, velocity=100, time=0),\n",
       "   Message('note_on', channel=0, note=65, velocity=0, time=120),\n",
       "   Message('note_on', channel=0, note=59, velocity=100, time=0),\n",
       "   Message('note_on', channel=0, note=59, velocity=0, time=120),\n",
       "   Message('note_on', channel=0, note=43, velocity=100, time=0),\n",
       "   Message('note_on', channel=0, note=43, velocity=0, time=120),\n",
       "   Message('note_on', channel=0, note=59, velocity=100, time=0),\n",
       "   Message('note_on', channel=0, note=59, velocity=0, time=120),\n",
       "   Message('note_on', channel=0, note=65, velocity=100, time=0),\n",
       "   Message('note_on', channel=0, note=65, velocity=0, time=120),\n",
       "   Message('note_on', channel=0, note=59, velocity=100, time=0),\n",
       "   Message('note_on', channel=0, note=59, velocity=0, time=120),\n",
       "   Message('note_on', channel=0, note=43, velocity=100, time=0),\n",
       "   Message('note_on', channel=0, note=43, velocity=0, time=120),\n",
       "   Message('note_on', channel=0, note=59, velocity=100, time=0),\n",
       "   Message('note_on', channel=0, note=59, velocity=0, time=120),\n",
       "   Message('note_on', channel=0, note=65, velocity=100, time=0),\n",
       "   Message('note_on', channel=0, note=65, velocity=0, time=120),\n",
       "   Message('note_on', channel=0, note=59, velocity=100, time=0),\n",
       "   Message('note_on', channel=0, note=59, velocity=0, time=120),\n",
       "   Message('note_on', channel=0, note=43, velocity=100, time=0),\n",
       "   Message('note_on', channel=0, note=43, velocity=0, time=120),\n",
       "   Message('note_on', channel=0, note=60, velocity=100, time=0),\n",
       "   Message('note_on', channel=0, note=60, velocity=0, time=120),\n",
       "   Message('note_on', channel=0, note=64, velocity=100, time=0),\n",
       "   Message('note_on', channel=0, note=64, velocity=0, time=120),\n",
       "   Message('note_on', channel=0, note=60, velocity=100, time=0),\n",
       "   Message('note_on', channel=0, note=60, velocity=0, time=120),\n",
       "   Message('note_on', channel=0, note=43, velocity=100, time=0),\n",
       "   Message('note_on', channel=0, note=43, velocity=0, time=120),\n",
       "   Message('note_on', channel=0, note=60, velocity=100, time=0),\n",
       "   Message('note_on', channel=0, note=60, velocity=0, time=120),\n",
       "   Message('note_on', channel=0, note=64, velocity=100, time=0),\n",
       "   Message('note_on', channel=0, note=64, velocity=0, time=120),\n",
       "   Message('note_on', channel=0, note=60, velocity=100, time=0),\n",
       "   Message('note_on', channel=0, note=60, velocity=0, time=120),\n",
       "   Message('note_on', channel=0, note=43, velocity=100, time=0),\n",
       "   Message('note_on', channel=0, note=43, velocity=0, time=120),\n",
       "   Message('note_on', channel=0, note=60, velocity=100, time=0),\n",
       "   Message('note_on', channel=0, note=60, velocity=0, time=120),\n",
       "   Message('note_on', channel=0, note=64, velocity=100, time=0),\n",
       "   Message('note_on', channel=0, note=64, velocity=0, time=120),\n",
       "   Message('note_on', channel=0, note=60, velocity=100, time=0),\n",
       "   Message('note_on', channel=0, note=60, velocity=0, time=120),\n",
       "   Message('note_on', channel=0, note=43, velocity=100, time=0),\n",
       "   Message('note_on', channel=0, note=43, velocity=0, time=120),\n",
       "   Message('note_on', channel=0, note=60, velocity=100, time=0),\n",
       "   Message('note_on', channel=0, note=60, velocity=0, time=120),\n",
       "   Message('note_on', channel=0, note=62, velocity=100, time=0),\n",
       "   Message('note_on', channel=0, note=62, velocity=0, time=120),\n",
       "   Message('note_on', channel=0, note=60, velocity=100, time=0),\n",
       "   Message('note_on', channel=0, note=60, velocity=0, time=120),\n",
       "   Message('note_on', channel=0, note=43, velocity=100, time=0),\n",
       "   Message('note_on', channel=0, note=43, velocity=0, time=120),\n",
       "   Message('note_on', channel=0, note=59, velocity=100, time=0),\n",
       "   Message('note_on', channel=0, note=59, velocity=0, time=120),\n",
       "   Message('note_on', channel=0, note=62, velocity=100, time=0),\n",
       "   Message('note_on', channel=0, note=62, velocity=0, time=120),\n",
       "   Message('note_on', channel=0, note=59, velocity=100, time=0),\n",
       "   Message('note_on', channel=0, note=59, velocity=0, time=120),\n",
       "   Message('note_on', channel=0, note=43, velocity=100, time=0),\n",
       "   Message('note_on', channel=0, note=43, velocity=0, time=120),\n",
       "   Message('note_on', channel=0, note=57, velocity=100, time=0),\n",
       "   Message('note_on', channel=0, note=57, velocity=0, time=120),\n",
       "   Message('note_on', channel=0, note=62, velocity=100, time=0),\n",
       "   Message('note_on', channel=0, note=62, velocity=0, time=120),\n",
       "   Message('note_on', channel=0, note=57, velocity=100, time=0),\n",
       "   Message('note_on', channel=0, note=57, velocity=0, time=120),\n",
       "   Message('note_on', channel=0, note=43, velocity=100, time=0),\n",
       "   Message('note_on', channel=0, note=43, velocity=0, time=120),\n",
       "   Message('note_on', channel=0, note=59, velocity=100, time=0),\n",
       "   Message('note_on', channel=0, note=59, velocity=0, time=120),\n",
       "   Message('note_on', channel=0, note=62, velocity=100, time=0),\n",
       "   Message('note_on', channel=0, note=62, velocity=0, time=120),\n",
       "   Message('note_on', channel=0, note=59, velocity=100, time=0),\n",
       "   Message('note_on', channel=0, note=59, velocity=0, time=120),\n",
       "   Message('note_on', channel=0, note=43, velocity=100, time=0),\n",
       "   Message('note_on', channel=0, note=43, velocity=0, time=120),\n",
       "   Message('note_on', channel=0, note=59, velocity=100, time=0),\n",
       "   Message('note_on', channel=0, note=59, velocity=0, time=120),\n",
       "   Message('note_on', channel=0, note=67, velocity=100, time=0),\n",
       "   Message('note_on', channel=0, note=67, velocity=0, time=120),\n",
       "   Message('note_on', channel=0, note=59, velocity=100, time=0),\n",
       "   Message('note_on', channel=0, note=59, velocity=0, time=120),\n",
       "   Message('note_on', channel=0, note=43, velocity=100, time=0),\n",
       "   Message('note_on', channel=0, note=43, velocity=0, time=120),\n",
       "   Message('note_on', channel=0, note=59, velocity=100, time=0),\n",
       "   Message('note_on', channel=0, note=59, velocity=0, time=120),\n",
       "   Message('note_on', channel=0, note=62, velocity=100, time=0),\n",
       "   Message('note_on', channel=0, note=62, velocity=0, time=120),\n",
       "   Message('note_on', channel=0, note=59, velocity=100, time=0),\n",
       "   Message('note_on', channel=0, note=59, velocity=0, time=120),\n",
       "   Message('note_on', channel=0, note=43, velocity=100, time=0),\n",
       "   Message('note_on', channel=0, note=43, velocity=0, time=120),\n",
       "   Message('note_on', channel=0, note=59, velocity=100, time=0),\n",
       "   Message('note_on', channel=0, note=59, velocity=0, time=120),\n",
       "   Message('note_on', channel=0, note=60, velocity=100, time=0),\n",
       "   Message('note_on', channel=0, note=60, velocity=0, time=120),\n",
       "   Message('note_on', channel=0, note=59, velocity=100, time=0),\n",
       "   Message('note_on', channel=0, note=59, velocity=0, time=120),\n",
       "   Message('note_on', channel=0, note=43, velocity=100, time=0),\n",
       "   Message('note_on', channel=0, note=43, velocity=0, time=120),\n",
       "   Message('note_on', channel=0, note=57, velocity=100, time=0),\n",
       "   Message('note_on', channel=0, note=57, velocity=0, time=120),\n",
       "   Message('note_on', channel=0, note=60, velocity=100, time=0),\n",
       "   Message('note_on', channel=0, note=60, velocity=0, time=120),\n",
       "   Message('note_on', channel=0, note=57, velocity=100, time=0),\n",
       "   Message('note_on', channel=0, note=57, velocity=0, time=120),\n",
       "   Message('note_on', channel=0, note=43, velocity=100, time=0),\n",
       "   Message('note_on', channel=0, note=43, velocity=0, time=120),\n",
       "   Message('note_on', channel=0, note=55, velocity=100, time=0),\n",
       "   Message('note_on', channel=0, note=55, velocity=0, time=120),\n",
       "   Message('note_on', channel=0, note=60, velocity=100, time=0),\n",
       "   Message('note_on', channel=0, note=60, velocity=0, time=120),\n",
       "   Message('note_on', channel=0, note=55, velocity=100, time=0),\n",
       "   Message('note_on', channel=0, note=55, velocity=0, time=120),\n",
       "   Message('note_on', channel=0, note=43, velocity=100, time=0),\n",
       "   Message('note_on', channel=0, note=43, velocity=0, time=120),\n",
       "   Message('note_on', channel=0, note=57, velocity=100, time=0),\n",
       "   Message('note_on', channel=0, note=57, velocity=0, time=120),\n",
       "   Message('note_on', channel=0, note=60, velocity=100, time=0),\n",
       "   Message('note_on', channel=0, note=60, velocity=0, time=120),\n",
       "   Message('note_on', channel=0, note=57, velocity=100, time=0),\n",
       "   Message('note_on', channel=0, note=57, velocity=0, time=120),\n",
       "   Message('note_on', channel=0, note=43, velocity=100, time=0),\n",
       "   Message('note_on', channel=0, note=43, velocity=0, time=120),\n",
       "   Message('note_on', channel=0, note=57, velocity=100, time=0),\n",
       "   Message('note_on', channel=0, note=57, velocity=0, time=120),\n",
       "   Message('note_on', channel=0, note=65, velocity=100, time=0),\n",
       "   Message('note_on', channel=0, note=65, velocity=0, time=120),\n",
       "   Message('note_on', channel=0, note=57, velocity=100, time=0),\n",
       "   Message('note_on', channel=0, note=57, velocity=0, time=120),\n",
       "   Message('note_on', channel=0, note=43, velocity=100, time=0),\n",
       "   Message('note_on', channel=0, note=43, velocity=0, time=120),\n",
       "   Message('note_on', channel=0, note=57, velocity=100, time=0),\n",
       "   Message('note_on', channel=0, note=57, velocity=0, time=120),\n",
       "   Message('note_on', channel=0, note=60, velocity=100, time=0),\n",
       "   Message('note_on', channel=0, note=60, velocity=0, time=120),\n",
       "   Message('note_on', channel=0, note=57, velocity=100, time=0),\n",
       "   Message('note_on', channel=0, note=57, velocity=0, time=120),\n",
       "   Message('note_on', channel=0, note=43, velocity=100, time=0),\n",
       "   Message('note_on', channel=0, note=43, velocity=0, time=120),\n",
       "   Message('note_on', channel=0, note=57, velocity=100, time=0),\n",
       "   Message('note_on', channel=0, note=57, velocity=0, time=120),\n",
       "   Message('note_on', channel=0, note=59, velocity=100, time=0),\n",
       "   Message('note_on', channel=0, note=59, velocity=0, time=120),\n",
       "   Message('note_on', channel=0, note=57, velocity=100, time=0),\n",
       "   Message('note_on', channel=0, note=57, velocity=0, time=120),\n",
       "   Message('note_on', channel=0, note=43, velocity=100, time=0),\n",
       "   Message('note_on', channel=0, note=43, velocity=0, time=120),\n",
       "   Message('note_on', channel=0, note=55, velocity=100, time=0),\n",
       "   Message('note_on', channel=0, note=55, velocity=0, time=120),\n",
       "   Message('note_on', channel=0, note=59, velocity=100, time=0),\n",
       "   Message('note_on', channel=0, note=59, velocity=0, time=120),\n",
       "   Message('note_on', channel=0, note=55, velocity=100, time=0),\n",
       "   Message('note_on', channel=0, note=55, velocity=0, time=120),\n",
       "   Message('note_on', channel=0, note=43, velocity=100, time=0),\n",
       "   Message('note_on', channel=0, note=43, velocity=0, time=120),\n",
       "   Message('note_on', channel=0, note=53, velocity=100, time=0),\n",
       "   Message('note_on', channel=0, note=53, velocity=0, time=120),\n",
       "   Message('note_on', channel=0, note=59, velocity=100, time=0),\n",
       "   Message('note_on', channel=0, note=59, velocity=0, time=120),\n",
       "   Message('note_on', channel=0, note=53, velocity=100, time=0),\n",
       "   Message('note_on', channel=0, note=53, velocity=0, time=120),\n",
       "   Message('note_on', channel=0, note=43, velocity=100, time=0),\n",
       "   Message('note_on', channel=0, note=43, velocity=0, time=120),\n",
       "   Message('note_on', channel=0, note=55, velocity=100, time=0),\n",
       "   Message('note_on', channel=0, note=55, velocity=0, time=120),\n",
       "   Message('note_on', channel=0, note=59, velocity=100, time=0),\n",
       "   Message('note_on', channel=0, note=59, velocity=0, time=120),\n",
       "   Message('note_on', channel=0, note=55, velocity=100, time=0),\n",
       "   Message('note_on', channel=0, note=55, velocity=0, time=120),\n",
       "   Message('note_on', channel=0, note=43, velocity=100, time=0),\n",
       "   Message('note_on', channel=0, note=43, velocity=0, time=120),\n",
       "   Message('note_on', channel=0, note=55, velocity=100, time=0),\n",
       "   Message('note_on', channel=0, note=55, velocity=0, time=120),\n",
       "   Message('note_on', channel=0, note=64, velocity=100, time=0),\n",
       "   Message('note_on', channel=0, note=64, velocity=0, time=120),\n",
       "   Message('note_on', channel=0, note=55, velocity=100, time=0),\n",
       "   Message('note_on', channel=0, note=55, velocity=0, time=120),\n",
       "   Message('note_on', channel=0, note=43, velocity=100, time=0),\n",
       "   Message('note_on', channel=0, note=43, velocity=0, time=120),\n",
       "   Message('note_on', channel=0, note=55, velocity=100, time=0),\n",
       "   Message('note_on', channel=0, note=55, velocity=0, time=120),\n",
       "   Message('note_on', channel=0, note=59, velocity=100, time=0),\n",
       "   Message('note_on', channel=0, note=59, velocity=0, time=120),\n",
       "   Message('note_on', channel=0, note=55, velocity=100, time=0),\n",
       "   Message('note_on', channel=0, note=55, velocity=0, time=120),\n",
       "   Message('note_on', channel=0, note=43, velocity=100, time=0),\n",
       "   Message('note_on', channel=0, note=43, velocity=0, time=120),\n",
       "   Message('note_on', channel=0, note=55, velocity=100, time=0),\n",
       "   Message('note_on', channel=0, note=55, velocity=0, time=120),\n",
       "   Message('note_on', channel=0, note=57, velocity=100, time=0),\n",
       "   Message('note_on', channel=0, note=57, velocity=0, time=120),\n",
       "   Message('note_on', channel=0, note=55, velocity=100, time=0),\n",
       "   Message('note_on', channel=0, note=55, velocity=0, time=120),\n",
       "   Message('note_on', channel=0, note=43, velocity=100, time=0),\n",
       "   Message('note_on', channel=0, note=43, velocity=0, time=120),\n",
       "   Message('note_on', channel=0, note=53, velocity=100, time=0),\n",
       "   Message('note_on', channel=0, note=53, velocity=0, time=120),\n",
       "   Message('note_on', channel=0, note=57, velocity=100, time=0),\n",
       "   Message('note_on', channel=0, note=57, velocity=0, time=120),\n",
       "   Message('note_on', channel=0, note=53, velocity=100, time=0),\n",
       "   Message('note_on', channel=0, note=53, velocity=0, time=120),\n",
       "   Message('note_on', channel=0, note=43, velocity=100, time=0),\n",
       "   Message('note_on', channel=0, note=43, velocity=0, time=120),\n",
       "   Message('note_on', channel=0, note=52, velocity=100, time=0),\n",
       "   Message('note_on', channel=0, note=52, velocity=0, time=120),\n",
       "   Message('note_on', channel=0, note=57, velocity=100, time=0),\n",
       "   Message('note_on', channel=0, note=57, velocity=0, time=120),\n",
       "   Message('note_on', channel=0, note=52, velocity=100, time=0),\n",
       "   Message('note_on', channel=0, note=52, velocity=0, time=120),\n",
       "   Message('note_on', channel=0, note=43, velocity=100, time=0),\n",
       "   Message('note_on', channel=0, note=43, velocity=0, time=120),\n",
       "   Message('note_on', channel=0, note=53, velocity=100, time=0),\n",
       "   Message('note_on', channel=0, note=53, velocity=0, time=120),\n",
       "   Message('note_on', channel=0, note=57, velocity=100, time=0),\n",
       "   Message('note_on', channel=0, note=57, velocity=0, time=120),\n",
       "   Message('note_on', channel=0, note=53, velocity=100, time=0),\n",
       "   Message('note_on', channel=0, note=53, velocity=0, time=120),\n",
       "   Message('note_on', channel=0, note=43, velocity=100, time=0),\n",
       "   Message('note_on', channel=0, note=43, velocity=0, time=120),\n",
       "   Message('note_on', channel=0, note=53, velocity=100, time=0),\n",
       "   Message('note_on', channel=0, note=53, velocity=0, time=120),\n",
       "   Message('note_on', channel=0, note=62, velocity=100, time=0),\n",
       "   Message('note_on', channel=0, note=62, velocity=0, time=120),\n",
       "   Message('note_on', channel=0, note=53, velocity=100, time=0),\n",
       "   Message('note_on', channel=0, note=53, velocity=0, time=120),\n",
       "   Message('note_on', channel=0, note=43, velocity=100, time=0),\n",
       "   Message('note_on', channel=0, note=43, velocity=0, time=120),\n",
       "   Message('note_on', channel=0, note=53, velocity=100, time=0),\n",
       "   Message('note_on', channel=0, note=53, velocity=0, time=120),\n",
       "   Message('note_on', channel=0, note=57, velocity=100, time=0),\n",
       "   Message('note_on', channel=0, note=57, velocity=0, time=120),\n",
       "   Message('note_on', channel=0, note=53, velocity=100, time=0),\n",
       "   Message('note_on', channel=0, note=53, velocity=0, time=120),\n",
       "   Message('note_on', channel=0, note=43, velocity=100, time=0),\n",
       "   Message('note_on', channel=0, note=43, velocity=0, time=120),\n",
       "   Message('note_on', channel=0, note=53, velocity=100, time=0),\n",
       "   Message('note_on', channel=0, note=53, velocity=0, time=120),\n",
       "   Message('note_on', channel=0, note=59, velocity=100, time=0),\n",
       "   Message('note_on', channel=0, note=59, velocity=0, time=120),\n",
       "   Message('note_on', channel=0, note=53, velocity=100, time=0),\n",
       "   Message('note_on', channel=0, note=53, velocity=0, time=120),\n",
       "   Message('note_on', channel=0, note=43, velocity=100, time=0),\n",
       "   Message('note_on', channel=0, note=43, velocity=0, time=120),\n",
       "   Message('note_on', channel=0, note=53, velocity=100, time=0),\n",
       "   Message('note_on', channel=0, note=53, velocity=0, time=120),\n",
       "   Message('note_on', channel=0, note=62, velocity=100, time=0),\n",
       "   Message('note_on', channel=0, note=62, velocity=0, time=120),\n",
       "   Message('note_on', channel=0, note=53, velocity=100, time=0),\n",
       "   Message('note_on', channel=0, note=53, velocity=0, time=120),\n",
       "   Message('note_on', channel=0, note=43, velocity=100, time=0),\n",
       "   Message('note_on', channel=0, note=43, velocity=0, time=120),\n",
       "   Message('note_on', channel=0, note=53, velocity=100, time=0),\n",
       "   Message('note_on', channel=0, note=53, velocity=0, time=120),\n",
       "   Message('note_on', channel=0, note=59, velocity=100, time=0),\n",
       "   Message('note_on', channel=0, note=59, velocity=0, time=120),\n",
       "   Message('note_on', channel=0, note=53, velocity=100, time=0),\n",
       "   Message('note_on', channel=0, note=53, velocity=0, time=120),\n",
       "   Message('note_on', channel=0, note=43, velocity=100, time=0),\n",
       "   Message('note_on', channel=0, note=43, velocity=0, time=120),\n",
       "   Message('note_on', channel=0, note=52, velocity=100, time=0),\n",
       "   Message('note_on', channel=0, note=52, velocity=0, time=120),\n",
       "   Message('note_on', channel=0, note=60, velocity=100, time=0),\n",
       "   Message('note_on', channel=0, note=60, velocity=0, time=120),\n",
       "   Message('note_on', channel=0, note=52, velocity=100, time=0),\n",
       "   Message('note_on', channel=0, note=52, velocity=0, time=120),\n",
       "   Message('note_on', channel=0, note=43, velocity=100, time=0),\n",
       "   Message('note_on', channel=0, note=43, velocity=0, time=120),\n",
       "   Message('note_on', channel=0, note=52, velocity=100, time=0),\n",
       "   Message('note_on', channel=0, note=52, velocity=0, time=120),\n",
       "   Message('note_on', channel=0, note=64, velocity=100, time=0),\n",
       "   Message('note_on', channel=0, note=64, velocity=0, time=120),\n",
       "   Message('note_on', channel=0, note=52, velocity=100, time=0),\n",
       "   Message('note_on', channel=0, note=52, velocity=0, time=120),\n",
       "   Message('note_on', channel=0, note=43, velocity=100, time=0),\n",
       "   Message('note_on', channel=0, note=43, velocity=0, time=120),\n",
       "   Message('note_on', channel=0, note=52, velocity=100, time=0),\n",
       "   Message('note_on', channel=0, note=52, velocity=0, time=120),\n",
       "   Message('note_on', channel=0, note=60, velocity=100, time=0),\n",
       "   Message('note_on', channel=0, note=60, velocity=0, time=120),\n",
       "   Message('note_on', channel=0, note=52, velocity=100, time=0),\n",
       "   Message('note_on', channel=0, note=52, velocity=0, time=120),\n",
       "   Message('note_on', channel=0, note=43, velocity=100, time=0),\n",
       "   Message('note_on', channel=0, note=43, velocity=0, time=120),\n",
       "   Message('note_on', channel=0, note=53, velocity=100, time=0),\n",
       "   Message('note_on', channel=0, note=53, velocity=0, time=120),\n",
       "   Message('note_on', channel=0, note=59, velocity=100, time=0),\n",
       "   Message('note_on', channel=0, note=59, velocity=0, time=120),\n",
       "   Message('note_on', channel=0, note=53, velocity=100, time=0),\n",
       "   Message('note_on', channel=0, note=53, velocity=0, time=120),\n",
       "   Message('note_on', channel=0, note=43, velocity=100, time=0),\n",
       "   Message('note_on', channel=0, note=43, velocity=0, time=120),\n",
       "   Message('note_on', channel=0, note=53, velocity=100, time=0),\n",
       "   Message('note_on', channel=0, note=53, velocity=0, time=120),\n",
       "   Message('note_on', channel=0, note=62, velocity=100, time=0),\n",
       "   Message('note_on', channel=0, note=62, velocity=0, time=120),\n",
       "   Message('note_on', channel=0, note=53, velocity=100, time=0),\n",
       "   Message('note_on', channel=0, note=53, velocity=0, time=120),\n",
       "   Message('note_on', channel=0, note=43, velocity=100, time=0),\n",
       "   Message('note_on', channel=0, note=43, velocity=0, time=120),\n",
       "   Message('note_on', channel=0, note=53, velocity=100, time=0),\n",
       "   Message('note_on', channel=0, note=53, velocity=0, time=120),\n",
       "   Message('note_on', channel=0, note=59, velocity=100, time=0),\n",
       "   Message('note_on', channel=0, note=59, velocity=0, time=120),\n",
       "   Message('note_on', channel=0, note=53, velocity=100, time=0),\n",
       "   Message('note_on', channel=0, note=53, velocity=0, time=120),\n",
       "   Message('note_on', channel=0, note=43, velocity=100, time=0),\n",
       "   Message('note_on', channel=0, note=43, velocity=0, time=120),\n",
       "   Message('note_on', channel=0, note=51, velocity=100, time=0),\n",
       "   Message('note_on', channel=0, note=51, velocity=0, time=120),\n",
       "   Message('note_on', channel=0, note=60, velocity=100, time=0),\n",
       "   Message('note_on', channel=0, note=60, velocity=0, time=120),\n",
       "   Message('note_on', channel=0, note=51, velocity=100, time=0),\n",
       "   Message('note_on', channel=0, note=51, velocity=0, time=120),\n",
       "   Message('note_on', channel=0, note=43, velocity=100, time=0),\n",
       "   Message('note_on', channel=0, note=43, velocity=0, time=120),\n",
       "   Message('note_on', channel=0, note=51, velocity=100, time=0),\n",
       "   Message('note_on', channel=0, note=51, velocity=0, time=120),\n",
       "   Message('note_on', channel=0, note=63, velocity=100, time=0),\n",
       "   Message('note_on', channel=0, note=63, velocity=0, time=120),\n",
       "   Message('note_on', channel=0, note=51, velocity=100, time=0),\n",
       "   Message('note_on', channel=0, note=51, velocity=0, time=120),\n",
       "   Message('note_on', channel=0, note=43, velocity=100, time=0),\n",
       "   Message('note_on', channel=0, note=43, velocity=0, time=120),\n",
       "   Message('note_on', channel=0, note=51, velocity=100, time=0),\n",
       "   Message('note_on', channel=0, note=51, velocity=0, time=120),\n",
       "   Message('note_on', channel=0, note=60, velocity=100, time=0),\n",
       "   Message('note_on', channel=0, note=60, velocity=0, time=120),\n",
       "   Message('note_on', channel=0, note=51, velocity=100, time=0),\n",
       "   Message('note_on', channel=0, note=51, velocity=0, time=120),\n",
       "   Message('note_on', channel=0, note=43, velocity=100, time=0),\n",
       "   Message('note_on', channel=0, note=43, velocity=0, time=120),\n",
       "   Message('note_on', channel=0, note=54, velocity=100, time=0),\n",
       "   Message('note_on', channel=0, note=54, velocity=0, time=120),\n",
       "   Message('note_on', channel=0, note=60, velocity=100, time=0),\n",
       "   Message('note_on', channel=0, note=60, velocity=0, time=120),\n",
       "   Message('note_on', channel=0, note=54, velocity=100, time=0),\n",
       "   Message('note_on', channel=0, note=54, velocity=0, time=120),\n",
       "   Message('note_on', channel=0, note=43, velocity=100, time=0),\n",
       "   Message('note_on', channel=0, note=43, velocity=0, time=120),\n",
       "   Message('note_on', channel=0, note=50, velocity=100, time=0),\n",
       "   Message('note_on', channel=0, note=50, velocity=0, time=120),\n",
       "   Message('note_on', channel=0, note=60, velocity=100, time=0),\n",
       "   Message('note_on', channel=0, note=60, velocity=0, time=120),\n",
       "   Message('note_on', channel=0, note=50, velocity=100, time=0),\n",
       "   Message('note_on', channel=0, note=50, velocity=0, time=120),\n",
       "   Message('note_on', channel=0, note=43, velocity=100, time=0),\n",
       "   Message('note_on', channel=0, note=43, velocity=0, time=120),\n",
       "   Message('note_on', channel=0, note=52, velocity=100, time=0),\n",
       "   Message('note_on', channel=0, note=52, velocity=0, time=120),\n",
       "   Message('note_on', channel=0, note=60, velocity=100, time=0),\n",
       "   Message('note_on', channel=0, note=60, velocity=0, time=120),\n",
       "   Message('note_on', channel=0, note=52, velocity=100, time=0),\n",
       "   Message('note_on', channel=0, note=52, velocity=0, time=120),\n",
       "   Message('note_on', channel=0, note=43, velocity=100, time=0),\n",
       "   Message('note_on', channel=0, note=43, velocity=0, time=120),\n",
       "   Message('note_on', channel=0, note=54, velocity=100, time=0),\n",
       "   Message('note_on', channel=0, note=54, velocity=0, time=120),\n",
       "   Message('note_on', channel=0, note=60, velocity=100, time=0),\n",
       "   Message('note_on', channel=0, note=60, velocity=0, time=120),\n",
       "   Message('note_on', channel=0, note=54, velocity=100, time=0),\n",
       "   Message('note_on', channel=0, note=54, velocity=0, time=120),\n",
       "   Message('note_on', channel=0, note=43, velocity=100, time=0),\n",
       "   Message('note_on', channel=0, note=43, velocity=0, time=120),\n",
       "   Message('note_on', channel=0, note=52, velocity=100, time=0),\n",
       "   Message('note_on', channel=0, note=52, velocity=0, time=120),\n",
       "   Message('note_on', channel=0, note=60, velocity=100, time=0),\n",
       "   Message('note_on', channel=0, note=60, velocity=0, time=120),\n",
       "   Message('note_on', channel=0, note=52, velocity=100, time=0),\n",
       "   Message('note_on', channel=0, note=52, velocity=0, time=120),\n",
       "   Message('note_on', channel=0, note=43, velocity=100, time=0),\n",
       "   Message('note_on', channel=0, note=43, velocity=0, time=120),\n",
       "   Message('note_on', channel=0, note=54, velocity=100, time=0),\n",
       "   Message('note_on', channel=0, note=54, velocity=0, time=120),\n",
       "   Message('note_on', channel=0, note=60, velocity=100, time=0),\n",
       "   Message('note_on', channel=0, note=60, velocity=0, time=120),\n",
       "   Message('note_on', channel=0, note=54, velocity=100, time=0),\n",
       "   Message('note_on', channel=0, note=54, velocity=0, time=120),\n",
       "   Message('note_on', channel=0, note=43, velocity=100, time=0),\n",
       "   Message('note_on', channel=0, note=43, velocity=0, time=120),\n",
       "   Message('note_on', channel=0, note=55, velocity=100, time=0),\n",
       "   Message('note_on', channel=0, note=55, velocity=0, time=120),\n",
       "   Message('note_on', channel=0, note=59, velocity=100, time=0),\n",
       "   Message('note_on', channel=0, note=59, velocity=0, time=120),\n",
       "   Message('note_on', channel=0, note=57, velocity=100, time=0),\n",
       "   Message('note_on', channel=0, note=57, velocity=0, time=120),\n",
       "   Message('note_on', channel=0, note=55, velocity=100, time=0),\n",
       "   Message('note_on', channel=0, note=55, velocity=0, time=120),\n",
       "   Message('note_on', channel=0, note=53, velocity=100, time=0),\n",
       "   Message('note_on', channel=0, note=53, velocity=0, time=120),\n",
       "   Message('note_on', channel=0, note=52, velocity=100, time=0),\n",
       "   Message('note_on', channel=0, note=52, velocity=0, time=120),\n",
       "   Message('note_on', channel=0, note=50, velocity=100, time=0),\n",
       "   Message('note_on', channel=0, note=50, velocity=0, time=120),\n",
       "   Message('note_on', channel=0, note=55, velocity=100, time=0),\n",
       "   Message('note_on', channel=0, note=55, velocity=0, time=120),\n",
       "   Message('note_on', channel=0, note=52, velocity=100, time=0),\n",
       "   Message('note_on', channel=0, note=52, velocity=0, time=120),\n",
       "   Message('note_on', channel=0, note=55, velocity=100, time=0),\n",
       "   Message('note_on', channel=0, note=55, velocity=0, time=120),\n",
       "   Message('note_on', channel=0, note=50, velocity=100, time=0),\n",
       "   Message('note_on', channel=0, note=50, velocity=0, time=120),\n",
       "   Message('note_on', channel=0, note=55, velocity=100, time=0),\n",
       "   Message('note_on', channel=0, note=55, velocity=0, time=120),\n",
       "   Message('note_on', channel=0, note=49, velocity=100, time=0),\n",
       "   Message('note_on', channel=0, note=49, velocity=0, time=120),\n",
       "   Message('note_on', channel=0, note=55, velocity=100, time=0),\n",
       "   Message('note_on', channel=0, note=55, velocity=0, time=120),\n",
       "   Message('note_on', channel=0, note=57, velocity=100, time=0),\n",
       "   Message('note_on', channel=0, note=57, velocity=0, time=120),\n",
       "   Message('note_on', channel=0, note=55, velocity=100, time=0),\n",
       "   Message('note_on', channel=0, note=55, velocity=0, time=120),\n",
       "   Message('note_on', channel=0, note=49, velocity=100, time=0),\n",
       "   Message('note_on', channel=0, note=49, velocity=0, time=120),\n",
       "   Message('note_on', channel=0, note=55, velocity=100, time=0),\n",
       "   Message('note_on', channel=0, note=55, velocity=0, time=120),\n",
       "   Message('note_on', channel=0, note=57, velocity=100, time=0),\n",
       "   Message('note_on', channel=0, note=57, velocity=0, time=120),\n",
       "   Message('note_on', channel=0, note=55, velocity=100, time=0),\n",
       "   Message('note_on', channel=0, note=55, velocity=0, time=120),\n",
       "   Message('note_on', channel=0, note=49, velocity=100, time=0),\n",
       "   Message('note_on', channel=0, note=49, velocity=0, time=120),\n",
       "   Message('note_on', channel=0, note=55, velocity=100, time=0),\n",
       "   Message('note_on', channel=0, note=55, velocity=0, time=120),\n",
       "   Message('note_on', channel=0, note=57, velocity=100, time=0),\n",
       "   Message('note_on', channel=0, note=57, velocity=0, time=120),\n",
       "   Message('note_on', channel=0, note=53, velocity=100, time=0),\n",
       "   Message('note_on', channel=0, note=53, velocity=0, time=120),\n",
       "   Message('note_on', channel=0, note=50, velocity=100, time=0),\n",
       "   Message('note_on', channel=0, note=50, velocity=0, time=120),\n",
       "   Message('note_on', channel=0, note=57, velocity=100, time=0),\n",
       "   Message('note_on', channel=0, note=57, velocity=0, time=120),\n",
       "   Message('note_on', channel=0, note=55, velocity=100, time=0),\n",
       "   Message('note_on', channel=0, note=55, velocity=0, time=120),\n",
       "   Message('note_on', channel=0, note=53, velocity=100, time=0),\n",
       "   Message('note_on', channel=0, note=53, velocity=0, time=120),\n",
       "   Message('note_on', channel=0, note=52, velocity=100, time=0),\n",
       "   Message('note_on', channel=0, note=52, velocity=0, time=120),\n",
       "   Message('note_on', channel=0, note=50, velocity=100, time=0),\n",
       "   Message('note_on', channel=0, note=50, velocity=0, time=120),\n",
       "   Message('note_on', channel=0, note=48, velocity=100, time=0),\n",
       "   Message('note_on', channel=0, note=48, velocity=0, time=120),\n",
       "   Message('note_on', channel=0, note=53, velocity=100, time=0),\n",
       "   Message('note_on', channel=0, note=53, velocity=0, time=120),\n",
       "   Message('note_on', channel=0, note=50, velocity=100, time=0),\n",
       "   Message('note_on', channel=0, note=50, velocity=0, time=120),\n",
       "   Message('note_on', channel=0, note=53, velocity=100, time=0),\n",
       "   Message('note_on', channel=0, note=53, velocity=0, time=120),\n",
       "   Message('note_on', channel=0, note=48, velocity=100, time=0),\n",
       "   Message('note_on', channel=0, note=48, velocity=0, time=120),\n",
       "   Message('note_on', channel=0, note=53, velocity=100, time=0),\n",
       "   Message('note_on', channel=0, note=53, velocity=0, time=120),\n",
       "   Message('note_on', channel=0, note=47, velocity=100, time=0),\n",
       "   Message('note_on', channel=0, note=47, velocity=0, time=120),\n",
       "   Message('note_on', channel=0, note=53, velocity=100, time=0),\n",
       "   Message('note_on', channel=0, note=53, velocity=0, time=120),\n",
       "   Message('note_on', channel=0, note=55, velocity=100, time=0),\n",
       "   Message('note_on', channel=0, note=55, velocity=0, time=120),\n",
       "   Message('note_on', channel=0, note=53, velocity=100, time=0),\n",
       "   Message('note_on', channel=0, note=53, velocity=0, time=120),\n",
       "   Message('note_on', channel=0, note=47, velocity=100, time=0),\n",
       "   Message('note_on', channel=0, note=47, velocity=0, time=120),\n",
       "   Message('note_on', channel=0, note=53, velocity=100, time=0),\n",
       "   Message('note_on', channel=0, note=53, velocity=0, time=120),\n",
       "   Message('note_on', channel=0, note=55, velocity=100, time=0),\n",
       "   Message('note_on', channel=0, note=55, velocity=0, time=120),\n",
       "   Message('note_on', channel=0, note=53, velocity=100, time=0),\n",
       "   Message('note_on', channel=0, note=53, velocity=0, time=120),\n",
       "   Message('note_on', channel=0, note=47, velocity=100, time=0),\n",
       "   Message('note_on', channel=0, note=47, velocity=0, time=120),\n",
       "   Message('note_on', channel=0, note=53, velocity=100, time=0),\n",
       "   Message('note_on', channel=0, note=53, velocity=0, time=120),\n",
       "   Message('note_on', channel=0, note=55, velocity=100, time=0),\n",
       "   Message('note_on', channel=0, note=55, velocity=0, time=120),\n",
       "   Message('note_on', channel=0, note=52, velocity=100, time=0),\n",
       "   Message('note_on', channel=0, note=52, velocity=0, time=120),\n",
       "   Message('note_on', channel=0, note=48, velocity=100, time=0),\n",
       "   Message('note_on', channel=0, note=48, velocity=0, time=120),\n",
       "   Message('note_on', channel=0, note=55, velocity=100, time=0),\n",
       "   Message('note_on', channel=0, note=55, velocity=0, time=120),\n",
       "   Message('note_on', channel=0, note=53, velocity=100, time=0),\n",
       "   Message('note_on', channel=0, note=53, velocity=0, time=120),\n",
       "   Message('note_on', channel=0, note=52, velocity=100, time=0),\n",
       "   Message('note_on', channel=0, note=52, velocity=0, time=120),\n",
       "   Message('note_on', channel=0, note=50, velocity=100, time=0),\n",
       "   Message('note_on', channel=0, note=50, velocity=0, time=120),\n",
       "   Message('note_on', channel=0, note=48, velocity=100, time=0),\n",
       "   Message('note_on', channel=0, note=48, velocity=0, time=120),\n",
       "   Message('note_on', channel=0, note=47, velocity=100, time=0),\n",
       "   Message('note_on', channel=0, note=47, velocity=0, time=120),\n",
       "   Message('note_on', channel=0, note=48, velocity=100, time=0),\n",
       "   Message('note_on', channel=0, note=48, velocity=0, time=120),\n",
       "   Message('note_on', channel=0, note=45, velocity=100, time=0),\n",
       "   Message('note_on', channel=0, note=45, velocity=0, time=120),\n",
       "   Message('note_on', channel=0, note=48, velocity=100, time=0),\n",
       "   Message('note_on', channel=0, note=48, velocity=0, time=120),\n",
       "   Message('note_on', channel=0, note=43, velocity=100, time=0),\n",
       "   Message('note_on', channel=0, note=43, velocity=0, time=120),\n",
       "   Message('note_on', channel=0, note=48, velocity=100, time=0),\n",
       "   Message('note_on', channel=0, note=48, velocity=0, time=120),\n",
       "   Message('note_on', channel=0, note=42, velocity=100, time=0),\n",
       "   Message('note_on', channel=0, note=42, velocity=0, time=120),\n",
       "   Message('note_on', channel=0, note=48, velocity=100, time=0),\n",
       "   Message('note_on', channel=0, note=48, velocity=0, time=120),\n",
       "   Message('note_on', channel=0, note=50, velocity=100, time=0),\n",
       "   Message('note_on', channel=0, note=50, velocity=0, time=120),\n",
       "   Message('note_on', channel=0, note=48, velocity=100, time=0),\n",
       "   Message('note_on', channel=0, note=48, velocity=0, time=120),\n",
       "   Message('note_on', channel=0, note=42, velocity=100, time=0),\n",
       "   Message('note_on', channel=0, note=42, velocity=0, time=120),\n",
       "   Message('note_on', channel=0, note=48, velocity=100, time=0),\n",
       "   Message('note_on', channel=0, note=48, velocity=0, time=120),\n",
       "   Message('note_on', channel=0, note=50, velocity=100, time=0),\n",
       "   Message('note_on', channel=0, note=50, velocity=0, time=120),\n",
       "   Message('note_on', channel=0, note=48, velocity=100, time=0),\n",
       "   Message('note_on', channel=0, note=48, velocity=0, time=120),\n",
       "   Message('note_on', channel=0, note=42, velocity=100, time=0),\n",
       "   Message('note_on', channel=0, note=42, velocity=0, time=120),\n",
       "   Message('note_on', channel=0, note=48, velocity=100, time=0),\n",
       "   Message('note_on', channel=0, note=48, velocity=0, time=120),\n",
       "   Message('note_on', channel=0, note=50, velocity=100, time=0),\n",
       "   Message('note_on', channel=0, note=50, velocity=0, time=120),\n",
       "   Message('note_on', channel=0, note=47, velocity=100, time=0),\n",
       "   Message('note_on', channel=0, note=47, velocity=0, time=120),\n",
       "   Message('note_on', channel=0, note=43, velocity=100, time=0),\n",
       "   Message('note_on', channel=0, note=43, velocity=0, time=120),\n",
       "   Message('note_on', channel=0, note=47, velocity=100, time=0),\n",
       "   Message('note_on', channel=0, note=47, velocity=0, time=120),\n",
       "   Message('note_on', channel=0, note=50, velocity=100, time=0),\n",
       "   Message('note_on', channel=0, note=50, velocity=0, time=120),\n",
       "   Message('note_on', channel=0, note=47, velocity=100, time=0),\n",
       "   Message('note_on', channel=0, note=47, velocity=0, time=120),\n",
       "   Message('note_on', channel=0, note=43, velocity=100, time=0),\n",
       "   Message('note_on', channel=0, note=43, velocity=0, time=120),\n",
       "   Message('note_on', channel=0, note=47, velocity=100, time=0),\n",
       "   Message('note_on', channel=0, note=47, velocity=0, time=120),\n",
       "   Message('note_on', channel=0, note=50, velocity=100, time=0),\n",
       "   Message('note_on', channel=0, note=50, velocity=0, time=120),\n",
       "   Message('note_on', channel=0, note=47, velocity=100, time=0),\n",
       "   Message('note_on', channel=0, note=47, velocity=0, time=120),\n",
       "   Message('note_on', channel=0, note=41, velocity=100, time=0),\n",
       "   Message('note_on', channel=0, note=41, velocity=0, time=120),\n",
       "   Message('note_on', channel=0, note=47, velocity=100, time=0),\n",
       "   Message('note_on', channel=0, note=47, velocity=0, time=120),\n",
       "   Message('note_on', channel=0, note=50, velocity=100, time=0),\n",
       "   Message('note_on', channel=0, note=50, velocity=0, time=120),\n",
       "   Message('note_on', channel=0, note=46, velocity=100, time=0),\n",
       "   Message('note_on', channel=0, note=46, velocity=0, time=120),\n",
       "   Message('note_on', channel=0, note=40, velocity=100, time=0),\n",
       "   Message('note_on', channel=0, note=40, velocity=0, time=120),\n",
       "   Message('note_on', channel=0, note=46, velocity=100, time=0),\n",
       "   Message('note_on', channel=0, note=46, velocity=0, time=120),\n",
       "   Message('note_on', channel=0, note=48, velocity=100, time=0),\n",
       "   Message('note_on', channel=0, note=48, velocity=0, time=120),\n",
       "   Message('note_on', channel=0, note=46, velocity=100, time=0),\n",
       "   Message('note_on', channel=0, note=46, velocity=0, time=120),\n",
       "   Message('note_on', channel=0, note=40, velocity=100, time=0),\n",
       "   Message('note_on', channel=0, note=40, velocity=0, time=120),\n",
       "   Message('note_on', channel=0, note=46, velocity=100, time=0),\n",
       "   Message('note_on', channel=0, note=46, velocity=0, time=120),\n",
       "   Message('note_on', channel=0, note=48, velocity=100, time=0),\n",
       "   Message('note_on', channel=0, note=48, velocity=0, time=120),\n",
       "   Message('note_on', channel=0, note=46, velocity=100, time=0),\n",
       "   Message('note_on', channel=0, note=46, velocity=0, time=120),\n",
       "   Message('note_on', channel=0, note=40, velocity=100, time=0),\n",
       "   Message('note_on', channel=0, note=40, velocity=0, time=120),\n",
       "   Message('note_on', channel=0, note=46, velocity=100, time=0),\n",
       "   Message('note_on', channel=0, note=46, velocity=0, time=120),\n",
       "   Message('note_on', channel=0, note=48, velocity=100, time=0),\n",
       "   Message('note_on', channel=0, note=48, velocity=0, time=120),\n",
       "   Message('note_on', channel=0, note=45, velocity=100, time=0),\n",
       "   Message('note_on', channel=0, note=45, velocity=0, time=120),\n",
       "   Message('note_on', channel=0, note=41, velocity=100, time=0),\n",
       "   Message('note_on', channel=0, note=41, velocity=0, time=120),\n",
       "   Message('note_on', channel=0, note=45, velocity=100, time=0),\n",
       "   Message('note_on', channel=0, note=45, velocity=0, time=120),\n",
       "   Message('note_on', channel=0, note=48, velocity=100, time=0),\n",
       "   Message('note_on', channel=0, note=48, velocity=0, time=120),\n",
       "   Message('note_on', channel=0, note=45, velocity=100, time=0),\n",
       "   Message('note_on', channel=0, note=45, velocity=0, time=120),\n",
       "   Message('note_on', channel=0, note=41, velocity=100, time=0),\n",
       "   Message('note_on', channel=0, note=41, velocity=0, time=120),\n",
       "   Message('note_on', channel=0, note=45, velocity=100, time=0),\n",
       "   Message('note_on', channel=0, note=45, velocity=0, time=120),\n",
       "   Message('note_on', channel=0, note=48, velocity=100, time=0),\n",
       "   Message('note_on', channel=0, note=48, velocity=0, time=120),\n",
       "   Message('note_on', channel=0, note=45, velocity=100, time=0),\n",
       "   Message('note_on', channel=0, note=45, velocity=0, time=120),\n",
       "   Message('note_on', channel=0, note=40, velocity=100, time=0),\n",
       "   Message('note_on', channel=0, note=40, velocity=0, time=120),\n",
       "   Message('note_on', channel=0, note=45, velocity=100, time=0),\n",
       "   Message('note_on', channel=0, note=45, velocity=0, time=120),\n",
       "   Message('note_on', channel=0, note=48, velocity=100, time=0),\n",
       "   Message('note_on', channel=0, note=48, velocity=0, time=120),\n",
       "   Message('note_on', channel=0, note=47, velocity=100, time=0),\n",
       "   Message('note_on', channel=0, note=47, velocity=0, time=120),\n",
       "   Message('note_on', channel=0, note=38, velocity=100, time=0),\n",
       "   Message('note_on', channel=0, note=38, velocity=0, time=120),\n",
       "   Message('note_on', channel=0, note=47, velocity=100, time=0),\n",
       "   Message('note_on', channel=0, note=47, velocity=0, time=120),\n",
       "   Message('note_on', channel=0, note=53, velocity=100, time=0),\n",
       "   Message('note_on', channel=0, note=53, velocity=0, time=120),\n",
       "   Message('note_on', channel=0, note=47, velocity=100, time=0),\n",
       "   Message('note_on', channel=0, note=47, velocity=0, time=120),\n",
       "   Message('note_on', channel=0, note=38, velocity=100, time=0),\n",
       "   Message('note_on', channel=0, note=38, velocity=0, time=120),\n",
       "   Message('note_on', channel=0, note=47, velocity=100, time=0),\n",
       "   Message('note_on', channel=0, note=47, velocity=0, time=120),\n",
       "   Message('note_on', channel=0, note=53, velocity=100, time=0),\n",
       "   Message('note_on', channel=0, note=53, velocity=0, time=120),\n",
       "   Message('note_on', channel=0, note=47, velocity=100, time=0),\n",
       "   Message('note_on', channel=0, note=47, velocity=0, time=120),\n",
       "   Message('note_on', channel=0, note=38, velocity=100, time=0),\n",
       "   Message('note_on', channel=0, note=38, velocity=0, time=120),\n",
       "   Message('note_on', channel=0, note=47, velocity=100, time=0),\n",
       "   Message('note_on', channel=0, note=47, velocity=0, time=120),\n",
       "   Message('note_on', channel=0, note=53, velocity=100, time=0),\n",
       "   Message('note_on', channel=0, note=53, velocity=0, time=120),\n",
       "   Message('note_on', channel=0, note=52, velocity=100, time=0),\n",
       "   Message('note_on', channel=0, note=52, velocity=0, time=120),\n",
       "   Message('note_on', channel=0, note=36, velocity=100, time=0),\n",
       "   Message('note_on', channel=0, note=36, velocity=0, time=120),\n",
       "   Message('note_on', channel=0, note=38, velocity=100, time=0),\n",
       "   Message('note_on', channel=0, note=38, velocity=0, time=120),\n",
       "   Message('note_on', channel=0, note=40, velocity=100, time=0),\n",
       "   Message('note_on', channel=0, note=40, velocity=0, time=120),\n",
       "   Message('note_on', channel=0, note=41, velocity=100, time=0),\n",
       "   Message('note_on', channel=0, note=41, velocity=0, time=120),\n",
       "   Message('note_on', channel=0, note=43, velocity=100, time=0),\n",
       "   Message('note_on', channel=0, note=43, velocity=0, time=120),\n",
       "   Message('note_on', channel=0, note=45, velocity=100, time=0),\n",
       "   Message('note_on', channel=0, note=45, velocity=0, time=120),\n",
       "   Message('note_on', channel=0, note=47, velocity=100, time=0),\n",
       "   Message('note_on', channel=0, note=47, velocity=0, time=120),\n",
       "   Message('note_on', channel=0, note=48, velocity=100, time=0),\n",
       "   Message('note_on', channel=0, note=48, velocity=0, time=120),\n",
       "   Message('note_on', channel=0, note=50, velocity=100, time=0),\n",
       "   Message('note_on', channel=0, note=50, velocity=0, time=120),\n",
       "   Message('note_on', channel=0, note=52, velocity=100, time=0),\n",
       "   Message('note_on', channel=0, note=52, velocity=0, time=120),\n",
       "   Message('note_on', channel=0, note=53, velocity=100, time=0),\n",
       "   Message('note_on', channel=0, note=53, velocity=0, time=120),\n",
       "   Message('note_on', channel=0, note=55, velocity=100, time=0),\n",
       "   Message('note_on', channel=0, note=55, velocity=0, time=120),\n",
       "   Message('note_on', channel=0, note=52, velocity=100, time=0),\n",
       "   Message('note_on', channel=0, note=52, velocity=0, time=120),\n",
       "   Message('note_on', channel=0, note=48, velocity=100, time=0),\n",
       "   Message('note_on', channel=0, note=48, velocity=0, time=120),\n",
       "   Message('note_on', channel=0, note=50, velocity=100, time=0),\n",
       "   Message('note_on', channel=0, note=50, velocity=0, time=120),\n",
       "   Message('note_on', channel=0, note=52, velocity=100, time=0),\n",
       "   Message('note_on', channel=0, note=52, velocity=0, time=120),\n",
       "   Message('note_on', channel=0, note=53, velocity=100, time=0),\n",
       "   Message('note_on', channel=0, note=53, velocity=0, time=120),\n",
       "   Message('note_on', channel=0, note=55, velocity=100, time=0),\n",
       "   Message('note_on', channel=0, note=55, velocity=0, time=120),\n",
       "   Message('note_on', channel=0, note=57, velocity=100, time=0),\n",
       "   Message('note_on', channel=0, note=57, velocity=0, time=120),\n",
       "   Message('note_on', channel=0, note=58, velocity=100, time=0),\n",
       "   Message('note_on', channel=0, note=58, velocity=0, time=120),\n",
       "   Message('note_on', channel=0, note=57, velocity=100, time=0),\n",
       "   Message('note_on', channel=0, note=57, velocity=0, time=120),\n",
       "   Message('note_on', channel=0, note=58, velocity=100, time=0),\n",
       "   Message('note_on', channel=0, note=58, velocity=0, time=120),\n",
       "   Message('note_on', channel=0, note=55, velocity=100, time=0),\n",
       "   Message('note_on', channel=0, note=55, velocity=0, time=120),\n",
       "   Message('note_on', channel=0, note=57, velocity=100, time=0),\n",
       "   Message('note_on', channel=0, note=57, velocity=0, time=120),\n",
       "   Message('note_on', channel=0, note=53, velocity=100, time=0),\n",
       "   Message('note_on', channel=0, note=53, velocity=0, time=120),\n",
       "   Message('note_on', channel=0, note=50, velocity=100, time=0),\n",
       "   Message('note_on', channel=0, note=50, velocity=0, time=120),\n",
       "   Message('note_on', channel=0, note=52, velocity=100, time=0),\n",
       "   Message('note_on', channel=0, note=52, velocity=0, time=120),\n",
       "   Message('note_on', channel=0, note=53, velocity=100, time=0),\n",
       "   Message('note_on', channel=0, note=53, velocity=0, time=120),\n",
       "   Message('note_on', channel=0, note=55, velocity=100, time=0),\n",
       "   Message('note_on', channel=0, note=55, velocity=0, time=120),\n",
       "   Message('note_on', channel=0, note=57, velocity=100, time=0),\n",
       "   Message('note_on', channel=0, note=57, velocity=0, time=120),\n",
       "   Message('note_on', channel=0, note=59, velocity=100, time=0),\n",
       "   Message('note_on', channel=0, note=59, velocity=0, time=120),\n",
       "   Message('note_on', channel=0, note=60, velocity=100, time=0),\n",
       "   Message('note_on', channel=0, note=60, velocity=0, time=120),\n",
       "   Message('note_on', channel=0, note=59, velocity=100, time=0),\n",
       "   Message('note_on', channel=0, note=59, velocity=0, time=120),\n",
       "   Message('note_on', channel=0, note=60, velocity=100, time=0),\n",
       "   Message('note_on', channel=0, note=60, velocity=0, time=120),\n",
       "   Message('note_on', channel=0, note=57, velocity=100, time=0),\n",
       "   Message('note_on', channel=0, note=57, velocity=0, time=120),\n",
       "   Message('note_on', channel=0, note=59, velocity=100, time=0),\n",
       "   Message('note_on', channel=0, note=59, velocity=0, time=120),\n",
       "   Message('note_on', channel=0, note=55, velocity=100, time=0),\n",
       "   Message('note_on', channel=0, note=55, velocity=0, time=120),\n",
       "   Message('note_on', channel=0, note=52, velocity=100, time=0),\n",
       "   Message('note_on', channel=0, note=52, velocity=0, time=120),\n",
       "   Message('note_on', channel=0, note=53, velocity=100, time=0),\n",
       "   Message('note_on', channel=0, note=53, velocity=0, time=120),\n",
       "   Message('note_on', channel=0, note=55, velocity=100, time=0),\n",
       "   Message('note_on', channel=0, note=55, velocity=0, time=120),\n",
       "   Message('note_on', channel=0, note=57, velocity=100, time=0),\n",
       "   Message('note_on', channel=0, note=57, velocity=0, time=120),\n",
       "   Message('note_on', channel=0, note=59, velocity=100, time=0),\n",
       "   Message('note_on', channel=0, note=59, velocity=0, time=120),\n",
       "   Message('note_on', channel=0, note=60, velocity=100, time=0),\n",
       "   Message('note_on', channel=0, note=60, velocity=0, time=120),\n",
       "   Message('note_on', channel=0, note=62, velocity=100, time=0),\n",
       "   Message('note_on', channel=0, note=62, velocity=0, time=120),\n",
       "   Message('note_on', channel=0, note=60, velocity=100, time=0),\n",
       "   Message('note_on', channel=0, note=60, velocity=0, time=120),\n",
       "   Message('note_on', channel=0, note=62, velocity=100, time=0),\n",
       "   Message('note_on', channel=0, note=62, velocity=0, time=120),\n",
       "   Message('note_on', channel=0, note=59, velocity=100, time=0),\n",
       "   Message('note_on', channel=0, note=59, velocity=0, time=120),\n",
       "   Message('note_on', channel=0, note=60, velocity=100, time=0),\n",
       "   Message('note_on', channel=0, note=60, velocity=0, time=120),\n",
       "   Message('note_on', channel=0, note=57, velocity=100, time=0),\n",
       "   Message('note_on', channel=0, note=57, velocity=0, time=120),\n",
       "   Message('note_on', channel=0, note=53, velocity=100, time=0),\n",
       "   Message('note_on', channel=0, note=53, velocity=0, time=120),\n",
       "   Message('note_on', channel=0, note=55, velocity=100, time=0),\n",
       "   Message('note_on', channel=0, note=55, velocity=0, time=120),\n",
       "   Message('note_on', channel=0, note=57, velocity=100, time=0),\n",
       "   Message('note_on', channel=0, note=57, velocity=0, time=120),\n",
       "   Message('note_on', channel=0, note=59, velocity=100, time=0),\n",
       "   Message('note_on', channel=0, note=59, velocity=0, time=120),\n",
       "   Message('note_on', channel=0, note=60, velocity=100, time=0),\n",
       "   Message('note_on', channel=0, note=60, velocity=0, time=120),\n",
       "   Message('note_on', channel=0, note=62, velocity=100, time=0),\n",
       "   Message('note_on', channel=0, note=62, velocity=0, time=120),\n",
       "   Message('note_on', channel=0, note=64, velocity=100, time=0),\n",
       "   Message('note_on', channel=0, note=64, velocity=0, time=120),\n",
       "   Message('note_on', channel=0, note=62, velocity=100, time=0),\n",
       "   Message('note_on', channel=0, note=62, velocity=0, time=120),\n",
       "   Message('note_on', channel=0, note=64, velocity=100, time=0),\n",
       "   Message('note_on', channel=0, note=64, velocity=0, time=120),\n",
       "   Message('note_on', channel=0, note=60, velocity=100, time=0),\n",
       "   Message('note_on', channel=0, note=60, velocity=0, time=120),\n",
       "   Message('note_on', channel=0, note=59, velocity=100, time=0),\n",
       "   Message('note_on', channel=0, note=59, velocity=0, time=120),\n",
       "   Message('note_on', channel=0, note=57, velocity=100, time=0),\n",
       "   Message('note_on', channel=0, note=57, velocity=0, time=120),\n",
       "   Message('note_on', channel=0, note=59, velocity=100, time=0),\n",
       "   Message('note_on', channel=0, note=59, velocity=0, time=120),\n",
       "   Message('note_on', channel=0, note=55, velocity=100, time=0),\n",
       "   Message('note_on', channel=0, note=55, velocity=0, time=120),\n",
       "   Message('note_on', channel=0, note=53, velocity=100, time=0),\n",
       "   Message('note_on', channel=0, note=53, velocity=0, time=120),\n",
       "   Message('note_on', channel=0, note=52, velocity=100, time=0),\n",
       "   Message('note_on', channel=0, note=52, velocity=0, time=120),\n",
       "   Message('note_on', channel=0, note=53, velocity=100, time=0),\n",
       "   Message('note_on', channel=0, note=53, velocity=0, time=120),\n",
       "   Message('note_on', channel=0, note=50, velocity=100, time=0),\n",
       "   Message('note_on', channel=0, note=50, velocity=0, time=120),\n",
       "   Message('note_on', channel=0, note=47, velocity=100, time=0),\n",
       "   Message('note_on', channel=0, note=47, velocity=0, time=120),\n",
       "   Message('note_on', channel=0, note=45, velocity=100, time=0),\n",
       "   Message('note_on', channel=0, note=45, velocity=0, time=120),\n",
       "   Message('note_on', channel=0, note=47, velocity=100, time=0),\n",
       "   Message('note_on', channel=0, note=47, velocity=0, time=120),\n",
       "   Message('note_on', channel=0, note=43, velocity=100, time=0),\n",
       "   Message('note_on', channel=0, note=43, velocity=0, time=120),\n",
       "   Message('note_on', channel=0, note=41, velocity=100, time=0),\n",
       "   Message('note_on', channel=0, note=41, velocity=0, time=480),\n",
       "   Message('note_on', channel=0, note=40, velocity=100, time=960),\n",
       "   Message('note_on', channel=0, note=40, velocity=0, time=120),\n",
       "   Message('note_on', channel=0, note=60, velocity=100, time=0),\n",
       "   Message('note_on', channel=0, note=60, velocity=0, time=120),\n",
       "   Message('note_on', channel=0, note=59, velocity=100, time=0),\n",
       "   Message('note_on', channel=0, note=59, velocity=0, time=120),\n",
       "   Message('note_on', channel=0, note=57, velocity=100, time=0),\n",
       "   Message('note_on', channel=0, note=57, velocity=0, time=120),\n",
       "   Message('note_on', channel=0, note=55, velocity=100, time=0),\n",
       "   Message('note_on', channel=0, note=55, velocity=0, time=120),\n",
       "   Message('note_on', channel=0, note=53, velocity=100, time=0),\n",
       "   Message('note_on', channel=0, note=53, velocity=0, time=120),\n",
       "   Message('note_on', channel=0, note=52, velocity=100, time=0),\n",
       "   Message('note_on', channel=0, note=52, velocity=0, time=120),\n",
       "   Message('note_on', channel=0, note=50, velocity=100, time=0),\n",
       "   Message('note_on', channel=0, note=50, velocity=0, time=120),\n",
       "   Message('note_on', channel=0, note=48, velocity=100, time=0),\n",
       "   Message('note_on', channel=0, note=48, velocity=0, time=120),\n",
       "   Message('note_on', channel=0, note=43, velocity=100, time=0),\n",
       "   Message('note_on', channel=0, note=43, velocity=0, time=120),\n",
       "   Message('note_on', channel=0, note=40, velocity=100, time=0),\n",
       "   Message('note_on', channel=0, note=40, velocity=0, time=120),\n",
       "   Message('note_on', channel=0, note=43, velocity=100, time=0),\n",
       "   Message('note_on', channel=0, note=43, velocity=0, time=120),\n",
       "   Message('note_on', channel=0, note=39, velocity=100, time=0),\n",
       "   Message('note_on', channel=0, note=39, velocity=0, time=480),\n",
       "   Message('note_on', channel=0, note=38, velocity=100, time=960),\n",
       "   Message('note_on', channel=0, note=38, velocity=0, time=480),\n",
       "   Message('note_on', channel=0, note=36, velocity=100, time=960),\n",
       "   Message('note_on', channel=0, note=36, velocity=0, time=480),\n",
       "   Message('note_on', channel=0, note=36, velocity=100, time=960),\n",
       "   Message('note_on', channel=0, note=36, velocity=0, time=480),\n",
       "   Message('note_on', channel=0, note=36, velocity=100, time=960),\n",
       "   Message('note_on', channel=0, note=36, velocity=0, time=480),\n",
       "   Message('note_on', channel=0, note=36, velocity=100, time=960),\n",
       "   Message('note_on', channel=0, note=36, velocity=0, time=480),\n",
       "   Message('note_on', channel=0, note=36, velocity=100, time=960),\n",
       "   Message('note_on', channel=0, note=36, velocity=0, time=480),\n",
       "   Message('note_on', channel=0, note=60, velocity=100, time=3840),\n",
       "   Message('note_on', channel=0, note=60, velocity=0, time=480),\n",
       "   MetaMessage('end_of_track', time=0)]),\n",
       " MidiTrack([\n",
       "   MetaMessage('midi_port', port=0, time=0),\n",
       "   MetaMessage('track_name', name='--------------------------------------', time=0),\n",
       "   Message('program_change', channel=1, program=42, time=0),\n",
       "   Message('control_change', channel=1, control=7, value=100, time=0),\n",
       "   Message('control_change', channel=1, control=10, value=74, time=0),\n",
       "   Message('note_on', channel=1, note=59, velocity=100, time=109440),\n",
       "   Message('note_on', channel=1, note=59, velocity=0, time=480),\n",
       "   Message('note_on', channel=1, note=57, velocity=100, time=2400),\n",
       "   Message('note_on', channel=1, note=57, velocity=0, time=480),\n",
       "   Message('note_on', channel=1, note=59, velocity=100, time=960),\n",
       "   Message('note_on', channel=1, note=59, velocity=0, time=480),\n",
       "   Message('note_on', channel=1, note=60, velocity=100, time=960),\n",
       "   Message('note_on', channel=1, note=60, velocity=0, time=480),\n",
       "   Message('note_on', channel=1, note=60, velocity=100, time=0),\n",
       "   Message('note_on', channel=1, note=60, velocity=0, time=480),\n",
       "   Message('note_on', channel=1, note=59, velocity=100, time=0),\n",
       "   Message('note_on', channel=1, note=59, velocity=0, time=480),\n",
       "   Message('note_on', channel=1, note=60, velocity=100, time=0),\n",
       "   Message('note_on', channel=1, note=60, velocity=0, time=600),\n",
       "   Message('note_on', channel=1, note=52, velocity=100, time=0),\n",
       "   Message('note_on', channel=1, note=52, velocity=0, time=120),\n",
       "   Message('note_on', channel=1, note=60, velocity=100, time=0),\n",
       "   Message('note_on', channel=1, note=60, velocity=0, time=120),\n",
       "   Message('note_on', channel=1, note=62, velocity=100, time=0),\n",
       "   Message('note_on', channel=1, note=62, velocity=0, time=120),\n",
       "   Message('note_on', channel=1, note=60, velocity=100, time=0),\n",
       "   Message('note_on', channel=1, note=60, velocity=0, time=120),\n",
       "   Message('note_on', channel=1, note=52, velocity=100, time=0),\n",
       "   Message('note_on', channel=1, note=52, velocity=0, time=120),\n",
       "   Message('note_on', channel=1, note=60, velocity=100, time=0),\n",
       "   Message('note_on', channel=1, note=60, velocity=0, time=120),\n",
       "   Message('note_on', channel=1, note=62, velocity=100, time=0),\n",
       "   Message('note_on', channel=1, note=62, velocity=0, time=120),\n",
       "   Message('note_on', channel=1, note=58, velocity=100, time=0),\n",
       "   Message('note_on', channel=1, note=58, velocity=0, time=600),\n",
       "   Message('note_on', channel=1, note=52, velocity=100, time=0),\n",
       "   Message('note_on', channel=1, note=52, velocity=0, time=120),\n",
       "   Message('note_on', channel=1, note=58, velocity=100, time=0),\n",
       "   Message('note_on', channel=1, note=58, velocity=0, time=120),\n",
       "   Message('note_on', channel=1, note=60, velocity=100, time=0),\n",
       "   Message('note_on', channel=1, note=60, velocity=0, time=120),\n",
       "   Message('note_on', channel=1, note=58, velocity=100, time=0),\n",
       "   Message('note_on', channel=1, note=58, velocity=0, time=120),\n",
       "   Message('note_on', channel=1, note=52, velocity=100, time=0),\n",
       "   Message('note_on', channel=1, note=52, velocity=0, time=120),\n",
       "   Message('note_on', channel=1, note=58, velocity=100, time=0),\n",
       "   Message('note_on', channel=1, note=58, velocity=0, time=120),\n",
       "   Message('note_on', channel=1, note=60, velocity=100, time=0),\n",
       "   Message('note_on', channel=1, note=60, velocity=0, time=120),\n",
       "   Message('note_on', channel=1, note=57, velocity=100, time=0),\n",
       "   Message('note_on', channel=1, note=57, velocity=0, time=600),\n",
       "   Message('note_on', channel=1, note=53, velocity=100, time=0),\n",
       "   Message('note_on', channel=1, note=53, velocity=0, time=120),\n",
       "   Message('note_on', channel=1, note=52, velocity=100, time=0),\n",
       "   Message('note_on', channel=1, note=52, velocity=0, time=120),\n",
       "   Message('note_on', channel=1, note=53, velocity=100, time=0),\n",
       "   Message('note_on', channel=1, note=53, velocity=0, time=120),\n",
       "   Message('note_on', channel=1, note=57, velocity=100, time=0),\n",
       "   Message('note_on', channel=1, note=57, velocity=0, time=120),\n",
       "   Message('note_on', channel=1, note=53, velocity=100, time=0),\n",
       "   Message('note_on', channel=1, note=53, velocity=0, time=120),\n",
       "   Message('note_on', channel=1, note=52, velocity=100, time=0),\n",
       "   Message('note_on', channel=1, note=52, velocity=0, time=120),\n",
       "   Message('note_on', channel=1, note=53, velocity=100, time=0),\n",
       "   Message('note_on', channel=1, note=53, velocity=0, time=120),\n",
       "   Message('note_on', channel=1, note=59, velocity=100, time=0),\n",
       "   Message('note_on', channel=1, note=59, velocity=0, time=600),\n",
       "   Message('note_on', channel=1, note=60, velocity=100, time=0),\n",
       "   Message('note_on', channel=1, note=60, velocity=0, time=120),\n",
       "   Message('note_on', channel=1, note=59, velocity=100, time=0),\n",
       "   Message('note_on', channel=1, note=59, velocity=0, time=120),\n",
       "   Message('note_on', channel=1, note=60, velocity=100, time=0),\n",
       "   Message('note_on', channel=1, note=60, velocity=0, time=120),\n",
       "   Message('note_on', channel=1, note=59, velocity=100, time=0),\n",
       "   Message('note_on', channel=1, note=59, velocity=0, time=120),\n",
       "   Message('note_on', channel=1, note=60, velocity=100, time=0),\n",
       "   Message('note_on', channel=1, note=60, velocity=0, time=120),\n",
       "   Message('note_on', channel=1, note=59, velocity=100, time=0),\n",
       "   Message('note_on', channel=1, note=59, velocity=0, time=120),\n",
       "   Message('note_on', channel=1, note=60, velocity=100, time=0),\n",
       "   Message('note_on', channel=1, note=60, velocity=0, time=120),\n",
       "   Message('pitchwheel', channel=1, pitch=4096, time=0),\n",
       "   Message('note_on', channel=1, note=59, velocity=100, time=0),\n",
       "   Message('pitchwheel', channel=1, pitch=0, time=40),\n",
       "   Message('pitchwheel', channel=1, pitch=4096, time=40),\n",
       "   Message('pitchwheel', channel=1, pitch=0, time=40),\n",
       "   Message('pitchwheel', channel=1, pitch=4096, time=40),\n",
       "   Message('pitchwheel', channel=1, pitch=0, time=40),\n",
       "   Message('pitchwheel', channel=1, pitch=4096, time=40),\n",
       "   Message('pitchwheel', channel=1, pitch=0, time=40),\n",
       "   Message('pitchwheel', channel=1, pitch=4096, time=40),\n",
       "   Message('pitchwheel', channel=1, pitch=0, time=40),\n",
       "   Message('pitchwheel', channel=1, pitch=4096, time=40),\n",
       "   Message('pitchwheel', channel=1, pitch=0, time=40),\n",
       "   Message('pitchwheel', channel=1, pitch=4096, time=40),\n",
       "   Message('pitchwheel', channel=1, pitch=0, time=40),\n",
       "   Message('pitchwheel', channel=1, pitch=4096, time=40),\n",
       "   Message('pitchwheel', channel=1, pitch=0, time=40),\n",
       "   Message('pitchwheel', channel=1, pitch=4096, time=40),\n",
       "   Message('pitchwheel', channel=1, pitch=0, time=40),\n",
       "   Message('pitchwheel', channel=1, pitch=4096, time=40),\n",
       "   Message('pitchwheel', channel=1, pitch=0, time=40),\n",
       "   Message('pitchwheel', channel=1, pitch=4096, time=40),\n",
       "   Message('pitchwheel', channel=1, pitch=0, time=40),\n",
       "   Message('pitchwheel', channel=1, pitch=4096, time=40),\n",
       "   Message('pitchwheel', channel=1, pitch=0, time=40),\n",
       "   Message('note_on', channel=1, note=59, velocity=0, time=520),\n",
       "   Message('note_on', channel=1, note=60, velocity=100, time=0),\n",
       "   Message('note_on', channel=1, note=60, velocity=0, time=240),\n",
       "   Message('note_on', channel=1, note=59, velocity=100, time=0),\n",
       "   Message('note_on', channel=1, note=59, velocity=0, time=120),\n",
       "   Message('note_on', channel=1, note=57, velocity=100, time=0),\n",
       "   Message('note_on', channel=1, note=57, velocity=0, time=120),\n",
       "   Message('note_on', channel=1, note=55, velocity=100, time=0),\n",
       "   Message('note_on', channel=1, note=55, velocity=0, time=120),\n",
       "   Message('note_on', channel=1, note=53, velocity=100, time=0),\n",
       "   Message('note_on', channel=1, note=53, velocity=0, time=120),\n",
       "   Message('note_on', channel=1, note=52, velocity=100, time=0),\n",
       "   Message('note_on', channel=1, note=52, velocity=0, time=120),\n",
       "   Message('note_on', channel=1, note=50, velocity=100, time=0),\n",
       "   Message('note_on', channel=1, note=50, velocity=0, time=120),\n",
       "   Message('note_on', channel=1, note=48, velocity=100, time=0),\n",
       "   Message('note_on', channel=1, note=48, velocity=0, time=120),\n",
       "   Message('note_on', channel=1, note=43, velocity=100, time=0),\n",
       "   Message('note_on', channel=1, note=43, velocity=0, time=120),\n",
       "   Message('note_on', channel=1, note=40, velocity=100, time=0),\n",
       "   Message('note_on', channel=1, note=40, velocity=0, time=120),\n",
       "   Message('note_on', channel=1, note=43, velocity=100, time=0),\n",
       "   Message('note_on', channel=1, note=43, velocity=0, time=120),\n",
       "   Message('note_on', channel=1, note=36, velocity=100, time=0),\n",
       "   Message('note_on', channel=1, note=36, velocity=0, time=480),\n",
       "   MetaMessage('end_of_track', time=0)]),\n",
       " MidiTrack([\n",
       "   MetaMessage('midi_port', port=0, time=0),\n",
       "   MetaMessage('track_name', name='Johann Sebastian Bach  (1685-1750)', time=0),\n",
       "   Message('program_change', channel=2, program=42, time=0),\n",
       "   Message('control_change', channel=2, control=7, value=100, time=0),\n",
       "   Message('control_change', channel=2, control=10, value=54, time=0),\n",
       "   Message('note_on', channel=2, note=50, velocity=100, time=109440),\n",
       "   Message('note_on', channel=2, note=50, velocity=0, time=480),\n",
       "   Message('note_on', channel=2, note=55, velocity=100, time=2400),\n",
       "   Message('note_on', channel=2, note=55, velocity=0, time=480),\n",
       "   Message('note_on', channel=2, note=53, velocity=100, time=960),\n",
       "   Message('note_on', channel=2, note=53, velocity=0, time=480),\n",
       "   Message('note_on', channel=2, note=52, velocity=100, time=960),\n",
       "   Message('note_on', channel=2, note=52, velocity=0, time=480),\n",
       "   Message('note_on', channel=2, note=50, velocity=100, time=0),\n",
       "   Message('note_on', channel=2, note=50, velocity=0, time=960),\n",
       "   Message('note_on', channel=2, note=52, velocity=100, time=0),\n",
       "   Message('note_on', channel=2, note=52, velocity=0, time=480),\n",
       "   Message('note_on', channel=2, note=52, velocity=100, time=960),\n",
       "   Message('note_on', channel=2, note=52, velocity=0, time=480),\n",
       "   Message('note_on', channel=2, note=53, velocity=100, time=960),\n",
       "   Message('note_on', channel=2, note=53, velocity=0, time=480),\n",
       "   Message('note_on', channel=2, note=50, velocity=100, time=960),\n",
       "   Message('note_on', channel=2, note=50, velocity=0, time=600),\n",
       "   Message('note_on', channel=2, note=52, velocity=100, time=0),\n",
       "   Message('note_on', channel=2, note=52, velocity=0, time=120),\n",
       "   Message('note_on', channel=2, note=50, velocity=100, time=0),\n",
       "   Message('note_on', channel=2, note=50, velocity=0, time=120),\n",
       "   Message('note_on', channel=2, note=52, velocity=100, time=0),\n",
       "   Message('note_on', channel=2, note=52, velocity=0, time=120),\n",
       "   Message('note_on', channel=2, note=50, velocity=100, time=0),\n",
       "   Message('note_on', channel=2, note=50, velocity=0, time=120),\n",
       "   Message('note_on', channel=2, note=52, velocity=100, time=0),\n",
       "   Message('note_on', channel=2, note=52, velocity=0, time=120),\n",
       "   Message('note_on', channel=2, note=50, velocity=100, time=0),\n",
       "   Message('note_on', channel=2, note=50, velocity=0, time=120),\n",
       "   Message('note_on', channel=2, note=52, velocity=100, time=0),\n",
       "   Message('note_on', channel=2, note=52, velocity=0, time=120),\n",
       "   Message('note_on', channel=2, note=50, velocity=100, time=0),\n",
       "   Message('pitchwheel', channel=2, pitch=8191, time=0),\n",
       "   Message('pitchwheel', channel=2, pitch=0, time=40),\n",
       "   Message('pitchwheel', channel=2, pitch=8191, time=40),\n",
       "   Message('pitchwheel', channel=2, pitch=0, time=40),\n",
       "   Message('pitchwheel', channel=2, pitch=8191, time=40),\n",
       "   Message('pitchwheel', channel=2, pitch=0, time=40),\n",
       "   Message('pitchwheel', channel=2, pitch=8191, time=40),\n",
       "   Message('pitchwheel', channel=2, pitch=0, time=40),\n",
       "   Message('pitchwheel', channel=2, pitch=8191, time=40),\n",
       "   Message('pitchwheel', channel=2, pitch=0, time=40),\n",
       "   Message('pitchwheel', channel=2, pitch=8191, time=40),\n",
       "   Message('pitchwheel', channel=2, pitch=0, time=40),\n",
       "   Message('pitchwheel', channel=2, pitch=8191, time=40),\n",
       "   Message('pitchwheel', channel=2, pitch=0, time=40),\n",
       "   Message('pitchwheel', channel=2, pitch=8191, time=40),\n",
       "   Message('pitchwheel', channel=2, pitch=0, time=40),\n",
       "   Message('pitchwheel', channel=2, pitch=8191, time=40),\n",
       "   Message('pitchwheel', channel=2, pitch=0, time=40),\n",
       "   Message('pitchwheel', channel=2, pitch=8191, time=40),\n",
       "   Message('pitchwheel', channel=2, pitch=0, time=40),\n",
       "   Message('pitchwheel', channel=2, pitch=8191, time=40),\n",
       "   Message('pitchwheel', channel=2, pitch=0, time=40),\n",
       "   Message('pitchwheel', channel=2, pitch=8191, time=40),\n",
       "   Message('pitchwheel', channel=2, pitch=0, time=40),\n",
       "   Message('note_on', channel=2, note=50, velocity=0, time=520),\n",
       "   Message('note_on', channel=2, note=52, velocity=100, time=1440),\n",
       "   Message('note_on', channel=2, note=52, velocity=0, time=480),\n",
       "   MetaMessage('end_of_track', time=0)]),\n",
       " MidiTrack([\n",
       "   MetaMessage('midi_port', port=0, time=0),\n",
       "   MetaMessage('track_name', name='Six Suites for Solo Cello', time=0),\n",
       "   Message('program_change', channel=3, program=42, time=0),\n",
       "   Message('control_change', channel=3, control=7, value=100, time=0),\n",
       "   Message('control_change', channel=3, control=10, value=44, time=0),\n",
       "   Message('note_on', channel=3, note=43, velocity=100, time=109440),\n",
       "   Message('note_on', channel=3, note=43, velocity=0, time=480),\n",
       "   Message('note_on', channel=3, note=43, velocity=100, time=2400),\n",
       "   Message('note_on', channel=3, note=43, velocity=0, time=480),\n",
       "   Message('note_on', channel=3, note=43, velocity=100, time=960),\n",
       "   Message('note_on', channel=3, note=43, velocity=0, time=480),\n",
       "   Message('note_on', channel=3, note=43, velocity=100, time=960),\n",
       "   Message('note_on', channel=3, note=43, velocity=0, time=480),\n",
       "   Message('note_on', channel=3, note=43, velocity=100, time=0),\n",
       "   Message('note_on', channel=3, note=43, velocity=0, time=960),\n",
       "   Message('note_on', channel=3, note=43, velocity=100, time=0),\n",
       "   Message('note_on', channel=3, note=43, velocity=0, time=480),\n",
       "   Message('note_on', channel=3, note=43, velocity=100, time=960),\n",
       "   Message('note_on', channel=3, note=43, velocity=0, time=480),\n",
       "   Message('note_on', channel=3, note=45, velocity=100, time=960),\n",
       "   Message('note_on', channel=3, note=45, velocity=0, time=480),\n",
       "   Message('note_on', channel=3, note=44, velocity=100, time=960),\n",
       "   Message('note_on', channel=3, note=44, velocity=0, time=480),\n",
       "   Message('note_on', channel=3, note=43, velocity=100, time=3840),\n",
       "   Message('note_on', channel=3, note=43, velocity=0, time=480),\n",
       "   MetaMessage('end_of_track', time=0)]),\n",
       " MidiTrack([\n",
       "   MetaMessage('midi_port', port=0, time=0),\n",
       "   MetaMessage('track_name', name='--------------------------------------', time=0),\n",
       "   MetaMessage('end_of_track', time=0)]),\n",
       " MidiTrack([\n",
       "   MetaMessage('midi_port', port=0, time=0),\n",
       "   MetaMessage('track_name', name='Suite No. 3 in C major - BWV 1009', time=0),\n",
       "   MetaMessage('end_of_track', time=0)]),\n",
       " MidiTrack([\n",
       "   MetaMessage('midi_port', port=0, time=0),\n",
       "   MetaMessage('track_name', name='1st Movement: Prelude', time=0),\n",
       "   MetaMessage('end_of_track', time=0)]),\n",
       " MidiTrack([\n",
       "   MetaMessage('midi_port', port=0, time=0),\n",
       "   MetaMessage('track_name', name='--------------------------------------', time=0),\n",
       "   MetaMessage('end_of_track', time=0)]),\n",
       " MidiTrack([\n",
       "   MetaMessage('midi_port', port=0, time=0),\n",
       "   MetaMessage('track_name', name='Sequenced with Cakewalk Pro Audio by', time=0),\n",
       "   MetaMessage('end_of_track', time=0)]),\n",
       " MidiTrack([\n",
       "   MetaMessage('midi_port', port=0, time=0),\n",
       "   MetaMessage('track_name', name='David J. Grossman - dave@unpronounceable.com', time=0),\n",
       "   MetaMessage('end_of_track', time=0)]),\n",
       " MidiTrack([\n",
       "   MetaMessage('midi_port', port=0, time=0),\n",
       "   MetaMessage('track_name', name='This and other Bach MIDI files can be found at:', time=0),\n",
       "   MetaMessage('end_of_track', time=0)]),\n",
       " MidiTrack([\n",
       "   MetaMessage('midi_port', port=0, time=0),\n",
       "   MetaMessage('track_name', name=\"Dave's J.S. Bach Page\", time=0),\n",
       "   MetaMessage('end_of_track', time=0)]),\n",
       " MidiTrack([\n",
       "   MetaMessage('midi_port', port=0, time=0),\n",
       "   MetaMessage('track_name', name='http://www.unpronounceable.com/bach', time=0),\n",
       "   MetaMessage('end_of_track', time=0)]),\n",
       " MidiTrack([\n",
       "   MetaMessage('midi_port', port=0, time=0),\n",
       "   MetaMessage('track_name', name='--------------------------------------', time=0),\n",
       "   MetaMessage('end_of_track', time=0)]),\n",
       " MidiTrack([\n",
       "   MetaMessage('midi_port', port=0, time=0),\n",
       "   MetaMessage('track_name', name='Original Filename: cs3-1pre.mid', time=0),\n",
       "   MetaMessage('end_of_track', time=0)]),\n",
       " MidiTrack([\n",
       "   MetaMessage('midi_port', port=0, time=0),\n",
       "   MetaMessage('track_name', name='Last Modified: February 22, 1997', time=0),\n",
       "   MetaMessage('end_of_track', time=0)]),\n",
       " MidiTrack([\n",
       "   MetaMessage('midi_port', port=0, time=0),\n",
       "   MetaMessage('end_of_track', time=0)])]"
      ]
     },
     "execution_count": 21,
     "metadata": {},
     "output_type": "execute_result"
    }
   ],
   "source": [
    "# !pip install mido\n",
    "import string\n",
    "import mido\n",
    "import numpy as np\n",
    "mid = mido.MidiFile('Audio/midi/suite_3/cs3-1pre.mid', clip=True)\n",
    "mid.tracks"
   ]
  },
  {
   "cell_type": "code",
   "execution_count": 11,
   "id": "06e5b376",
   "metadata": {},
   "outputs": [
    {
     "name": "stdout",
     "output_type": "stream",
     "text": [
      "MetaMessage('track_name', name='untitled', time=0)\n",
      "MetaMessage('copyright', text='Copyright © 1996 by David J. Grossman', time=0)\n",
      "MetaMessage('text', text='David J. Grossman', time=0)\n",
      "MetaMessage('smpte_offset', frame_rate=25, hours=32, minutes=0, seconds=3, frames=0, sub_frames=0, time=0)\n",
      "MetaMessage('time_signature', numerator=3, denominator=4, clocks_per_click=24, notated_32nd_notes_per_beat=8, time=0)\n",
      "MetaMessage('key_signature', key='C', time=0)\n",
      "MetaMessage('set_tempo', tempo=857143, time=0)\n",
      "MetaMessage('marker', text='*', time=112320)\n",
      "MetaMessage('set_tempo', tempo=1714286, time=12960)\n",
      "MetaMessage('end_of_track', time=0)\n"
     ]
    }
   ],
   "source": [
    "for m in mid.tracks[0][:20]:\n",
    "    print(m)"
   ]
  },
  {
   "cell_type": "code",
   "execution_count": 12,
   "id": "196243b6",
   "metadata": {},
   "outputs": [
    {
     "name": "stdout",
     "output_type": "stream",
     "text": [
      "MetaMessage('midi_port', port=0, time=0)\n",
      "MetaMessage('track_name', name='--------------------------------------', time=0)\n",
      "program_change channel=1 program=42 time=0\n",
      "control_change channel=1 control=7 value=100 time=0\n",
      "control_change channel=1 control=10 value=74 time=0\n",
      "note_on channel=1 note=59 velocity=100 time=109440\n",
      "note_on channel=1 note=59 velocity=0 time=480\n",
      "note_on channel=1 note=57 velocity=100 time=2400\n",
      "note_on channel=1 note=57 velocity=0 time=480\n",
      "note_on channel=1 note=59 velocity=100 time=960\n",
      "note_on channel=1 note=59 velocity=0 time=480\n",
      "note_on channel=1 note=60 velocity=100 time=960\n",
      "note_on channel=1 note=60 velocity=0 time=480\n",
      "note_on channel=1 note=60 velocity=100 time=0\n",
      "note_on channel=1 note=60 velocity=0 time=480\n",
      "note_on channel=1 note=59 velocity=100 time=0\n",
      "note_on channel=1 note=59 velocity=0 time=480\n",
      "note_on channel=1 note=60 velocity=100 time=0\n",
      "note_on channel=1 note=60 velocity=0 time=600\n",
      "note_on channel=1 note=52 velocity=100 time=0\n"
     ]
    }
   ],
   "source": [
    "for m in mid.tracks[2][:20]:\n",
    "    print(m)"
   ]
  },
  {
   "cell_type": "code",
   "execution_count": 13,
   "id": "6dca35de",
   "metadata": {},
   "outputs": [],
   "source": [
    "def msg2dict(msg):\n",
    "    result = dict()\n",
    "    if 'note_on' in msg:\n",
    "        on_ = True\n",
    "    elif 'note_off' in msg:\n",
    "        on_ = False\n",
    "    else:\n",
    "        on_ = None\n",
    "    result['time'] = int(msg[msg.rfind('time'):].split(' ')[0].split('=')[1].translate(\n",
    "        str.maketrans({a: None for a in string.punctuation})))\n",
    "\n",
    "    if on_ is not None:\n",
    "        for k in ['note', 'velocity']:\n",
    "            result[k] = int(msg[msg.rfind(k):].split(' ')[0].split('=')[1].translate(\n",
    "                str.maketrans({a: None for a in string.punctuation})))\n",
    "    return [result, on_]"
   ]
  },
  {
   "cell_type": "code",
   "execution_count": 14,
   "id": "e0e1e0c0",
   "metadata": {},
   "outputs": [],
   "source": [
    "def switch_note(last_state, note, velocity, on_=True):\n",
    "    # piano has 88 notes, corresponding to note id 21 to 108, any note out of this range will be ignored\n",
    "    result = [0] * 88 if last_state is None else last_state.copy()\n",
    "    if 21 <= note <= 108:\n",
    "        result[note-21] = velocity if on_ else 0\n",
    "    return result"
   ]
  },
  {
   "cell_type": "code",
   "execution_count": 15,
   "id": "a57caa0b",
   "metadata": {},
   "outputs": [],
   "source": [
    "def get_new_state(new_msg, last_state):\n",
    "    new_msg, on_ = msg2dict(str(new_msg))\n",
    "    new_state = switch_note(last_state, note=new_msg['note'], velocity=new_msg['velocity'], on_=on_) if on_ is not None else last_state\n",
    "    return [new_state, new_msg['time']]\n",
    "def track2seq(track):\n",
    "    # piano has 88 notes, corresponding to note id 21 to 108, any note out of the id range will be ignored\n",
    "    result = []\n",
    "    last_state, last_time = get_new_state(str(track[0]), [0]*88)\n",
    "    for i in range(1, len(track)):\n",
    "        new_state, new_time = get_new_state(track[i], last_state)\n",
    "        if new_time > 0:\n",
    "            result += [last_state]*new_time\n",
    "        last_state, last_time = new_state, new_time\n",
    "    return result"
   ]
  },
  {
   "cell_type": "code",
   "execution_count": 16,
   "id": "bca2d263",
   "metadata": {},
   "outputs": [],
   "source": [
    "def mid2arry(mid, min_msg_pct=0.1):\n",
    "    tracks_len = [len(tr) for tr in mid.tracks]\n",
    "    min_n_msg = max(tracks_len) * min_msg_pct\n",
    "    # convert each track to nested list\n",
    "    all_arys = []\n",
    "    for i in range(len(mid.tracks)):\n",
    "        if len(mid.tracks[i]) > min_n_msg:\n",
    "            ary_i = track2seq(mid.tracks[i])\n",
    "            all_arys.append(ary_i)\n",
    "    # make all nested list the same length\n",
    "    max_len = max([len(ary) for ary in all_arys])\n",
    "    for i in range(len(all_arys)):\n",
    "        if len(all_arys[i]) < max_len:\n",
    "            all_arys[i] += [[0] * 88] * (max_len - len(all_arys[i]))\n",
    "    all_arys = np.array(all_arys)\n",
    "    all_arys = all_arys.max(axis=0)\n",
    "    # trim: remove consecutive 0s in the beginning and at the end\n",
    "    sums = all_arys.sum(axis=1)\n",
    "    ends = np.where(sums > 0)[0]\n",
    "    return all_arys[min(ends): max(ends)]"
   ]
  },
  {
   "cell_type": "code",
   "execution_count": 23,
   "id": "85c6e654",
   "metadata": {},
   "outputs": [
    {
     "data": {
      "image/png": "iVBORw0KGgoAAAANSUhEUgAAAXAAAAEICAYAAABGaK+TAAAAOXRFWHRTb2Z0d2FyZQBNYXRwbG90bGliIHZlcnNpb24zLjQuMiwgaHR0cHM6Ly9tYXRwbG90bGliLm9yZy8rg+JYAAAACXBIWXMAAAsTAAALEwEAmpwYAAAokklEQVR4nO3de7wd873/8dengu0IdkJCCHZcDnGp0AQlzolcNI60WlQ50cavbVSlhyitrT3nJ+r00eU4NL1oXXqRHqpaFI265qJUGwlSokGCqBCS0iDtiZ/o9/fHmrX3rFkza2bd13fv9/PxyGNmvvO9fOayPpk96zLmnENERPzzvlYHICIi1VECFxHxlBK4iIinlMBFRDylBC4i4iklcBERTymBi7SIme1mZhvMbLOE9bPM7PpmxyX+UAKXtmdmC8xsnZm9ZWZ/MLPjU+pfYmZPmtkmM5vVpDAr5pz7k3NuoHPuvVbHIn5SAhcfnAMMc85tC5wBXG9mw8rUXwl8GbizlkEtT68RaVs6OaXpzGxXM7s1uKp+3cy+a2Z7mdkDZvammf3ZzG4q1HfOPeGc21RYBDYHdk3q3zk3xzl3F/B2zNinm9lvzew7wVhPm9mE0PqFZvZ1M/st8DdgDzPb18zuM7M3zOwZMzu5zLatMrMvmdkTZvZXM/uhme1oZneZ2dtmdr+ZDQrqdpmZM7MBwfKIYB+8bWb3ATtUtGOl31ECl6YK7vfOBV4EuoBdgJ8BlwD3AoOA4cB3Iu3mmtlGYBGwEFhSQxiHAc+TT5AXAbea2eDQ+k+Sv9LfBlgH3Af8FBgKnAp8z8z2L9P/icAk4B+BDwN3AV8JxnsfcHZCu58Cjwb1LgGmVbFt0o8ogUuzHQrsDHzJOfdX59xG59xDwLvA7sDOobIezrkp5BPqvwD3OOf+XkMMa4HZzrl3nXM3Ac8Ax4XWX+eceyq46p8MrHLO/dg5t8k59xhwC3BSmf6/45x7zTn3MvAgsMg597hz7h3gl8DB0QZmthswBvgP59w7zrnfAL+qYRulH1ACl2bbFXgxdEuk4MuAAY+Y2VNm9ulowyDh3gV8yMw+AhDU3RD8OypjDC+74l9xe5H8fyoFL4XmdwcOM7P1hX/AVGCnMv2/Fpr/35jlgTFtdgb+4pz7ayQukUQDWh2A9DsvAbuZ2YBwEnfOvQpMBzCzscD9ZvYb59zKmD4GAHsG7crdykiyi5lZKInvBtwRWh9O7i8BDzjnJlUxTiXWAIPMbOtQEt8tEotIEV2BS7M9Qj5Z5cxsazPrMLMjzezjZjY8qPMX8onrveANxGPNbCsz29zMTgP+CXggaYCgXgf583tAMEb4s9ZDgbODeh8HRgK/TuhuLvCPZvbJoP7mZjbGzEbWtBcinHMvkr+vf7GZbRH8J/bheo4hfY8SuDRV8JnnDwN7AX8CVgOfIH//d5GZbSB/NXyOc+4F8rdVZpG/b72O/EcKPxHci05yLflbFacCXw3mPxlavwjYG/gz8HXgJOfc6wnxvg0cA5wCvAK8ClwKbAlgZl8xs7sq2gnJ/pX8G6xvkH9z9Sd16lf6KNMDHaQ/MbPTgc8658a2OhaRWukKXETEU0rgIiKe0i0UERFP6QpcRMRTTf0c+A477OC6urqaOaSIiPceffTRPzvnhkTLm5rAu7q6WLKklp+wEBHpf8ws9lu5uoUiIuIpJXAREU8pgYuIeEoJXETEU0rgIiKeUgIXEfGUEriIiKf0QAeRKq3OPQjrgU4Y3p31YUAi9aMrcJFqrY9MRZpMCVykWp2RqUiT6RaKSJV020RaTVfgIiKeUgIXEfGUEriIiKeUwEVEPKUELiLiqX7zKZQrc/NhVbDQBTO6x7cwGmkXRedFjCHj4eSTKz9Xevrt0rkmjdN/rsBXJcxL/7aq/Op182vsN6V/kVr0nwTelTAv/VtX+dVDqr147opMRRrAnHNNG2z06NFOz8QUEamMmT3qnBsdLe83V+DLczmW7zuy5x/A8u9+N7/8/oPYsGFDiyOURik69rlcde0qbJup3wr7q7ZdX7P8ySd7j8lR/fvbsP3mCryQtAtGPr28qMy22459F/2+2WFJE8Qd+2raVdI2a7+V9Fdtu76m2uPps35/Bc7p00rLvjAjP91iC4bPu7+58UjzhI993HmQpV2lbbP0W2l/1bbra37x8975ITu0Lo420G+uwEVEfKUrcJE+LDcnx4FzDiQ3p3/fH+9vlMBF+oAbuKFoKv2DErhIHzCVqUVT6R90D1xEpM0l3QPv27+FksvBxm8ApwHXF6/bMQdvvhmsBzouhO7u0rbR8izuuAMe+2Tvclwf4f4HDIANl8CAMcA42HRZcrus8fVse5kYqvX738PdH8rPj7s9v1yIZfRoeOjE/Lop8/LLWWOuRXh7G91/EQNc/cYM7yNI3l+N3Jft6Gtfg79fHixsCbyTn+0v25+gb1+Bz9quwvpvxrcNl1c7brSPrLEljZ0WX5YYqlXJfq3XPk0dJxJTo/uPrVOHMZPGKXf+1Htb21G5/d8Ptr9/fgqlcBXDaaXrdsyF1lM8H16OlmdxyP8kxJHQ/8D/yM8PGAMDvlS+Xdb4kranHibf0zs/7vbiWMbe0rtuyrz4GOoZS7TvZvRfxOo7ZngfldtfjdyX7eh954UWtuyd7S/bn6BvX4GLiPQB/fMKXESkD1MCFxHxlBK4iIinMidwM9vMzB43s7nB8mAzu8/MVgTTQY0LU0REoiq5Aj8HCP9uYzcwzzm3NzAvWBYRkSbJ9EUeMxsOHAd8HfhiUHw8MC6YnwMsBC6ob3h5X16wlJ8E818Dzjh6VKZ2n1qwlHtDyzOB2WWWAR7bZyg777wzuQVLe9bNBLpDYxbWRcuj68Nu2woOP7y07gMPLOUTf8/P/7IDfrQRfhWs2wV4NGFbb1qwlHOC+d91bcfLL7/JSe/GVs3km8CpobGWLVvGxHWbAPgBsAzKbnOS8L4i0kfafkzqiyriSHP5gqVcBuwD3D92f2596Kme/Rt18+Ywdmzv2HHHO2wmtcX60ksvMWbl6wAMAdaF+ly+fDlHv5r/UssI4IWUvmqNpVleeOEFPrgq//nuYcCaMnWf2H9nhg4dWlRW6bnVKEuWLGXK273Lz35gD7bddtu69Z/1Cnw28GXg76GyHZ1zawCC6dCYdpjZGWa2xMyWrFu3rqogfxKa/78VtLs3sjw7ZRngkGfWlqxLahfXPqn8o/8bX/cToT36sVDyBng5oX+gKLl8cFVtyRvg3MhyIXkDfJb0bU4Sbhfto9I+ZyfM10Pw3VeeAf7tmdWJyRso2ddpsaStT1NI3pBP3uE+C8kb0pN3PWJplkLyhvLJG+D9T71SUjY7Mm2VcPIGGPXY83XtPzWBm9kUYK1z7tFqBnDOXeOcG+2cGz1kyJBquuBTofmvVdDumMjyzJRlyF+BR9cltYtrn1R+21bxdW8KHYFfdsCHQ+t2Segf4Fuh+d91bcfNm5epnME3I8v3D+n94+wHpG9zknC7aB+V9jkzYb4eCl+f2gf4zj7Di/ZvVHRfp8WStj7N4r2275kvvIIKfS7YqfdLLSMy9FVrLM3yu67eb14OS6n7xP47l5TNjExbZe42xctLD9mjrv2nfpHHzL4BfBLYBHQA2wK3AmOAcc65NWY2DFjonNunXF/6Io+ISOWq/jEr59yFwIVBJ+OA851zp5nZZcA0IBdMb69nwFHz5ueAa4HpTBif7f3S3jYF04HRwOdiahf3W9oWxox+nG233ZZ58/8duDEoPZcJ47+QMm78GOXr5u2153x233135s2/HPgesBcwFrgusU2ybiaMn15SGrefyu3j4vqF/sofm5dffpmnn/mnYGkW+RtElR3PRspyzNKOFcD2g29h1KhRGfot7T8+ns2B/D2b/ff7LTvttFNMn1ty2KGPMHDgwLKxVfMaapUs+zpswvjnEtq3/7bWopbPgeeASWa2ApgULDfQtZFpJW3Cy3HJO6lusSWPHhHM3Rgqjd58iG+bXF5+e1Y+Nz6Y+16hhOqSNyQfovRtT15/LVmOTW/yhnwCr+Z4NlKWY5Ye6+tvnJix36zj9t5wf+qPRya0eYclj/5zamztt8/LqTVGn7a1ehUlcOfcQufclGD+defcBOfc3sH0jcaEWDA9Mq2kTXj56grqFhv9gYeDuVNDpdG3/+LbJpeX35699pwfzJ1VKAFOL9smWdKVSPq2J6+fTpZjs+8+vwktzcrUprmyHLP0WLcffEukpJJ9GVfee8N9//1+m9BmS0Z/4IHU2Npvn5dTa4w+bWv19GNWIiJtrn8+0EGaLpfLsXHjRgA6OjoA2LhxIx0dHXS3+If3C7G1QyxSKnru6BilUwKXuiq8AMvNt0ohhnaIRUq12/niA/2YldRV4aq7MF9YDpe3SjvFIqWi546k0z1wEZE25/098NW5B2E90AnDu49Kr/+dB0u/ix60DffF8TvAnD+X7ywyZk/7kF2+MRYz49VXX2XT7BWJXQ3PHZXYR3g8oGR7y7ZJi/mSB+GvFdQPj9VJ0biFbcgiNebObMez4vFi+s20/1Liie6XnmPztQfhbyl9T9+Z4XvumT2elFgqFd03sePXecxKrO5+sLIGHcBG4o/1smVw/V/yC2Nh+JTWbFOj+XMLZX1kmibuh0SifawnPXnHjRkTw7tr8tmxXPJO66No3frQfJY2af2XS95x9asdN63fStdXO15cv1nGSquzPmE+LXkDXBv5zY5KxqqH9QnTRo7ZSIXb5Otj1hWSN8BDTYilRfxJ4J2RaZq4HxKJ9tEJTNsh+9hJy8Dmw7YGYMDMvdP7S+ijaF1naD5Lm7T+t66wfrXjpvVb6fpqx4vrN8tYaXU6E+b/IUPf0yO/2VHJWPXQmTBt5JiNVLhN3hmz7rTQ4wnGNiGWFtE9cBGRNqeHGouI9DHevInZ112ey8Hjwc26g8dyXsyXGIrqhCXUT20XY5sJH+GMM87IVFdEWktX4O0inGCTkm2l5VnXh7w9747MdUWktZTA28XBY+Pnk+pkKc+6PmSbCR/JXFdEWktvYoqItDnvv8hzzz3zWfnL/PwRnxvEwQcfXLb+lbn5sKq47ISLRjJs2LDedV0wo3t8bN0ZV41n8eLFPPLDyEPtooI+SsYt9H3ZfHgu0qaT/GdXhwJrg7L9YMbZ42l3cfuq0cZ8eiCHHnpoaQxdxfu+aF2abYG34vuoVtHYoX6v/PL8/FhlnHTx/uy44451iSPJlWfPh/+XUqkr+TVRz31VFFfWY9YVTFfl5487ZQ/uzOWfMbn9ODjllIRzoasxcbcDb26hFJI3wMNX/yW5YsGq0qJbL15evC46jUhN3nFto31Gkzf0fvFgbajsj+lDtYVVzR9y8Y82xMewilJxZXEKCTVr/SxWJcynJG+Amy96qo6BJEhL3lCffVuprP2uoii+QvIGeH1hmX6z9u8hbxL4Xh/rnT/ic4OSKxZ0lRadcNHI4nXRacShn9kmfkW5caJ97kmpzmA6NFS2X/pQbaGr+UOO+XTkUWFdkWncujTbVlg/i66E+W1JddLF+9cxkARbZKjTFZnGrau3rP12URTfcd29DwjeflyZfrP27yHdAxcRaXPe3wNvtOX7jiwtPH1afnrdnN6y7bZl5KJFLF+wAD4fPOZs5L6w/Oni+qdPY2QFP0i//PHH4dR/zS98azYjP/ShKrYioe9criimtGXfLH/0UZh6Wkn51vfew2677daCiFqn6Dw+fVrxuQvQuR0jf//75gYlDaMr8EBsAk8w8unlmeqPfHp51eNX0raSvqOxxy37ptyx8HF7alHv81Lag75KX43Tp/VeVRdsF9zQ/P73estG7ltaP9ouzY0/7Z3/1uzK2qaJxpQ29c0N18cWb33vPU0OpM3EHc/O7ZofhzSMrsBFRNpcn7gHnpuT4wZuYCpT6Z5Weq+2sD4srm5aP40QHvM1XuN+7u9ZdxAHcf206xPrd0/rbljMWffZ+vXrOer2/I/iz2AG7/Iu13BNarukMSrx5LQnq4q53D5bu3YtE+6aAMC5nMunp3266viyCMccjuesOWfxINkeZFBod+CcAxPXZY0jXP/7c77P9/heSsvsY6SNHe7v/UPezwXrLugpO4ADWMaynuWbD7+Zk35/EgBnczav83pR/B+Y8wH+X/D5yNvG3saeoQdmtOJ13mxeXYGHT9zoizq6PixaN62fRkiKLSmOaIyNijnrPjvkJ4fwrns3tb9KjktW5fZN1nppfTT6PEgar9J9Ez0X4vrMGkc1MdSyn2o9D6Li9kU4vla8zhulT9wDn8rUomnS+qxlSf00QnjMiUwsWncQB5WtHzetd1xpZfM/Mr9nfgYzOIPSXyys5LjUoh7Hed6x83rmz+XcOkYXLxxDeP4osj/qq9x+zLqP4/bJWZxV8/jVtJ/KVC4dcmlR2QEcULR88+E398yfzdkl8W8R+nD7bWNvix2vma/zZvPqClxEpD/qE/fAyeVg4zeg40KI+7xyYX3YuNth3LjiMufg4tOAubDVV+CCC0JtDXDFY8zqzJeFdVyYnxaNNwY6JsbHGBdbXF+FduFtPfJImDclX2fSr+HBBysfo+CjD8CoUaXl99wDvzu5fFuAqUtg75jHxs06FHgmvf0pi+BnhxWXVXI8S5wA3AoDjoYLb4HNNutd9be/wX8Ny88PvgTOPju+/6TxmyW8nXGxxO6HTpj1YrY+e3wBOrZJHituf1x2Gfz1P3vrHHkzTJqUccNSYot7DUVfC+H5cudI3Pof/xhenJmf//yz0ODfmmkFv67AZ4U+AjXrzfLri8ojddc8AVcfVbw+rm2hXVK/acLjVtJHUjz1GqOSfdeI9o3qc8IsOCp0O+Ty/eDt0NOto2OknU/NEt3OcnGWq5elTbk+4vZHuddFterxeorrK22/tfIY16hP3APv+R+5ME1aHzbu9tKynQ4Egivarb4SaWsxfVn8WCXjjUmOMSnmaF9x0wlze+tO+nV1YxR89IH48g/+PL0t5K/AY+2Trf0pi0rLKjmeJU7ITwYcDUdErrA/H4p18CXJ/Wcap4HC48fFEhtfZ/Y+e3yh/Fhx+2Prfy+uc+TN1Cw8TlwMcevTzpG49bvP7p3//LNVh9vO/LoCFxHph/rGFbiIiPTw601MKZLL3clV64vLztkRzj33uEztzuyE7u7ydaW9xZ0DWwNP5XRc+wNdgXss+sIF+NZr2dvFtRe/xB3DvzY9CmmV1ARuZh1m9oiZ/cHMnjKzi4PywWZ2n5mtCKYZnrIg9XRmZ2nZORk+KVVoF9de/BJ3DLduehTSKqlvYpqZAVs75zaY2ebAQ8A55N/+f8M5lzOzbmCQc+6Ccn3pTUwRkcpV/UUel8/whYcSbh78c8DxwLigfA6wECibwGuVW7CU2cBMoPvoUUVlpwPXxbR5NaiXpa+0MQrC63ZasDS2/8V7bc+uu+5adlwgNgbI/9jS+596Beh9/m5YXJtq/GLBUv4tmH9g563451f+F4DzgfMj/Y9fsLTo0Z3nAV+qMIbwvpwZTMPLcdv0/QVLuRjYDPjjISPYbrviz/cmHcus68Ju2QKOPLI0Bp9MWrCUwi9//GogjBkzqmfd7QuW8rlQ3X8HvnD0qLLnOMSft0nmAB/KeF5Ex70AeIfk10W5PuLql1vXF2S6B25mm5nZUvKP4b3PObcI2NE5twYgmA5NaHuGmS0xsyXr1q2rKdjZkWl4/ro69JU2RtJynDErX08dNykGoCd5Q/wzcbPEkMW/heYLyRvgv2PqRp+7fHkV482OzEeX41wcTN8DDnrshcQ+49pnWRd2YpYH/7a58M82fTjyPOjPFS9S+I7l7Eh50vLsmHVRlfyqfLSvSyl/zMr1EVe/0r58kymBO+fec86NAoYDh5rZASlNwm2vcc6Nds6NHjJkSJVh5s2MTMPzp9ehr7QxkpbjLN5r+9Rxk2IAeGL/nXvm456JmyWGLL4Tmn9g56165s+PqRt97vJ5VYw3MzIfXY5zUTDdDPjDISMS+4xrn2Vd2C1ZHvzb5sK/z/eryPOgr47ULXxNZ2akPGl5Zsy6qDkp68uNcwHlj1m5PuLqV9qXbyr+Io+ZXUT+je7pwDjn3BozGwYsdM6V/Tqe7oGLiFSu6nvgZjYEeNc5t97MtgImkv9L5w7yfy3lgmnMd9YlbN78HHBtsDSdCeOz/YBSb7vsbUTKKT4XC65mwviJcdWlTWW5hTIMWGBmTwCLyd8Dn0s+cU8ysxXApGBZyro2YT5ru0raiJQTdy5F75BLu8vyKZQngINjyl8HJjQiqL5rOuEr8MrbVdJGpJzwuVgQvUMu7U4/ZiUi0ub6xAMdNm3axH/+Z/6DTwMHDuT8889n1qxZRXU6OjoA2LhxIx0dHXQn/FB/LpeLrfPWW29xxRVXADB06FDOOuussm0KZeHxk8asVFKMjRTdn1nXh/fDlltuyTvvvNOzLin+xYsXc+edd5aUT58+nV122SW2/7i+sqxL0sx92+6uv/56Vq5c2bM8YsQIpk2bVtE+TKt7zDHHcMQRRwCwbt06rrzyyth+6qUVr6Fm8uq3UO69996e+Q0bNsTW2bhxY88JVO5ESqrz7W9/u2d+7dq1qW2i7cuNWaks29EuwjGGk3d0XVhc8ga49trS+7Pl9kWWdUl82LfNEk7eAC+8kP/MfSX7MK1u+DUcTt5Z2lbDp9dQNbxK4Mccc0zP/MCBA2PrdHR09FyFF6ZJ9eLqnB167NbQoUNT20TblxuzUlm2o12EY9xyyy0T14Udd1z8L+ZNn156r7/cvsiyLokP+7ZZ9tprr6LlESPyn7mvZB+m1Q2/hmfMmJHYT7349Bqqhu6Bi4i0uT5xDzzO6tyDsD5U0AnDu49KqF1hn5G+XnnlFf7+7efyC/vB8E8dldqmqN8VK+CHr+YXxsDwE8vHWbJtOwEbSR2nUYri6QymoeVa46l2/5bsp6g6xNafpO3Pgd0H0tnZmVhveK50X6/ufjC5w87ajk9R33vA8DP6z7H26hZKrPUpy7X0GemrJ7lA6Q+DJLQpUkjekP9EfdY4Cl7NOE6jrI/MR5drVPX+TRs7bb0UW19+9YbLnsxUr17jVeT5OvblAf8TeGfKci19Rvp639l79i5EfxgkoU2Rz+zUOz+mgjgKdso4TqN0RuajyzWqev+mjZ22Xop1ll898EsHZqpXr/Eqskcd+/KA7oGLiLQ5PdRYRKSP8f5NTBFpD5d/Ykpp4cFjOa8PfoGmXegKXEQa5/GHWh1Bn6YELiKNc/DYVkfQp+kWiojUxXk3zW11CP2O1wn8xz+ez98WRQq7YEb3+IaNeWVuPqwqHefZZ5/lvitWAzDsGDjhhNIYktomufPO+az6Ve/yjKsat10FPTFC/hlm25N/Eio0fN+WxBAaryiuOE2KrT+r5PxNOl7hc7jS10M94uprvL6FUpK8ofyLvB5WRaaBQvIGWHMv8RLaJg71q/Q6dbcqNP8evck7uq4ZMayKKUtrI42zKjLNUrde/TWjHw95ncD/4bCYwq4GD9oVmQYmfXF4z/ywY4iX0DZxqA9nDaqOukLzmwFDE9Y1I4aumLK0NtI4XZFplrr16q8Z/XhIX+QREWlz+iKPiEgfowQuIuIpJXAREU8pgYuIeMq7z4EfP+d4ng9+9Hc4w1nNajroYCP5Z97desSt7L333i2JLTcnxw3cwFSm0j2tTg82bkCfPihsd1ij90HcmH3R3RPvLnlodBYrVqzghIdPAGDWwFkce+yxHPaL3o+CVXp86nluJ/UVPqZ98TXk3RX486FfbF9N/rPXheQN9JxgrVA4UeqZBBrRpw/itrfR+6C/7OPJ90+uql34tTVrwyyOn3t80fpK9189z+2kvsLLffH4epfA9wj9Yvtw8p+97qD3gaW3HnFr02MqmMrUomm79umDuO1t9D7oL/v47ol3V9Uu/NqaNXAWt0+5vWh9pfuvnud2Ul/h5b54fPU5cBGRNtdnH2osIk2Uy8HGbxSXffxh2H//1sTTz3l3C0VEWiiavAF+cUTz4xBACVxEKtFxYWnZxx9ufhwC6BaKiFSiuxvoWx/F85muwEVEPOX1FXgudydXrYczO6G7+7hWh9MQ/WEbm6mwPwse+PwB7L777i2Lp6+Inqdr167l0CsW96yPnr8/+9mddC/Nzy88c3+6urpqGv/o7jt5IbS8Ktc/XiteX4EXXojhF2Rf0x+2sZmi+/Gfv7+sJXH0NdHzNJy8w+UFheQNMO6qp2oe/4X0Kn1SagI3s13NbIGZLTezp8zsnKB8sJndZ2Yrgumgxodb7MzO4mlf1B+2sZmi+/GBzx/Qkjj6muh5+sgXx8SuL8iN6p1feGbtH0EcUXMPfkr9Io+ZDQOGOeceM7NtgEeBjwKnA28453Jm1g0Mcs5dUK4vfZFHRKRyVX+Rxzm3BlgTzL9tZsuBXYDjgXFBtTnAQqBsAq+H3IKlzAYmAvcHZT8Aphw9qtFDt9zSpUuZ/Jf8/HXA5H6wzdUonCMF9w8ZwAEH6Eq70aL7HWDRHoO48fm/MBuYCXQH52yhbrisEbGcABR+AOAK4F/72GumonvgZtYFHAwsAnYMknshyQ9NaHOGmS0xsyXr1q2rMVx6TpD7Q2WfrblXPxSSN+T//JF4syPLE9dtakUY/c7smLLDguQdXR9X1ohYwr+M9MUGjdVKmRO4mQ0EbgFmOufeytrOOXeNc260c270kCFDqomxyMxgOjFU9oOae/XD3aF3Ga5rWRTtb2Zk+f4hXn/YyhszY8oW7TGopzy8Pq6sEbGEf5v0igaN1UqZfszKzDYH5gL3OOeuCMqeAcY559YE98kXOuf2KdeP7oGLiFSu6nvgZmbAD4HlheQduAOYBuSC6e0xzUVEWmre/DHAGz3LE8Y/17pg6izL35ZHAp8EnjSzpUHZV8gn7p+b2WeAPwEfb0iEIiI1eSO9iqeyfArlIcASVk+obzgiIvU2mL6axPXujoj0aRPGL06v5ClvE3gul2Pjxo10dHTQ3a1fR+tvCse/YPLkyRx++OEtjEjKiR6vgma/ft977z0uueSSnuVx48Yxbty4po1fb97+FkrhZIg7KaTvix73u++u7jmP0hxJr9Nmv34ffrj4t8sXLlzY1PHrzdsE3tHRUTSV/iV63CdPru5J69IcSa/TZr9+jzii+OlBPl99gx5qLCLS9pI+B+7tFbiISH+nBC4i4iklcBERTymBi4h4SglcRMRTXn6R5/JPTClaPu+muS2KRBrp8ksvhcce7Fk+aPpMJk6cWKaF+OD555/nlxeeDcCuJ36Kk08+uWWxRHNJtVqVg3QFLu0rlLwB/nDt7NbEIXVVSN4AL93ykxZG4j8lcGlfhxxVtHjQ9JmtiUPq6mPf+HbP/K4nfqqFkfhPX+QREWlz+iKPiEgfowQuIuIpJXAREU8pgYuIeEoJXETEU0rgIiKeUgIXEfGUEriIiKeUwEVEPKUELiLiKSVwERFPKYGLiHhKCVxExFNK4CIinlICFxHxlBK4iIinlMBFRDylBC4i4iklcBERT6UmcDP7kZmtNbNlobLBZnafma0IpoMaG6aIiERluQK/DpgcKesG5jnn9gbmBcsiItJEqQncOfcb4I1I8fHAnGB+DvDR+oYlIiJpqr0HvqNzbg1AMB2aVNHMzjCzJWa2ZN26dVUOJyIiUQ1/E9M5d41zbrRzbvSQIUMaPZyISL9RbQJ/zcyGAQTTtfULSUREsqg2gd8BTAvmpwG31yccERHJKsvHCG8EfgfsY2arzewzQA6YZGYrgEnBsoiINNGAtArOuVMTVk2ocywiIlIBfRNTRMRTSuAiIp5SAhcR8ZQSuIiIp5TARUQ8pQQuIuIpJXAREU8pgYuIeEoJXETEU0rgIiKeUgIXEfGUEriIiKeUwEVEPKUELiLiKSVwERFPKYGLiHhKCVxExFNK4CIinlICFxHxlBK4iIinlMBFRDylBC4i4iklcBERTymBi4h4SglcRMRTSuAiIp5SAhcR8ZQSuIiIp5TARUQ8pQQuIuIpJXAREU8pgYuIeEoJXETEUzUlcDObbGbPmNlKM+uuV1AiIpKu6gRuZpsBVwLHAvsBp5rZfvUKTEREyhtQQ9tDgZXOuecBzOxnwPHAH+sRWNhO+27HmSeeW+9uRUSa6qpbvsmrT79Zt/5qSeC7AC+FllcDh0UrmdkZwBkAu+22W1UDnXniubVFKiLSBmac+MW69ldLWrSYMldS4Nw1wDUAo0ePLlmfxVW3fFNX4CLivStvuYL/+PpFdeuvlgS+Gtg1tDwceKW2cOLV808OEZFWmfX1WXXtr5ZPoSwG9jazEWa2BXAKcEd9whIRkTRVX4E75zaZ2ReAe4DNgB85556qW2QiIlJWTW8NOud+Dfy6TrGIiEgF9E1MERFPKYGLiHhKCVxExFNK4CIinjLnqvpuTXWDma0DXqyy+Q7An+sYTiv4vg2Kv/V83wbf44fWbMPuzrkh0cKmJvBamNkS59zoVsdRC9+3QfG3nu/b4Hv80F7boFsoIiKeUgIXEfGUTwn8mlYHUAe+b4Pibz3ft8H3+KGNtsGbe+AiIlLMpytwEREJUQIXEfGUFwm8XR6ebGa7mtkCM1tuZk+Z2TlB+WAzu8/MVgTTQaE2FwZxP2NmHwqVf8DMngzWfdvMLCjf0sxuCsoXmVlXA7ZjMzN73Mzmehp/p5ndbGZPB8figz5tg5mdG5w/y8zsRjPraPf4zexHZrbWzJaFypoSs5lNC8ZYYWbT6rwNlwXn0RNm9ksz62znbSjhnGvrf+R/qvY5YA9gC+APwH4timUYcEgwvw3wLPkHOv8X0B2UdwOXBvP7BfFuCYwItmOzYN0jwAfJP9noLuDYoPws4Kpg/hTgpgZsxxeBnwJzg2Xf4p8DfDaY3wLo9GUbyD+K8AVgq2D558Dp7R4/8E/AIcCyUFnDYwYGA88H00HB/KA6bsMxwIBg/tJ234aSbar3i6ve/4IddU9o+ULgwlbHFcRyOzAJeAYYFpQNA56Ji5X8b6d/MKjzdKj8VODqcJ1gfgD5b3xZHWMeDswDxtObwH2Kf1vyCdAi5V5sA73Pkh0c9D03SCJtHz/QRXHya3jM4TrBuquBU+u1DZF1HwNuaPdtCP/z4RZK3MOTd2lRLD2CP48OBhYBOzrn1gAE06FBtaTYdwnmo+VFbZxzm4A3ge3rGPps4MvA30NlPsW/B7AO+HFwG+gHZra1L9vgnHsZ+G/gT8Aa4E3n3L2+xB/RjJib+fr/NPkr6qJ4IuO21Tb4kMAzPTy5mcxsIHALMNM591a5qjFlrkx5uTY1M7MpwFrn3KNZmyTE0pL4AwPI/xn8fefcwcBfyf/5nqSttiG4T3w8+T/Ldwa2NrPTyjVJiKWVxyBNPWNuyraY2VeBTcANNcTT9G3wIYE37eHJWZjZ5uST9w3OuVuD4tfMbFiwfhiwNihPin11MB8tL2pjZgOA7YA36hT+kcBHzGwV8DNgvJld71H8hf5XO+cWBcs3k0/ovmzDROAF59w659y7wK3AER7FH9aMmBv++g/eVJwCTHXBPQ5ftsGHBN42D08O3m3+IbDcOXdFaNUdQOGd5Wnk740Xyk8J3p0eAewNPBL8ufm2mR0e9PmpSJtCXycB80MnVU2ccxc654Y757rI78f5zrnTfIk/2IZXgZfMbJ+gaALwR4+24U/A4Wb2D8G4E4DlHsUf1oyY7wGOMbNBwV8vxwRldWFmk4ELgI845/4W2bb234Z63Ehv9D/gX8h/4uM54KstjGMs+T99ngCWBv/+hfx9rnnAimA6ONTmq0HczxC8Wx2UjwaWBeu+S++3YjuAXwAryb/bvUeDtmUcvW9iehU/MApYEhyH28i/s+/NNgAXA08HY/8P+U86tHX8wI3k79m/S/6K8jPNipn8vemVwb//U+dtWEn+/vTS4N9V7bwN0X/6Kr2IiKd8uIUiIiIxlMBFRDylBC4i4iklcBERTymBi4h4SglcRMRTSuAiIp76/yrqpFed9OdYAAAAAElFTkSuQmCC\n",
      "text/plain": [
       "<Figure size 432x288 with 1 Axes>"
      ]
     },
     "metadata": {
      "needs_background": "light"
     },
     "output_type": "display_data"
    }
   ],
   "source": [
    "result_array = mid2arry(mid)\n",
    "import matplotlib.pyplot as plt\n",
    "plt.plot(range(result_array.shape[0]), np.multiply(np.where(result_array>0, 1, 0), range(1, 89)), marker='.', markersize=1, linestyle='')\n",
    "plt.title(\"cs3-1pre.mid\")\n",
    "plt.show()"
   ]
  },
  {
   "cell_type": "code",
   "execution_count": 38,
   "id": "bebcc0fe",
   "metadata": {},
   "outputs": [
    {
     "name": "stdout",
     "output_type": "stream",
     "text": [
      "[  0   0   0   0   0   0   0   0   0   0   0   0   0   0   0   0   0   0\n",
      "   0   0   0   0   0   0   0   0   0   0   0   0   0   0   0   0   0   0\n",
      "   0   0   0 100   0   0   0   0   0   0   0   0   0   0   0   0   0   0\n",
      "   0   0   0   0   0   0   0   0   0   0   0   0   0   0   0   0   0   0\n",
      "   0   0   0   0   0   0   0   0   0   0   0   0   0   0   0   0]\n"
     ]
    },
    {
     "data": {
      "text/plain": [
       "array([0, 0, 0, 0, 0, 0, 0, 0, 0, 0, 0, 0, 0, 0, 0, 0, 0, 0, 0, 0, 0, 0,\n",
       "       0, 0, 0, 0, 0, 0, 0, 0, 0, 0, 0, 0, 0, 0, 0, 0, 0, 1, 0, 0, 0, 0,\n",
       "       0, 0, 0, 0, 0, 0, 0, 0, 0, 0, 0, 0, 0, 0, 0, 0, 0, 0, 0, 0, 0, 0,\n",
       "       0, 0, 0, 0, 0, 0, 0, 0, 0, 0, 0, 0, 0, 0, 0, 0, 0, 0, 0, 0, 0, 0])"
      ]
     },
     "execution_count": 38,
     "metadata": {},
     "output_type": "execute_result"
    }
   ],
   "source": [
    "first_note = result_array[0, :]\n",
    "print(first_note)\n",
    "bool_arr = np.where(first_note>0, 1, 0)\n",
    "bool_arr"
   ]
  },
  {
   "cell_type": "code",
   "execution_count": 24,
   "id": "0f5b29fc",
   "metadata": {},
   "outputs": [],
   "source": [
    "def arry2mid(ary, tempo=500000):\n",
    "    # get the difference\n",
    "    new_ary = np.concatenate([np.array([[0] * 88]), np.array(ary)], axis=0)\n",
    "    changes = new_ary[1:] - new_ary[:-1]\n",
    "    # create a midi file with an empty track\n",
    "    mid_new = mido.MidiFile()\n",
    "    track = mido.MidiTrack()\n",
    "    mid_new.tracks.append(track)\n",
    "    track.append(mido.MetaMessage('set_tempo', tempo=tempo, time=0))\n",
    "    # add difference in the empty track\n",
    "    last_time = 0\n",
    "    for ch in changes:\n",
    "        if set(ch) == {0}:  # no change\n",
    "            last_time += 1\n",
    "        else:\n",
    "            on_notes = np.where(ch > 0)[0]\n",
    "            on_notes_vol = ch[on_notes]\n",
    "            off_notes = np.where(ch < 0)[0]\n",
    "            first_ = True\n",
    "            for n, v in zip(on_notes, on_notes_vol):\n",
    "                new_time = last_time if first_ else 0\n",
    "                track.append(mido.Message('note_on', note=n + 21, velocity=v, time=new_time))\n",
    "                first_ = False\n",
    "            for n in off_notes:\n",
    "                new_time = last_time if first_ else 0\n",
    "                track.append(mido.Message('note_off', note=n + 21, velocity=0, time=new_time))\n",
    "                first_ = False\n",
    "            last_time = 0\n",
    "    return mid_new"
   ]
  },
  {
   "cell_type": "code",
   "execution_count": 25,
   "id": "6f717725",
   "metadata": {},
   "outputs": [],
   "source": [
    "mid_new = arry2mid(result_array, 545455)\n",
    "mid_new.save('mid_new.mid')"
   ]
  },
  {
   "cell_type": "code",
   "execution_count": null,
   "id": "0d57db7f",
   "metadata": {},
   "outputs": [],
   "source": []
  }
 ],
 "metadata": {
  "kernelspec": {
   "display_name": "Python 3 (ipykernel)",
   "language": "python",
   "name": "python3"
  },
  "language_info": {
   "codemirror_mode": {
    "name": "ipython",
    "version": 3
   },
   "file_extension": ".py",
   "mimetype": "text/x-python",
   "name": "python",
   "nbconvert_exporter": "python",
   "pygments_lexer": "ipython3",
   "version": "3.9.7"
  }
 },
 "nbformat": 4,
 "nbformat_minor": 5
}
